G75*
%MOIN*%
%OFA0B0*%
%FSLAX25Y25*%
%IPPOS*%
%LPD*%
%AMOC8*
5,1,8,0,0,1.08239X$1,22.5*
%
%ADD10C,0.00000*%
%ADD11C,0.00600*%
%ADD12C,0.00500*%
D10*
X0021800Y0041800D02*
X0021800Y0238650D01*
X0218650Y0238650D01*
X0218650Y0041800D01*
X0021800Y0041800D01*
D11*
X0170100Y0126942D02*
X0176505Y0126942D01*
X0173303Y0128009D02*
X0170100Y0131212D01*
X0170100Y0133387D02*
X0170100Y0135523D01*
X0170100Y0134455D02*
X0176505Y0134455D01*
X0176505Y0133387D02*
X0176505Y0135523D01*
X0176505Y0137684D02*
X0170100Y0137684D01*
X0170100Y0141955D01*
X0170100Y0144130D02*
X0170100Y0148400D01*
X0170100Y0150575D02*
X0174370Y0150575D01*
X0176505Y0152711D01*
X0174370Y0154846D01*
X0170100Y0154846D01*
X0170100Y0157021D02*
X0176505Y0157021D01*
X0173303Y0158088D02*
X0170100Y0161291D01*
X0170100Y0163466D02*
X0170100Y0165602D01*
X0170100Y0164534D02*
X0176505Y0164534D01*
X0176505Y0163466D02*
X0176505Y0165602D01*
X0176505Y0167763D02*
X0170100Y0167763D01*
X0170100Y0172034D01*
X0170100Y0174209D02*
X0170100Y0178479D01*
X0170100Y0180654D02*
X0174370Y0180654D01*
X0176505Y0182790D01*
X0174370Y0184925D01*
X0170100Y0184925D01*
X0173303Y0184925D02*
X0173303Y0180654D01*
X0176505Y0174209D02*
X0170100Y0174209D01*
X0176505Y0161291D02*
X0172235Y0157021D01*
X0173303Y0154846D02*
X0173303Y0150575D01*
X0176505Y0144130D02*
X0170100Y0144130D01*
X0176505Y0131212D02*
X0172235Y0126942D01*
D12*
X0057469Y0201446D02*
X0022036Y0201446D01*
X0022036Y0232154D01*
X0057469Y0232154D01*
X0057469Y0201446D01*
X0041721Y0203020D02*
X0024005Y0204989D01*
X0024005Y0208926D01*
X0041721Y0210894D01*
X0043690Y0213847D02*
X0024005Y0211879D01*
X0024005Y0221721D02*
X0043690Y0219753D01*
X0043690Y0213847D01*
X0039753Y0222706D02*
X0024005Y0224674D01*
X0024005Y0228611D01*
X0039753Y0230580D01*
M02*
