G75*
%MOIN*%
%OFA0B0*%
%FSLAX25Y25*%
%IPPOS*%
%LPD*%
%AMOC8*
5,1,8,0,0,1.08239X$1,22.5*
%
%ADD10C,0.00000*%
%ADD11C,0.01040*%
%ADD12OC8,0.05200*%
%ADD13C,0.05200*%
%ADD14C,0.05200*%
%ADD15C,0.05150*%
%ADD16C,0.11220*%
%ADD17C,0.07400*%
%ADD18C,0.01600*%
%ADD19C,0.03562*%
D10*
X0021800Y0041800D02*
X0021800Y0238650D01*
X0218650Y0238650D01*
X0218650Y0041800D01*
X0021800Y0041800D01*
D11*
X0074823Y0058605D02*
X0075343Y0059125D01*
X0075343Y0057403D01*
X0074125Y0056185D01*
X0072403Y0056185D01*
X0071185Y0057403D01*
X0071185Y0059125D01*
X0072403Y0060343D01*
X0074125Y0060343D01*
X0075343Y0059125D01*
X0074563Y0058802D01*
X0074563Y0057726D01*
X0073802Y0056965D01*
X0072726Y0056965D01*
X0071965Y0057726D01*
X0071965Y0058802D01*
X0072726Y0059563D01*
X0073802Y0059563D01*
X0074563Y0058802D01*
X0073783Y0058479D01*
X0073783Y0058049D01*
X0073479Y0057745D01*
X0073049Y0057745D01*
X0072745Y0058049D01*
X0072745Y0058479D01*
X0073049Y0058783D01*
X0073479Y0058783D01*
X0073783Y0058479D01*
X0081895Y0065677D02*
X0082415Y0066197D01*
X0082415Y0064475D01*
X0081197Y0063257D01*
X0079475Y0063257D01*
X0078257Y0064475D01*
X0078257Y0066197D01*
X0079475Y0067415D01*
X0081197Y0067415D01*
X0082415Y0066197D01*
X0081635Y0065874D01*
X0081635Y0064798D01*
X0080874Y0064037D01*
X0079798Y0064037D01*
X0079037Y0064798D01*
X0079037Y0065874D01*
X0079798Y0066635D01*
X0080874Y0066635D01*
X0081635Y0065874D01*
X0080855Y0065551D01*
X0080855Y0065121D01*
X0080551Y0064817D01*
X0080121Y0064817D01*
X0079817Y0065121D01*
X0079817Y0065551D01*
X0080121Y0065855D01*
X0080551Y0065855D01*
X0080855Y0065551D01*
D12*
X0046800Y0076800D03*
X0036800Y0076800D03*
X0026800Y0076800D03*
X0046800Y0046800D03*
X0166800Y0111800D03*
X0176800Y0101800D03*
X0176800Y0091800D03*
X0176800Y0061800D03*
X0206800Y0101800D03*
X0151800Y0181800D03*
X0141800Y0181800D03*
X0131800Y0211800D03*
X0124300Y0216800D03*
X0131800Y0221800D03*
X0151800Y0211800D03*
X0176800Y0206800D03*
X0176800Y0216800D03*
X0191800Y0226800D03*
X0201800Y0226800D03*
X0211800Y0221800D03*
X0211800Y0191800D03*
X0101800Y0206800D03*
X0101800Y0216800D03*
D13*
X0151800Y0231800D03*
X0146800Y0111800D03*
D14*
X0129400Y0111800D02*
X0124200Y0111800D01*
X0124200Y0101800D02*
X0129400Y0101800D01*
X0129400Y0091800D02*
X0124200Y0091800D01*
X0124200Y0081800D02*
X0129400Y0081800D01*
X0129400Y0071800D02*
X0124200Y0071800D01*
X0124200Y0061800D02*
X0129400Y0061800D01*
X0129400Y0051800D02*
X0124200Y0051800D01*
X0099400Y0051800D02*
X0094200Y0051800D01*
X0094200Y0061800D02*
X0099400Y0061800D01*
X0099400Y0071800D02*
X0094200Y0071800D01*
X0094200Y0081800D02*
X0099400Y0081800D01*
X0099400Y0091800D02*
X0094200Y0091800D01*
X0094200Y0101800D02*
X0099400Y0101800D01*
X0099400Y0111800D02*
X0094200Y0111800D01*
X0094200Y0121800D02*
X0099400Y0121800D01*
X0099400Y0131800D02*
X0094200Y0131800D01*
X0094200Y0141800D02*
X0099400Y0141800D01*
X0099400Y0151800D02*
X0094200Y0151800D01*
X0094200Y0161800D02*
X0099400Y0161800D01*
X0099400Y0171800D02*
X0094200Y0171800D01*
X0094200Y0181800D02*
X0099400Y0181800D01*
X0124200Y0181800D02*
X0129400Y0181800D01*
X0129400Y0171800D02*
X0124200Y0171800D01*
X0124200Y0161800D02*
X0129400Y0161800D01*
X0129400Y0151800D02*
X0124200Y0151800D01*
X0124200Y0141800D02*
X0129400Y0141800D01*
X0129400Y0131800D02*
X0124200Y0131800D01*
X0124200Y0121800D02*
X0129400Y0121800D01*
D15*
X0056879Y0210501D03*
X0052154Y0213650D03*
X0056879Y0216800D03*
X0052154Y0219950D03*
X0056879Y0223099D03*
D16*
X0036800Y0231170D03*
X0036800Y0202430D03*
D17*
X0026800Y0181800D03*
X0026800Y0171800D03*
X0026800Y0161800D03*
X0026800Y0151800D03*
X0026800Y0141800D03*
X0026800Y0131800D03*
X0026800Y0121800D03*
X0026800Y0111800D03*
X0076800Y0111800D03*
X0076800Y0101800D03*
X0076800Y0091800D03*
X0141800Y0051800D03*
X0151800Y0051800D03*
X0161800Y0051800D03*
X0176800Y0051800D03*
X0186800Y0051800D03*
X0196800Y0051800D03*
X0211800Y0051800D03*
X0211800Y0061800D03*
X0211800Y0071800D03*
X0211800Y0081800D03*
X0211800Y0091800D03*
X0211800Y0111800D03*
X0211800Y0121800D03*
X0211800Y0131800D03*
X0211800Y0141800D03*
X0211800Y0151800D03*
X0211800Y0161800D03*
X0211800Y0171800D03*
X0211800Y0181800D03*
X0096800Y0231800D03*
X0086800Y0231800D03*
X0076800Y0231800D03*
D18*
X0079088Y0227227D02*
X0084512Y0227227D01*
X0083911Y0227476D02*
X0085786Y0226700D01*
X0087814Y0226700D01*
X0089689Y0227476D01*
X0091124Y0228911D01*
X0091800Y0230544D01*
X0092476Y0228911D01*
X0093911Y0227476D01*
X0095786Y0226700D01*
X0097814Y0226700D01*
X0099689Y0227476D01*
X0101124Y0228911D01*
X0101900Y0230786D01*
X0101900Y0232814D01*
X0101124Y0234689D01*
X0099689Y0236124D01*
X0097934Y0236850D01*
X0216850Y0236850D01*
X0216850Y0182934D01*
X0216124Y0184689D01*
X0214689Y0186124D01*
X0212814Y0186900D01*
X0210786Y0186900D01*
X0208911Y0186124D01*
X0207476Y0184689D01*
X0206700Y0182814D01*
X0206700Y0180786D01*
X0207476Y0178911D01*
X0208911Y0177476D01*
X0210544Y0176800D01*
X0208911Y0176124D01*
X0207476Y0174689D01*
X0206700Y0172814D01*
X0206700Y0170786D01*
X0207476Y0168911D01*
X0208911Y0167476D01*
X0210544Y0166800D01*
X0208911Y0166124D01*
X0207476Y0164689D01*
X0206700Y0162814D01*
X0206700Y0160786D01*
X0207476Y0158911D01*
X0208911Y0157476D01*
X0210544Y0156800D01*
X0208911Y0156124D01*
X0207476Y0154689D01*
X0206700Y0152814D01*
X0206700Y0150786D01*
X0207476Y0148911D01*
X0208911Y0147476D01*
X0210544Y0146800D01*
X0208911Y0146124D01*
X0207476Y0144689D01*
X0206700Y0142814D01*
X0206700Y0140786D01*
X0207476Y0138911D01*
X0208911Y0137476D01*
X0210544Y0136800D01*
X0208911Y0136124D01*
X0207476Y0134689D01*
X0206700Y0132814D01*
X0206700Y0131710D01*
X0204815Y0130767D01*
X0204981Y0131167D01*
X0204981Y0132433D01*
X0204497Y0133602D01*
X0203602Y0134497D01*
X0202433Y0134981D01*
X0201167Y0134981D01*
X0199998Y0134497D01*
X0199103Y0133602D01*
X0199094Y0133579D01*
X0173744Y0129354D01*
X0173602Y0129497D01*
X0172433Y0129981D01*
X0171167Y0129981D01*
X0169998Y0129497D01*
X0169501Y0129000D01*
X0148353Y0129000D01*
X0148602Y0129103D01*
X0149497Y0129998D01*
X0149981Y0131167D01*
X0149981Y0132433D01*
X0149497Y0133602D01*
X0149000Y0134099D01*
X0149000Y0167711D01*
X0147711Y0169000D01*
X0144000Y0169000D01*
X0144000Y0178343D01*
X0145800Y0180143D01*
X0145800Y0183457D01*
X0144000Y0185257D01*
X0144000Y0206443D01*
X0144175Y0206969D01*
X0144000Y0207319D01*
X0144000Y0207711D01*
X0143608Y0208103D01*
X0139000Y0217319D01*
X0139000Y0217711D01*
X0138608Y0218103D01*
X0138360Y0218599D01*
X0137988Y0218723D01*
X0135800Y0220911D01*
X0135800Y0223457D01*
X0133457Y0225800D01*
X0130143Y0225800D01*
X0127800Y0223457D01*
X0127800Y0220143D01*
X0130143Y0217800D01*
X0132689Y0217800D01*
X0134992Y0215497D01*
X0135658Y0214164D01*
X0133623Y0216200D01*
X0131800Y0216200D01*
X0131800Y0211800D01*
X0136200Y0211800D01*
X0136200Y0213081D01*
X0139600Y0206281D01*
X0139600Y0185257D01*
X0137800Y0183457D01*
X0137800Y0180143D01*
X0139600Y0178343D01*
X0139600Y0165889D01*
X0140889Y0164600D01*
X0144600Y0164600D01*
X0144600Y0134099D01*
X0144103Y0133602D01*
X0143619Y0132433D01*
X0143619Y0131167D01*
X0144103Y0129998D01*
X0144998Y0129103D01*
X0145247Y0129000D01*
X0132257Y0129000D01*
X0132791Y0129534D01*
X0133400Y0131004D01*
X0133400Y0132596D01*
X0132791Y0134066D01*
X0131666Y0135191D01*
X0130196Y0135800D01*
X0123404Y0135800D01*
X0121934Y0135191D01*
X0120809Y0134066D01*
X0120200Y0132596D01*
X0120200Y0131511D01*
X0119000Y0132711D01*
X0119000Y0182711D01*
X0117711Y0184000D01*
X0102818Y0184000D01*
X0102791Y0184066D01*
X0101666Y0185191D01*
X0100196Y0185800D01*
X0093404Y0185800D01*
X0091934Y0185191D01*
X0090809Y0184066D01*
X0090200Y0182596D01*
X0090200Y0181004D01*
X0090809Y0179534D01*
X0091934Y0178409D01*
X0093404Y0177800D01*
X0100196Y0177800D01*
X0101666Y0178409D01*
X0102791Y0179534D01*
X0102818Y0179600D01*
X0114600Y0179600D01*
X0114600Y0130889D01*
X0119600Y0125889D01*
X0120889Y0124600D01*
X0121343Y0124600D01*
X0120809Y0124066D01*
X0120200Y0122596D01*
X0120200Y0121004D01*
X0120809Y0119534D01*
X0121934Y0118409D01*
X0123404Y0117800D01*
X0130196Y0117800D01*
X0131666Y0118409D01*
X0132791Y0119534D01*
X0133400Y0121004D01*
X0133400Y0122596D01*
X0132791Y0124066D01*
X0132257Y0124600D01*
X0145247Y0124600D01*
X0144998Y0124497D01*
X0144103Y0123602D01*
X0143619Y0122433D01*
X0143619Y0121167D01*
X0144103Y0119998D01*
X0144998Y0119103D01*
X0146167Y0118619D01*
X0147433Y0118619D01*
X0148602Y0119103D01*
X0149099Y0119600D01*
X0165889Y0119600D01*
X0174600Y0110889D01*
X0174600Y0105257D01*
X0172800Y0103457D01*
X0172800Y0100143D01*
X0174600Y0098343D01*
X0174600Y0095257D01*
X0172800Y0093457D01*
X0172800Y0090143D01*
X0172951Y0089992D01*
X0164827Y0077806D01*
X0164497Y0078602D01*
X0163602Y0079497D01*
X0162433Y0079981D01*
X0161345Y0079981D01*
X0138269Y0098442D01*
X0137711Y0099000D01*
X0137572Y0099000D01*
X0137463Y0099087D01*
X0136678Y0099000D01*
X0132257Y0099000D01*
X0132791Y0099534D01*
X0133400Y0101004D01*
X0133400Y0102596D01*
X0132791Y0104066D01*
X0131666Y0105191D01*
X0130196Y0105800D01*
X0123404Y0105800D01*
X0121934Y0105191D01*
X0120809Y0104066D01*
X0120200Y0102596D01*
X0120200Y0101004D01*
X0120809Y0099534D01*
X0121343Y0099000D01*
X0117711Y0099000D01*
X0114000Y0102711D01*
X0114000Y0146443D01*
X0114175Y0146969D01*
X0114000Y0147319D01*
X0114000Y0147711D01*
X0113608Y0148103D01*
X0113360Y0148599D01*
X0112988Y0148723D01*
X0112711Y0149000D01*
X0112157Y0149000D01*
X0103400Y0151919D01*
X0103400Y0152596D01*
X0102791Y0154066D01*
X0101666Y0155191D01*
X0100196Y0155800D01*
X0093404Y0155800D01*
X0091934Y0155191D01*
X0090809Y0154066D01*
X0090200Y0152596D01*
X0090200Y0151004D01*
X0090809Y0149534D01*
X0091934Y0148409D01*
X0093404Y0147800D01*
X0100196Y0147800D01*
X0100930Y0148104D01*
X0109600Y0145214D01*
X0109600Y0100889D01*
X0110889Y0099600D01*
X0115889Y0094600D01*
X0120796Y0094600D01*
X0120437Y0094106D01*
X0120122Y0093489D01*
X0119908Y0092830D01*
X0119800Y0092146D01*
X0119800Y0091800D01*
X0126800Y0091800D01*
X0133800Y0091800D01*
X0133800Y0092146D01*
X0133692Y0092830D01*
X0133478Y0093489D01*
X0133163Y0094106D01*
X0132804Y0094600D01*
X0136028Y0094600D01*
X0158619Y0076527D01*
X0158619Y0076167D01*
X0159103Y0074998D01*
X0159998Y0074103D01*
X0161167Y0073619D01*
X0162035Y0073619D01*
X0155787Y0064246D01*
X0132885Y0068827D01*
X0132711Y0069000D01*
X0132257Y0069000D01*
X0132791Y0069534D01*
X0133400Y0071004D01*
X0133400Y0072596D01*
X0132791Y0074066D01*
X0131666Y0075191D01*
X0130196Y0075800D01*
X0123404Y0075800D01*
X0121934Y0075191D01*
X0120809Y0074066D01*
X0120200Y0072596D01*
X0120200Y0071004D01*
X0120809Y0069534D01*
X0121343Y0069000D01*
X0115889Y0069000D01*
X0114600Y0067711D01*
X0110889Y0064000D01*
X0102818Y0064000D01*
X0102791Y0064066D01*
X0101666Y0065191D01*
X0100196Y0065800D01*
X0093404Y0065800D01*
X0091934Y0065191D01*
X0090809Y0064066D01*
X0090200Y0062596D01*
X0090200Y0061004D01*
X0090809Y0059534D01*
X0091934Y0058409D01*
X0093404Y0057800D01*
X0100196Y0057800D01*
X0101666Y0058409D01*
X0102791Y0059534D01*
X0102818Y0059600D01*
X0112711Y0059600D01*
X0117711Y0064600D01*
X0121343Y0064600D01*
X0120809Y0064066D01*
X0120200Y0062596D01*
X0120200Y0061004D01*
X0120809Y0059534D01*
X0121934Y0058409D01*
X0123404Y0057800D01*
X0129689Y0057800D01*
X0127689Y0055800D01*
X0123404Y0055800D01*
X0121934Y0055191D01*
X0120809Y0054066D01*
X0120200Y0052596D01*
X0120200Y0051004D01*
X0120809Y0049534D01*
X0121934Y0048409D01*
X0123404Y0047800D01*
X0130196Y0047800D01*
X0131666Y0048409D01*
X0132791Y0049534D01*
X0133400Y0051004D01*
X0133400Y0052596D01*
X0132791Y0054066D01*
X0132484Y0054373D01*
X0136730Y0058619D01*
X0137433Y0058619D01*
X0138602Y0059103D01*
X0139497Y0059998D01*
X0139981Y0061167D01*
X0139981Y0062433D01*
X0139761Y0062964D01*
X0155942Y0059728D01*
X0156338Y0059464D01*
X0156800Y0059556D01*
X0157262Y0059464D01*
X0157658Y0059728D01*
X0158125Y0059821D01*
X0158386Y0060214D01*
X0158779Y0060475D01*
X0158872Y0060942D01*
X0176777Y0087800D01*
X0178457Y0087800D01*
X0180800Y0090143D01*
X0180800Y0093457D01*
X0179000Y0095257D01*
X0179000Y0098343D01*
X0180800Y0100143D01*
X0180800Y0103457D01*
X0179000Y0105257D01*
X0179000Y0112711D01*
X0177711Y0114000D01*
X0167711Y0124000D01*
X0149099Y0124000D01*
X0148602Y0124497D01*
X0148353Y0124600D01*
X0169501Y0124600D01*
X0169998Y0124103D01*
X0171167Y0123619D01*
X0172433Y0123619D01*
X0173602Y0124103D01*
X0174497Y0124998D01*
X0174506Y0125021D01*
X0199856Y0129246D01*
X0199998Y0129103D01*
X0200812Y0128766D01*
X0191281Y0124000D01*
X0179099Y0124000D01*
X0178602Y0124497D01*
X0177433Y0124981D01*
X0176167Y0124981D01*
X0174998Y0124497D01*
X0174103Y0123602D01*
X0173619Y0122433D01*
X0173619Y0121167D01*
X0174103Y0119998D01*
X0174998Y0119103D01*
X0176167Y0118619D01*
X0177433Y0118619D01*
X0178602Y0119103D01*
X0179099Y0119600D01*
X0190247Y0119600D01*
X0189998Y0119497D01*
X0189103Y0118602D01*
X0188619Y0117433D01*
X0188619Y0116167D01*
X0189103Y0114998D01*
X0189998Y0114103D01*
X0191167Y0113619D01*
X0192433Y0113619D01*
X0193602Y0114103D01*
X0194497Y0114998D01*
X0194858Y0115869D01*
X0202319Y0119600D01*
X0207191Y0119600D01*
X0207476Y0118911D01*
X0208911Y0117476D01*
X0210037Y0117010D01*
X0209689Y0116897D01*
X0208917Y0116504D01*
X0208217Y0115995D01*
X0207605Y0115383D01*
X0207096Y0114683D01*
X0206703Y0113911D01*
X0206435Y0113088D01*
X0206300Y0112233D01*
X0206300Y0112000D01*
X0211600Y0112000D01*
X0211600Y0111600D01*
X0212000Y0111600D01*
X0212000Y0106300D01*
X0212233Y0106300D01*
X0213088Y0106435D01*
X0213911Y0106703D01*
X0214683Y0107096D01*
X0215383Y0107605D01*
X0215995Y0108217D01*
X0216504Y0108917D01*
X0216850Y0109597D01*
X0216850Y0092934D01*
X0216124Y0094689D01*
X0214689Y0096124D01*
X0212814Y0096900D01*
X0210786Y0096900D01*
X0208911Y0096124D01*
X0207476Y0094689D01*
X0207191Y0094000D01*
X0190889Y0094000D01*
X0189600Y0092711D01*
X0184600Y0087711D01*
X0184600Y0062711D01*
X0178503Y0056615D01*
X0177814Y0056900D01*
X0175786Y0056900D01*
X0173911Y0056124D01*
X0172476Y0054689D01*
X0171700Y0052814D01*
X0171700Y0050786D01*
X0172476Y0048911D01*
X0173911Y0047476D01*
X0175786Y0046700D01*
X0177814Y0046700D01*
X0179689Y0047476D01*
X0181124Y0048911D01*
X0181800Y0050544D01*
X0182476Y0048911D01*
X0183911Y0047476D01*
X0185786Y0046700D01*
X0187814Y0046700D01*
X0189689Y0047476D01*
X0191124Y0048911D01*
X0191590Y0050037D01*
X0191703Y0049689D01*
X0192096Y0048917D01*
X0192605Y0048217D01*
X0193217Y0047605D01*
X0193917Y0047096D01*
X0194689Y0046703D01*
X0195512Y0046435D01*
X0196367Y0046300D01*
X0196600Y0046300D01*
X0196600Y0051600D01*
X0197000Y0051600D01*
X0197000Y0052000D01*
X0196600Y0052000D01*
X0196600Y0057300D01*
X0196367Y0057300D01*
X0195512Y0057165D01*
X0194689Y0056897D01*
X0193917Y0056504D01*
X0193217Y0055995D01*
X0192605Y0055383D01*
X0192096Y0054683D01*
X0191703Y0053911D01*
X0191590Y0053563D01*
X0191124Y0054689D01*
X0189689Y0056124D01*
X0187814Y0056900D01*
X0185786Y0056900D01*
X0184464Y0056352D01*
X0187711Y0059600D01*
X0189000Y0060889D01*
X0189000Y0085889D01*
X0192711Y0089600D01*
X0207191Y0089600D01*
X0207476Y0088911D01*
X0208911Y0087476D01*
X0210544Y0086800D01*
X0208911Y0086124D01*
X0207476Y0084689D01*
X0206700Y0082814D01*
X0206700Y0080786D01*
X0207476Y0078911D01*
X0208911Y0077476D01*
X0210037Y0077010D01*
X0209689Y0076897D01*
X0208917Y0076504D01*
X0208217Y0075995D01*
X0207605Y0075383D01*
X0207096Y0074683D01*
X0206703Y0073911D01*
X0206435Y0073088D01*
X0206300Y0072233D01*
X0206300Y0072000D01*
X0211600Y0072000D01*
X0211600Y0071600D01*
X0206300Y0071600D01*
X0206300Y0071367D01*
X0206435Y0070512D01*
X0206703Y0069689D01*
X0207096Y0068917D01*
X0207605Y0068217D01*
X0208217Y0067605D01*
X0208917Y0067096D01*
X0209689Y0066703D01*
X0210037Y0066590D01*
X0208911Y0066124D01*
X0207476Y0064689D01*
X0206700Y0062814D01*
X0206700Y0060786D01*
X0207476Y0058911D01*
X0208911Y0057476D01*
X0210544Y0056800D01*
X0208911Y0056124D01*
X0207476Y0054689D01*
X0206700Y0052814D01*
X0206700Y0050786D01*
X0207476Y0048911D01*
X0208911Y0047476D01*
X0210786Y0046700D01*
X0212814Y0046700D01*
X0214689Y0047476D01*
X0216124Y0048911D01*
X0216850Y0050666D01*
X0216850Y0043600D01*
X0049823Y0043600D01*
X0051200Y0044977D01*
X0051200Y0046800D01*
X0051200Y0048623D01*
X0048623Y0051200D01*
X0046800Y0051200D01*
X0046800Y0046800D01*
X0046800Y0046800D01*
X0051200Y0046800D01*
X0046800Y0046800D01*
X0046800Y0046800D01*
X0046800Y0046800D01*
X0042400Y0046800D01*
X0042400Y0048623D01*
X0044977Y0051200D01*
X0046800Y0051200D01*
X0046800Y0046800D01*
X0042400Y0046800D01*
X0042400Y0044977D01*
X0043777Y0043600D01*
X0023600Y0043600D01*
X0023600Y0074343D01*
X0025143Y0072800D01*
X0028457Y0072800D01*
X0030800Y0075143D01*
X0030800Y0078457D01*
X0028457Y0080800D01*
X0025143Y0080800D01*
X0023600Y0079257D01*
X0023600Y0107327D01*
X0023917Y0107096D01*
X0024689Y0106703D01*
X0025512Y0106435D01*
X0026367Y0106300D01*
X0026600Y0106300D01*
X0026600Y0111600D01*
X0027000Y0111600D01*
X0027000Y0112000D01*
X0032300Y0112000D01*
X0032300Y0112233D01*
X0032165Y0113088D01*
X0031897Y0113911D01*
X0031504Y0114683D01*
X0030995Y0115383D01*
X0030383Y0115995D01*
X0029683Y0116504D01*
X0028911Y0116897D01*
X0028563Y0117010D01*
X0029689Y0117476D01*
X0031124Y0118911D01*
X0031900Y0120786D01*
X0031900Y0122814D01*
X0031124Y0124689D01*
X0029689Y0126124D01*
X0028056Y0126800D01*
X0029689Y0127476D01*
X0031124Y0128911D01*
X0031900Y0130786D01*
X0031900Y0132814D01*
X0031124Y0134689D01*
X0029689Y0136124D01*
X0028056Y0136800D01*
X0029689Y0137476D01*
X0031124Y0138911D01*
X0031900Y0140786D01*
X0031900Y0142814D01*
X0031124Y0144689D01*
X0029689Y0146124D01*
X0028056Y0146800D01*
X0029689Y0147476D01*
X0031124Y0148911D01*
X0031900Y0150786D01*
X0031900Y0152814D01*
X0031124Y0154689D01*
X0029689Y0156124D01*
X0028056Y0156800D01*
X0029689Y0157476D01*
X0031124Y0158911D01*
X0031900Y0160786D01*
X0031900Y0162814D01*
X0031124Y0164689D01*
X0029689Y0166124D01*
X0028056Y0166800D01*
X0029689Y0167476D01*
X0031124Y0168911D01*
X0031900Y0170786D01*
X0031900Y0172814D01*
X0031124Y0174689D01*
X0029689Y0176124D01*
X0028056Y0176800D01*
X0029689Y0177476D01*
X0031124Y0178911D01*
X0031900Y0180786D01*
X0031900Y0182814D01*
X0031124Y0184689D01*
X0029689Y0186124D01*
X0027814Y0186900D01*
X0025786Y0186900D01*
X0023911Y0186124D01*
X0023600Y0185812D01*
X0023600Y0236850D01*
X0032566Y0236850D01*
X0030857Y0235141D01*
X0029790Y0232564D01*
X0029790Y0229776D01*
X0030857Y0227199D01*
X0032829Y0225227D01*
X0035406Y0224160D01*
X0038194Y0224160D01*
X0040771Y0225227D01*
X0042743Y0227199D01*
X0043810Y0229776D01*
X0043810Y0232564D01*
X0042743Y0235141D01*
X0041034Y0236850D01*
X0075666Y0236850D01*
X0073911Y0236124D01*
X0072476Y0234689D01*
X0071700Y0232814D01*
X0071700Y0230786D01*
X0072476Y0228911D01*
X0073911Y0227476D01*
X0075786Y0226700D01*
X0077814Y0226700D01*
X0079689Y0227476D01*
X0081124Y0228911D01*
X0081800Y0230544D01*
X0082476Y0228911D01*
X0083911Y0227476D01*
X0082562Y0228826D02*
X0081038Y0228826D01*
X0081750Y0230424D02*
X0081850Y0230424D01*
X0075589Y0236818D02*
X0041066Y0236818D01*
X0042664Y0235220D02*
X0073007Y0235220D01*
X0072034Y0233621D02*
X0043372Y0233621D01*
X0043810Y0232023D02*
X0071700Y0232023D01*
X0071850Y0230424D02*
X0043810Y0230424D01*
X0043417Y0228826D02*
X0072562Y0228826D01*
X0074512Y0227227D02*
X0042755Y0227227D01*
X0041173Y0225629D02*
X0053787Y0225629D01*
X0053509Y0225351D02*
X0054627Y0226469D01*
X0056088Y0227074D01*
X0057669Y0227074D01*
X0059130Y0226469D01*
X0060248Y0225351D01*
X0060854Y0223890D01*
X0060854Y0222309D01*
X0060248Y0220848D01*
X0059350Y0219950D01*
X0060248Y0219052D01*
X0060854Y0217591D01*
X0060854Y0216009D01*
X0060248Y0214548D01*
X0059618Y0213918D01*
X0059729Y0213838D01*
X0060216Y0213351D01*
X0060620Y0212794D01*
X0060933Y0212180D01*
X0061146Y0211525D01*
X0061254Y0210845D01*
X0061254Y0210501D01*
X0056879Y0210501D01*
X0056879Y0210501D01*
X0061254Y0210501D01*
X0061254Y0210156D01*
X0061146Y0209476D01*
X0060933Y0208821D01*
X0060620Y0208208D01*
X0060216Y0207651D01*
X0059729Y0207164D01*
X0059172Y0206759D01*
X0058558Y0206446D01*
X0057903Y0206234D01*
X0057223Y0206126D01*
X0056879Y0206126D01*
X0056879Y0210501D01*
X0056879Y0210501D01*
X0056879Y0206126D01*
X0056534Y0206126D01*
X0055854Y0206234D01*
X0055199Y0206446D01*
X0054586Y0206759D01*
X0054029Y0207164D01*
X0053542Y0207651D01*
X0053137Y0208208D01*
X0052824Y0208821D01*
X0052612Y0209476D01*
X0052580Y0209676D01*
X0051364Y0209676D01*
X0049903Y0210281D01*
X0048785Y0211399D01*
X0048180Y0212860D01*
X0048180Y0214441D01*
X0048785Y0215902D01*
X0049683Y0216800D01*
X0048785Y0217698D01*
X0048180Y0219159D01*
X0048180Y0220740D01*
X0048785Y0222201D01*
X0049903Y0223319D01*
X0051364Y0223924D01*
X0052918Y0223924D01*
X0053509Y0225351D01*
X0052962Y0224030D02*
X0023600Y0224030D01*
X0023600Y0222432D02*
X0049015Y0222432D01*
X0048218Y0220833D02*
X0023600Y0220833D01*
X0023600Y0219235D02*
X0034736Y0219235D01*
X0034998Y0219497D02*
X0034103Y0218602D01*
X0033619Y0217433D01*
X0033619Y0216167D01*
X0034103Y0214998D01*
X0034998Y0214103D01*
X0036167Y0213619D01*
X0036277Y0213619D01*
X0039394Y0208943D01*
X0038194Y0209440D01*
X0035406Y0209440D01*
X0032829Y0208373D01*
X0030857Y0206401D01*
X0029790Y0203824D01*
X0029790Y0201035D01*
X0030857Y0198459D01*
X0032829Y0196487D01*
X0035406Y0195420D01*
X0038194Y0195420D01*
X0040771Y0196487D01*
X0042743Y0198459D01*
X0043810Y0201035D01*
X0043810Y0202319D01*
X0044600Y0201134D01*
X0044600Y0200889D01*
X0045090Y0200398D01*
X0045475Y0199821D01*
X0045715Y0199773D01*
X0054600Y0190889D01*
X0054600Y0190889D01*
X0055889Y0189600D01*
X0114501Y0189600D01*
X0114998Y0189103D01*
X0116167Y0188619D01*
X0117433Y0188619D01*
X0118602Y0189103D01*
X0119497Y0189998D01*
X0119981Y0191167D01*
X0119981Y0192433D01*
X0119497Y0193602D01*
X0118602Y0194497D01*
X0117433Y0194981D01*
X0116167Y0194981D01*
X0114998Y0194497D01*
X0114501Y0194000D01*
X0057711Y0194000D01*
X0048510Y0203202D01*
X0039937Y0216061D01*
X0039981Y0216167D01*
X0039981Y0217433D01*
X0039497Y0218602D01*
X0038602Y0219497D01*
X0037433Y0219981D01*
X0036167Y0219981D01*
X0034998Y0219497D01*
X0033703Y0217636D02*
X0023600Y0217636D01*
X0023600Y0216038D02*
X0033673Y0216038D01*
X0034662Y0214439D02*
X0023600Y0214439D01*
X0023600Y0212841D02*
X0036795Y0212841D01*
X0037861Y0211242D02*
X0023600Y0211242D01*
X0023600Y0209644D02*
X0038927Y0209644D01*
X0042084Y0212841D02*
X0048187Y0212841D01*
X0048180Y0214439D02*
X0041018Y0214439D01*
X0039952Y0216038D02*
X0048920Y0216038D01*
X0048846Y0217636D02*
X0039897Y0217636D01*
X0038864Y0219235D02*
X0048180Y0219235D01*
X0048941Y0211242D02*
X0043149Y0211242D01*
X0044215Y0209644D02*
X0052585Y0209644D01*
X0053255Y0208045D02*
X0045281Y0208045D01*
X0046346Y0206447D02*
X0055199Y0206447D01*
X0056879Y0206447D02*
X0056879Y0206447D01*
X0056879Y0208045D02*
X0056879Y0208045D01*
X0056879Y0209644D02*
X0056879Y0209644D01*
X0058558Y0206447D02*
X0097400Y0206447D01*
X0097400Y0206800D02*
X0097400Y0204977D01*
X0099977Y0202400D01*
X0101800Y0202400D01*
X0103623Y0202400D01*
X0106200Y0204977D01*
X0106200Y0206800D01*
X0106200Y0208623D01*
X0103623Y0211200D01*
X0101800Y0211200D01*
X0101800Y0206800D01*
X0101800Y0206800D01*
X0106200Y0206800D01*
X0101800Y0206800D01*
X0101800Y0206800D01*
X0101800Y0206800D01*
X0097400Y0206800D01*
X0097400Y0208623D01*
X0099977Y0211200D01*
X0101800Y0211200D01*
X0101800Y0206800D01*
X0101800Y0202400D01*
X0101800Y0206800D01*
X0101800Y0206800D01*
X0097400Y0206800D01*
X0097400Y0208045D02*
X0060502Y0208045D01*
X0061172Y0209644D02*
X0098421Y0209644D01*
X0101800Y0209644D02*
X0101800Y0209644D01*
X0101800Y0208045D02*
X0101800Y0208045D01*
X0101800Y0206447D02*
X0101800Y0206447D01*
X0101800Y0204848D02*
X0101800Y0204848D01*
X0101800Y0203250D02*
X0101800Y0203250D01*
X0104472Y0203250D02*
X0139600Y0203250D01*
X0139600Y0204848D02*
X0106071Y0204848D01*
X0106200Y0206447D02*
X0139517Y0206447D01*
X0138718Y0208045D02*
X0134268Y0208045D01*
X0133623Y0207400D02*
X0136200Y0209977D01*
X0136200Y0211800D01*
X0131800Y0211800D01*
X0131800Y0211800D01*
X0131800Y0211800D01*
X0131800Y0207400D01*
X0133623Y0207400D01*
X0131800Y0207400D02*
X0131800Y0211800D01*
X0131800Y0211800D01*
X0131800Y0211800D01*
X0127400Y0211800D01*
X0127400Y0213623D01*
X0129977Y0216200D01*
X0131800Y0216200D01*
X0131800Y0211800D01*
X0127400Y0211800D01*
X0127400Y0209977D01*
X0129977Y0207400D01*
X0131800Y0207400D01*
X0131800Y0208045D02*
X0131800Y0208045D01*
X0131800Y0209644D02*
X0131800Y0209644D01*
X0131800Y0211242D02*
X0131800Y0211242D01*
X0131800Y0212841D02*
X0131800Y0212841D01*
X0131800Y0214439D02*
X0131800Y0214439D01*
X0131800Y0216038D02*
X0131800Y0216038D01*
X0132852Y0217636D02*
X0128300Y0217636D01*
X0128300Y0218457D02*
X0125957Y0220800D01*
X0122643Y0220800D01*
X0120300Y0218457D01*
X0120300Y0215143D01*
X0122643Y0212800D01*
X0125957Y0212800D01*
X0128300Y0215143D01*
X0128300Y0218457D01*
X0128708Y0219235D02*
X0127522Y0219235D01*
X0127800Y0220833D02*
X0060234Y0220833D01*
X0060065Y0219235D02*
X0098578Y0219235D01*
X0097800Y0218457D02*
X0097800Y0215143D01*
X0100143Y0212800D01*
X0103457Y0212800D01*
X0105800Y0215143D01*
X0105800Y0218457D01*
X0103457Y0220800D01*
X0100143Y0220800D01*
X0097800Y0218457D01*
X0097800Y0217636D02*
X0060835Y0217636D01*
X0060854Y0216038D02*
X0097800Y0216038D01*
X0098504Y0214439D02*
X0060139Y0214439D01*
X0060586Y0212841D02*
X0100102Y0212841D01*
X0103498Y0212841D02*
X0122602Y0212841D01*
X0121004Y0214439D02*
X0105096Y0214439D01*
X0105800Y0216038D02*
X0120300Y0216038D01*
X0120300Y0217636D02*
X0105800Y0217636D01*
X0105022Y0219235D02*
X0121078Y0219235D01*
X0125998Y0212841D02*
X0127400Y0212841D01*
X0127400Y0211242D02*
X0061191Y0211242D01*
X0051659Y0200053D02*
X0139600Y0200053D01*
X0139600Y0201651D02*
X0050060Y0201651D01*
X0048478Y0203250D02*
X0099128Y0203250D01*
X0097529Y0204848D02*
X0047412Y0204848D01*
X0046800Y0201800D02*
X0056800Y0191800D01*
X0116800Y0191800D01*
X0115578Y0188863D02*
X0023600Y0188863D01*
X0023600Y0187265D02*
X0139600Y0187265D01*
X0139600Y0188863D02*
X0118022Y0188863D01*
X0119689Y0190462D02*
X0139600Y0190462D01*
X0139600Y0192060D02*
X0119981Y0192060D01*
X0119440Y0193659D02*
X0139600Y0193659D01*
X0139600Y0195257D02*
X0056454Y0195257D01*
X0054856Y0196856D02*
X0139600Y0196856D01*
X0139600Y0198454D02*
X0053257Y0198454D01*
X0050232Y0195257D02*
X0023600Y0195257D01*
X0023600Y0193659D02*
X0051830Y0193659D01*
X0053429Y0192060D02*
X0023600Y0192060D01*
X0023600Y0190462D02*
X0055027Y0190462D01*
X0056167Y0184981D02*
X0054998Y0184497D01*
X0054103Y0183602D01*
X0053619Y0182433D01*
X0053619Y0181167D01*
X0054103Y0179998D01*
X0054600Y0179501D01*
X0054600Y0077711D01*
X0045612Y0068723D01*
X0045240Y0068599D01*
X0044992Y0068103D01*
X0044600Y0067711D01*
X0044600Y0067319D01*
X0044425Y0066969D01*
X0044600Y0066443D01*
X0044600Y0065889D01*
X0044877Y0065612D01*
X0049600Y0051443D01*
X0049600Y0050889D01*
X0049877Y0050612D01*
X0050001Y0050240D01*
X0050497Y0049992D01*
X0050889Y0049600D01*
X0051281Y0049600D01*
X0051631Y0049425D01*
X0052157Y0049600D01*
X0090782Y0049600D01*
X0090809Y0049534D01*
X0091934Y0048409D01*
X0093404Y0047800D01*
X0100196Y0047800D01*
X0101666Y0048409D01*
X0102791Y0049534D01*
X0103400Y0051004D01*
X0103400Y0052596D01*
X0102791Y0054066D01*
X0101666Y0055191D01*
X0100196Y0055800D01*
X0093404Y0055800D01*
X0091934Y0055191D01*
X0090809Y0054066D01*
X0090782Y0054000D01*
X0053386Y0054000D01*
X0049317Y0066206D01*
X0059000Y0075889D01*
X0059000Y0179501D01*
X0059497Y0179998D01*
X0059981Y0181167D01*
X0059981Y0182433D01*
X0059497Y0183602D01*
X0058602Y0184497D01*
X0057433Y0184981D01*
X0056167Y0184981D01*
X0054569Y0184068D02*
X0031381Y0184068D01*
X0031900Y0182469D02*
X0053634Y0182469D01*
X0053742Y0180870D02*
X0031900Y0180870D01*
X0031273Y0179272D02*
X0054600Y0179272D01*
X0054600Y0177673D02*
X0029886Y0177673D01*
X0029738Y0176075D02*
X0054600Y0176075D01*
X0054600Y0174476D02*
X0031212Y0174476D01*
X0031874Y0172878D02*
X0054600Y0172878D01*
X0054600Y0171279D02*
X0031900Y0171279D01*
X0031442Y0169681D02*
X0054600Y0169681D01*
X0054600Y0168082D02*
X0030295Y0168082D01*
X0028819Y0166484D02*
X0054600Y0166484D01*
X0054600Y0164885D02*
X0030927Y0164885D01*
X0031704Y0163287D02*
X0054600Y0163287D01*
X0054600Y0161688D02*
X0031900Y0161688D01*
X0031612Y0160090D02*
X0054600Y0160090D01*
X0054600Y0158491D02*
X0030704Y0158491D01*
X0028280Y0156893D02*
X0054600Y0156893D01*
X0054600Y0155294D02*
X0030518Y0155294D01*
X0031535Y0153696D02*
X0054600Y0153696D01*
X0054600Y0152097D02*
X0031900Y0152097D01*
X0031781Y0150499D02*
X0054600Y0150499D01*
X0054600Y0148900D02*
X0031113Y0148900D01*
X0029267Y0147302D02*
X0054600Y0147302D01*
X0054600Y0145703D02*
X0030109Y0145703D01*
X0031366Y0144105D02*
X0054600Y0144105D01*
X0054600Y0142506D02*
X0031900Y0142506D01*
X0031900Y0140908D02*
X0054600Y0140908D01*
X0054600Y0139309D02*
X0031288Y0139309D01*
X0029923Y0137711D02*
X0054600Y0137711D01*
X0054600Y0136112D02*
X0029700Y0136112D01*
X0031196Y0134514D02*
X0054600Y0134514D01*
X0054600Y0132915D02*
X0031858Y0132915D01*
X0031900Y0131317D02*
X0054600Y0131317D01*
X0054600Y0129718D02*
X0031458Y0129718D01*
X0030332Y0128120D02*
X0054600Y0128120D01*
X0054600Y0126521D02*
X0028729Y0126521D01*
X0030890Y0124923D02*
X0054600Y0124923D01*
X0054600Y0123324D02*
X0031689Y0123324D01*
X0031900Y0121726D02*
X0054600Y0121726D01*
X0054600Y0120127D02*
X0031627Y0120127D01*
X0030741Y0118529D02*
X0054600Y0118529D01*
X0054600Y0116930D02*
X0028810Y0116930D01*
X0031033Y0115332D02*
X0054600Y0115332D01*
X0054600Y0113733D02*
X0031955Y0113733D01*
X0032300Y0112134D02*
X0054600Y0112134D01*
X0054600Y0110536D02*
X0032168Y0110536D01*
X0032165Y0110512D02*
X0032300Y0111367D01*
X0032300Y0111600D01*
X0027000Y0111600D01*
X0027000Y0106300D01*
X0027233Y0106300D01*
X0028088Y0106435D01*
X0028911Y0106703D01*
X0029683Y0107096D01*
X0030383Y0107605D01*
X0030995Y0108217D01*
X0031504Y0108917D01*
X0031897Y0109689D01*
X0032165Y0110512D01*
X0031514Y0108937D02*
X0054600Y0108937D01*
X0054600Y0107339D02*
X0030017Y0107339D01*
X0027000Y0107339D02*
X0026600Y0107339D01*
X0026600Y0108937D02*
X0027000Y0108937D01*
X0027000Y0110536D02*
X0026600Y0110536D01*
X0023600Y0105740D02*
X0054600Y0105740D01*
X0054600Y0104142D02*
X0023600Y0104142D01*
X0023600Y0102543D02*
X0054600Y0102543D01*
X0054600Y0100945D02*
X0023600Y0100945D01*
X0023600Y0099346D02*
X0054600Y0099346D01*
X0054600Y0097748D02*
X0023600Y0097748D01*
X0023600Y0096149D02*
X0054600Y0096149D01*
X0054600Y0094551D02*
X0023600Y0094551D01*
X0023600Y0092952D02*
X0054600Y0092952D01*
X0054600Y0091354D02*
X0023600Y0091354D01*
X0023600Y0089755D02*
X0054600Y0089755D01*
X0054600Y0088157D02*
X0023600Y0088157D01*
X0023600Y0086558D02*
X0054600Y0086558D01*
X0054600Y0084960D02*
X0023600Y0084960D01*
X0023600Y0083361D02*
X0054600Y0083361D01*
X0054600Y0081763D02*
X0023600Y0081763D01*
X0023600Y0080164D02*
X0024507Y0080164D01*
X0029093Y0080164D02*
X0034507Y0080164D01*
X0035143Y0080800D02*
X0032800Y0078457D01*
X0032800Y0075143D01*
X0035143Y0072800D01*
X0038457Y0072800D01*
X0040800Y0075143D01*
X0040800Y0078457D01*
X0038457Y0080800D01*
X0035143Y0080800D01*
X0032909Y0078566D02*
X0030691Y0078566D01*
X0030800Y0076967D02*
X0032800Y0076967D01*
X0032800Y0075369D02*
X0030800Y0075369D01*
X0029427Y0073770D02*
X0034173Y0073770D01*
X0039427Y0073770D02*
X0044173Y0073770D01*
X0045143Y0072800D02*
X0048457Y0072800D01*
X0050800Y0075143D01*
X0050800Y0078457D01*
X0048457Y0080800D01*
X0045143Y0080800D01*
X0042800Y0078457D01*
X0042800Y0075143D01*
X0045143Y0072800D01*
X0047462Y0070573D02*
X0023600Y0070573D01*
X0023600Y0068975D02*
X0045863Y0068975D01*
X0044600Y0067376D02*
X0023600Y0067376D01*
X0023600Y0065778D02*
X0044711Y0065778D01*
X0045355Y0064179D02*
X0023600Y0064179D01*
X0023600Y0062581D02*
X0045887Y0062581D01*
X0046420Y0060982D02*
X0023600Y0060982D01*
X0023600Y0059384D02*
X0046953Y0059384D01*
X0047486Y0057785D02*
X0023600Y0057785D01*
X0023600Y0056187D02*
X0048019Y0056187D01*
X0048552Y0054588D02*
X0023600Y0054588D01*
X0023600Y0052990D02*
X0049084Y0052990D01*
X0049600Y0051391D02*
X0023600Y0051391D01*
X0023600Y0049793D02*
X0043570Y0049793D01*
X0042400Y0048194D02*
X0023600Y0048194D01*
X0023600Y0046596D02*
X0042400Y0046596D01*
X0042400Y0044997D02*
X0023600Y0044997D01*
X0046800Y0048194D02*
X0046800Y0048194D01*
X0046800Y0049793D02*
X0046800Y0049793D01*
X0050030Y0049793D02*
X0050696Y0049793D01*
X0051200Y0048194D02*
X0092453Y0048194D01*
X0096800Y0051800D02*
X0051800Y0051800D01*
X0046800Y0066800D01*
X0056800Y0076800D01*
X0056800Y0181800D01*
X0059031Y0184068D02*
X0090811Y0184068D01*
X0090200Y0182469D02*
X0059966Y0182469D01*
X0059858Y0180870D02*
X0090255Y0180870D01*
X0091071Y0179272D02*
X0059000Y0179272D01*
X0059000Y0177673D02*
X0114600Y0177673D01*
X0114600Y0176075D02*
X0059000Y0176075D01*
X0059000Y0174476D02*
X0091220Y0174476D01*
X0090809Y0174066D02*
X0091934Y0175191D01*
X0093404Y0175800D01*
X0100196Y0175800D01*
X0101666Y0175191D01*
X0102791Y0174066D01*
X0103400Y0172596D01*
X0103400Y0171004D01*
X0102791Y0169534D01*
X0101666Y0168409D01*
X0100196Y0167800D01*
X0093404Y0167800D01*
X0091934Y0168409D01*
X0090809Y0169534D01*
X0090200Y0171004D01*
X0090200Y0172596D01*
X0090809Y0174066D01*
X0090317Y0172878D02*
X0059000Y0172878D01*
X0059000Y0171279D02*
X0090200Y0171279D01*
X0090748Y0169681D02*
X0059000Y0169681D01*
X0059000Y0168082D02*
X0092723Y0168082D01*
X0093404Y0165800D02*
X0091934Y0165191D01*
X0090809Y0164066D01*
X0090200Y0162596D01*
X0090200Y0161004D01*
X0090809Y0159534D01*
X0091934Y0158409D01*
X0093404Y0157800D01*
X0100196Y0157800D01*
X0101666Y0158409D01*
X0102791Y0159534D01*
X0103400Y0161004D01*
X0103400Y0162596D01*
X0102791Y0164066D01*
X0101666Y0165191D01*
X0100196Y0165800D01*
X0093404Y0165800D01*
X0091629Y0164885D02*
X0059000Y0164885D01*
X0059000Y0163287D02*
X0090486Y0163287D01*
X0090200Y0161688D02*
X0059000Y0161688D01*
X0059000Y0160090D02*
X0090579Y0160090D01*
X0091852Y0158491D02*
X0059000Y0158491D01*
X0059000Y0156893D02*
X0114600Y0156893D01*
X0114600Y0158491D02*
X0101748Y0158491D01*
X0103021Y0160090D02*
X0114600Y0160090D01*
X0114600Y0161688D02*
X0103400Y0161688D01*
X0103114Y0163287D02*
X0114600Y0163287D01*
X0114600Y0164885D02*
X0101971Y0164885D01*
X0100877Y0168082D02*
X0114600Y0168082D01*
X0114600Y0166484D02*
X0059000Y0166484D01*
X0059000Y0155294D02*
X0092184Y0155294D01*
X0090656Y0153696D02*
X0059000Y0153696D01*
X0059000Y0152097D02*
X0090200Y0152097D01*
X0090409Y0150499D02*
X0059000Y0150499D01*
X0059000Y0148900D02*
X0091443Y0148900D01*
X0093171Y0145703D02*
X0059000Y0145703D01*
X0059000Y0144105D02*
X0090848Y0144105D01*
X0090809Y0144066D02*
X0090200Y0142596D01*
X0090200Y0141004D01*
X0090809Y0139534D01*
X0091934Y0138409D01*
X0093404Y0137800D01*
X0097689Y0137800D01*
X0099689Y0135800D01*
X0093404Y0135800D01*
X0091934Y0135191D01*
X0090809Y0134066D01*
X0090200Y0132596D01*
X0090200Y0131004D01*
X0090809Y0129534D01*
X0091934Y0128409D01*
X0093404Y0127800D01*
X0100196Y0127800D01*
X0101666Y0128409D01*
X0102791Y0129534D01*
X0103400Y0131004D01*
X0103400Y0132089D01*
X0104600Y0130889D01*
X0104600Y0090889D01*
X0110889Y0084600D01*
X0121343Y0084600D01*
X0120809Y0084066D01*
X0120200Y0082596D01*
X0120200Y0081004D01*
X0120809Y0079534D01*
X0121934Y0078409D01*
X0123404Y0077800D01*
X0130196Y0077800D01*
X0131666Y0078409D01*
X0132791Y0079534D01*
X0133400Y0081004D01*
X0133400Y0082596D01*
X0133377Y0082651D01*
X0149869Y0069070D01*
X0149869Y0068667D01*
X0150353Y0067498D01*
X0151248Y0066603D01*
X0152417Y0066119D01*
X0153683Y0066119D01*
X0154852Y0066603D01*
X0155747Y0067498D01*
X0156231Y0068667D01*
X0156231Y0069933D01*
X0155747Y0071102D01*
X0154852Y0071997D01*
X0153683Y0072481D01*
X0152648Y0072481D01*
X0133281Y0088431D01*
X0132765Y0088946D01*
X0133163Y0089494D01*
X0133478Y0090111D01*
X0133692Y0090770D01*
X0133800Y0091454D01*
X0133800Y0091800D01*
X0126800Y0091800D01*
X0126800Y0091800D01*
X0126800Y0091800D01*
X0119800Y0091800D01*
X0119800Y0091454D01*
X0119908Y0090770D01*
X0120122Y0090111D01*
X0120437Y0089494D01*
X0120796Y0089000D01*
X0112711Y0089000D01*
X0109000Y0092711D01*
X0109000Y0132711D01*
X0102484Y0139227D01*
X0102791Y0139534D01*
X0103400Y0141004D01*
X0103400Y0142596D01*
X0102791Y0144066D01*
X0101666Y0145191D01*
X0100196Y0145800D01*
X0093404Y0145800D01*
X0091934Y0145191D01*
X0090809Y0144066D01*
X0090200Y0142506D02*
X0059000Y0142506D01*
X0059000Y0140908D02*
X0090240Y0140908D01*
X0091034Y0139309D02*
X0059000Y0139309D01*
X0059000Y0137711D02*
X0097778Y0137711D01*
X0099377Y0136112D02*
X0059000Y0136112D01*
X0059000Y0134514D02*
X0091257Y0134514D01*
X0090332Y0132915D02*
X0059000Y0132915D01*
X0059000Y0131317D02*
X0090200Y0131317D01*
X0090733Y0129718D02*
X0059000Y0129718D01*
X0059000Y0128120D02*
X0092633Y0128120D01*
X0093404Y0125800D02*
X0091934Y0125191D01*
X0090809Y0124066D01*
X0090200Y0122596D01*
X0090200Y0121004D01*
X0090809Y0119534D01*
X0091934Y0118409D01*
X0093404Y0117800D01*
X0100196Y0117800D01*
X0101666Y0118409D01*
X0102791Y0119534D01*
X0103400Y0121004D01*
X0103400Y0122596D01*
X0102791Y0124066D01*
X0101666Y0125191D01*
X0100196Y0125800D01*
X0093404Y0125800D01*
X0091666Y0124923D02*
X0059000Y0124923D01*
X0059000Y0126521D02*
X0104600Y0126521D01*
X0104600Y0124923D02*
X0101934Y0124923D01*
X0103098Y0123324D02*
X0104600Y0123324D01*
X0104600Y0121726D02*
X0103400Y0121726D01*
X0103037Y0120127D02*
X0104600Y0120127D01*
X0104600Y0118529D02*
X0101785Y0118529D01*
X0101089Y0115878D02*
X0100430Y0116092D01*
X0099746Y0116200D01*
X0096800Y0116200D01*
X0096800Y0111800D01*
X0096800Y0111800D01*
X0103800Y0111800D01*
X0103800Y0112146D01*
X0103692Y0112830D01*
X0103478Y0113489D01*
X0103163Y0114106D01*
X0102756Y0114666D01*
X0102266Y0115156D01*
X0101706Y0115563D01*
X0101089Y0115878D01*
X0102025Y0115332D02*
X0104600Y0115332D01*
X0104600Y0116930D02*
X0059000Y0116930D01*
X0059000Y0115332D02*
X0073119Y0115332D01*
X0072476Y0114689D02*
X0073911Y0116124D01*
X0075786Y0116900D01*
X0077814Y0116900D01*
X0079689Y0116124D01*
X0081124Y0114689D01*
X0081900Y0112814D01*
X0081900Y0110786D01*
X0081124Y0108911D01*
X0079689Y0107476D01*
X0078563Y0107010D01*
X0078911Y0106897D01*
X0079683Y0106504D01*
X0080383Y0105995D01*
X0080995Y0105383D01*
X0081504Y0104683D01*
X0081897Y0103911D01*
X0082165Y0103088D01*
X0082300Y0102233D01*
X0082300Y0102000D01*
X0077000Y0102000D01*
X0077000Y0101600D01*
X0082300Y0101600D01*
X0082300Y0101367D01*
X0082165Y0100512D01*
X0081897Y0099689D01*
X0081504Y0098917D01*
X0080995Y0098217D01*
X0080383Y0097605D01*
X0079683Y0097096D01*
X0078911Y0096703D01*
X0078563Y0096590D01*
X0079689Y0096124D01*
X0081124Y0094689D01*
X0081900Y0092814D01*
X0081900Y0090786D01*
X0081124Y0088911D01*
X0079689Y0087476D01*
X0077814Y0086700D01*
X0075786Y0086700D01*
X0073911Y0087476D01*
X0072476Y0088911D01*
X0071700Y0090786D01*
X0071700Y0092814D01*
X0072476Y0094689D01*
X0073911Y0096124D01*
X0075037Y0096590D01*
X0074689Y0096703D01*
X0073917Y0097096D01*
X0073217Y0097605D01*
X0072605Y0098217D01*
X0072096Y0098917D01*
X0071703Y0099689D01*
X0071435Y0100512D01*
X0071300Y0101367D01*
X0071300Y0101600D01*
X0076600Y0101600D01*
X0076600Y0102000D01*
X0071300Y0102000D01*
X0071300Y0102233D01*
X0071435Y0103088D01*
X0071703Y0103911D01*
X0072096Y0104683D01*
X0072605Y0105383D01*
X0073217Y0105995D01*
X0073917Y0106504D01*
X0074689Y0106897D01*
X0075037Y0107010D01*
X0073911Y0107476D01*
X0072476Y0108911D01*
X0071700Y0110786D01*
X0071700Y0112814D01*
X0072476Y0114689D01*
X0072080Y0113733D02*
X0059000Y0113733D01*
X0059000Y0112134D02*
X0071700Y0112134D01*
X0071803Y0110536D02*
X0059000Y0110536D01*
X0059000Y0108937D02*
X0072465Y0108937D01*
X0074243Y0107339D02*
X0059000Y0107339D01*
X0059000Y0105740D02*
X0072962Y0105740D01*
X0071820Y0104142D02*
X0059000Y0104142D01*
X0059000Y0102543D02*
X0071349Y0102543D01*
X0071367Y0100945D02*
X0059000Y0100945D01*
X0059000Y0099346D02*
X0071877Y0099346D01*
X0073074Y0097748D02*
X0059000Y0097748D01*
X0059000Y0096149D02*
X0073973Y0096149D01*
X0072419Y0094551D02*
X0059000Y0094551D01*
X0059000Y0092952D02*
X0071757Y0092952D01*
X0071700Y0091354D02*
X0059000Y0091354D01*
X0059000Y0089755D02*
X0072127Y0089755D01*
X0073231Y0088157D02*
X0059000Y0088157D01*
X0059000Y0086558D02*
X0108930Y0086558D01*
X0107332Y0088157D02*
X0101057Y0088157D01*
X0101666Y0088409D02*
X0102791Y0089534D01*
X0103400Y0091004D01*
X0103400Y0092596D01*
X0102791Y0094066D01*
X0101666Y0095191D01*
X0100196Y0095800D01*
X0093404Y0095800D01*
X0091934Y0095191D01*
X0090809Y0094066D01*
X0090200Y0092596D01*
X0090200Y0091004D01*
X0090809Y0089534D01*
X0091934Y0088409D01*
X0093404Y0087800D01*
X0100196Y0087800D01*
X0101666Y0088409D01*
X0102883Y0089755D02*
X0105733Y0089755D01*
X0104600Y0091354D02*
X0103400Y0091354D01*
X0103252Y0092952D02*
X0104600Y0092952D01*
X0104600Y0094551D02*
X0102306Y0094551D01*
X0104600Y0096149D02*
X0079627Y0096149D01*
X0080526Y0097748D02*
X0104600Y0097748D01*
X0104600Y0099346D02*
X0102603Y0099346D01*
X0102791Y0099534D02*
X0103400Y0101004D01*
X0103400Y0102596D01*
X0102791Y0104066D01*
X0101666Y0105191D01*
X0100196Y0105800D01*
X0093404Y0105800D01*
X0091934Y0105191D01*
X0090809Y0104066D01*
X0090200Y0102596D01*
X0090200Y0101004D01*
X0090809Y0099534D01*
X0091934Y0098409D01*
X0093404Y0097800D01*
X0100196Y0097800D01*
X0101666Y0098409D01*
X0102791Y0099534D01*
X0103375Y0100945D02*
X0104600Y0100945D01*
X0104600Y0102543D02*
X0103400Y0102543D01*
X0102715Y0104142D02*
X0104600Y0104142D01*
X0104600Y0105740D02*
X0100339Y0105740D01*
X0099746Y0107400D02*
X0100430Y0107508D01*
X0101089Y0107722D01*
X0101706Y0108037D01*
X0102266Y0108444D01*
X0102756Y0108934D01*
X0103163Y0109494D01*
X0103478Y0110111D01*
X0103692Y0110770D01*
X0103800Y0111454D01*
X0103800Y0111800D01*
X0096800Y0111800D01*
X0096800Y0111800D01*
X0096800Y0107400D01*
X0099746Y0107400D01*
X0096800Y0107400D02*
X0096800Y0111800D01*
X0096800Y0111800D01*
X0096800Y0111800D01*
X0089800Y0111800D01*
X0089800Y0112146D01*
X0089908Y0112830D01*
X0090122Y0113489D01*
X0090437Y0114106D01*
X0090844Y0114666D01*
X0091334Y0115156D01*
X0091894Y0115563D01*
X0092511Y0115878D01*
X0093170Y0116092D01*
X0093854Y0116200D01*
X0096800Y0116200D01*
X0096800Y0111800D01*
X0089800Y0111800D01*
X0089800Y0111454D01*
X0089908Y0110770D01*
X0090122Y0110111D01*
X0090437Y0109494D01*
X0090844Y0108934D01*
X0091334Y0108444D01*
X0091894Y0108037D01*
X0092511Y0107722D01*
X0093170Y0107508D01*
X0093854Y0107400D01*
X0096800Y0107400D01*
X0096800Y0108937D02*
X0096800Y0108937D01*
X0096800Y0110536D02*
X0096800Y0110536D01*
X0096800Y0112134D02*
X0096800Y0112134D01*
X0096800Y0113733D02*
X0096800Y0113733D01*
X0096800Y0115332D02*
X0096800Y0115332D01*
X0091575Y0115332D02*
X0080481Y0115332D01*
X0081520Y0113733D02*
X0090247Y0113733D01*
X0089800Y0112134D02*
X0081900Y0112134D01*
X0081797Y0110536D02*
X0089984Y0110536D01*
X0090841Y0108937D02*
X0081134Y0108937D01*
X0079357Y0107339D02*
X0104600Y0107339D01*
X0104600Y0108937D02*
X0102759Y0108937D01*
X0103616Y0110536D02*
X0104600Y0110536D01*
X0104600Y0112134D02*
X0103800Y0112134D01*
X0103353Y0113733D02*
X0104600Y0113733D01*
X0109000Y0113733D02*
X0109600Y0113733D01*
X0109600Y0112134D02*
X0109000Y0112134D01*
X0109000Y0110536D02*
X0109600Y0110536D01*
X0109600Y0108937D02*
X0109000Y0108937D01*
X0109000Y0107339D02*
X0109600Y0107339D01*
X0109600Y0105740D02*
X0109000Y0105740D01*
X0109000Y0104142D02*
X0109600Y0104142D01*
X0109600Y0102543D02*
X0109000Y0102543D01*
X0109000Y0100945D02*
X0109600Y0100945D01*
X0109000Y0099346D02*
X0111142Y0099346D01*
X0112741Y0097748D02*
X0109000Y0097748D01*
X0109000Y0096149D02*
X0114339Y0096149D01*
X0116800Y0096800D02*
X0111800Y0101800D01*
X0111800Y0146800D01*
X0096800Y0151800D01*
X0101416Y0155294D02*
X0114600Y0155294D01*
X0114600Y0153696D02*
X0102944Y0153696D01*
X0103400Y0152097D02*
X0114600Y0152097D01*
X0114600Y0150499D02*
X0107661Y0150499D01*
X0108133Y0145703D02*
X0100429Y0145703D01*
X0102752Y0144105D02*
X0109600Y0144105D01*
X0109600Y0142506D02*
X0103400Y0142506D01*
X0103360Y0140908D02*
X0109600Y0140908D01*
X0109600Y0139309D02*
X0102566Y0139309D01*
X0104001Y0137711D02*
X0109600Y0137711D01*
X0109600Y0136112D02*
X0105599Y0136112D01*
X0107198Y0134514D02*
X0109600Y0134514D01*
X0109600Y0132915D02*
X0108796Y0132915D01*
X0109000Y0131317D02*
X0109600Y0131317D01*
X0109600Y0129718D02*
X0109000Y0129718D01*
X0109000Y0128120D02*
X0109600Y0128120D01*
X0109600Y0126521D02*
X0109000Y0126521D01*
X0109000Y0124923D02*
X0109600Y0124923D01*
X0109600Y0123324D02*
X0109000Y0123324D01*
X0109000Y0121726D02*
X0109600Y0121726D01*
X0109600Y0120127D02*
X0109000Y0120127D01*
X0109000Y0118529D02*
X0109600Y0118529D01*
X0109600Y0116930D02*
X0109000Y0116930D01*
X0109000Y0115332D02*
X0109600Y0115332D01*
X0114000Y0115332D02*
X0122273Y0115332D01*
X0121934Y0115191D02*
X0120809Y0114066D01*
X0120200Y0112596D01*
X0120200Y0111004D01*
X0120809Y0109534D01*
X0121934Y0108409D01*
X0123404Y0107800D01*
X0130196Y0107800D01*
X0131666Y0108409D01*
X0132791Y0109534D01*
X0133400Y0111004D01*
X0133400Y0112596D01*
X0132791Y0114066D01*
X0131666Y0115191D01*
X0130196Y0115800D01*
X0123404Y0115800D01*
X0121934Y0115191D01*
X0120671Y0113733D02*
X0114000Y0113733D01*
X0114000Y0112134D02*
X0120200Y0112134D01*
X0120394Y0110536D02*
X0114000Y0110536D01*
X0114000Y0108937D02*
X0121406Y0108937D01*
X0123261Y0105740D02*
X0114000Y0105740D01*
X0114000Y0104142D02*
X0120885Y0104142D01*
X0120200Y0102543D02*
X0114168Y0102543D01*
X0115766Y0100945D02*
X0120225Y0100945D01*
X0120997Y0099346D02*
X0117365Y0099346D01*
X0116800Y0096800D02*
X0136800Y0096800D01*
X0161800Y0076800D01*
X0158950Y0075369D02*
X0149142Y0075369D01*
X0151083Y0073770D02*
X0160802Y0073770D01*
X0161070Y0072172D02*
X0154430Y0072172D01*
X0155966Y0070573D02*
X0160005Y0070573D01*
X0158939Y0068975D02*
X0156231Y0068975D01*
X0155625Y0067376D02*
X0157873Y0067376D01*
X0156808Y0065778D02*
X0148129Y0065778D01*
X0150475Y0067376D02*
X0140137Y0067376D01*
X0139920Y0062581D02*
X0141679Y0062581D01*
X0139904Y0060982D02*
X0149672Y0060982D01*
X0150786Y0056900D02*
X0148911Y0056124D01*
X0147476Y0054689D01*
X0146800Y0053056D01*
X0146124Y0054689D01*
X0144689Y0056124D01*
X0142814Y0056900D01*
X0140786Y0056900D01*
X0138911Y0056124D01*
X0137476Y0054689D01*
X0136700Y0052814D01*
X0136700Y0050786D01*
X0137476Y0048911D01*
X0138911Y0047476D01*
X0140786Y0046700D01*
X0142814Y0046700D01*
X0144689Y0047476D01*
X0146124Y0048911D01*
X0146800Y0050544D01*
X0147476Y0048911D01*
X0148911Y0047476D01*
X0150786Y0046700D01*
X0152814Y0046700D01*
X0154689Y0047476D01*
X0156124Y0048911D01*
X0156590Y0050037D01*
X0156703Y0049689D01*
X0157096Y0048917D01*
X0157605Y0048217D01*
X0158217Y0047605D01*
X0158917Y0047096D01*
X0159689Y0046703D01*
X0160512Y0046435D01*
X0161367Y0046300D01*
X0161600Y0046300D01*
X0161600Y0051600D01*
X0162000Y0051600D01*
X0162000Y0052000D01*
X0161600Y0052000D01*
X0161600Y0057300D01*
X0161367Y0057300D01*
X0160512Y0057165D01*
X0159689Y0056897D01*
X0158917Y0056504D01*
X0158217Y0055995D01*
X0157605Y0055383D01*
X0157096Y0054683D01*
X0156703Y0053911D01*
X0156590Y0053563D01*
X0156124Y0054689D01*
X0154689Y0056124D01*
X0152814Y0056900D01*
X0150786Y0056900D01*
X0149063Y0056187D02*
X0144537Y0056187D01*
X0146165Y0054588D02*
X0147435Y0054588D01*
X0147111Y0049793D02*
X0146489Y0049793D01*
X0145407Y0048194D02*
X0148193Y0048194D01*
X0155407Y0048194D02*
X0157628Y0048194D01*
X0156669Y0049793D02*
X0156489Y0049793D01*
X0160019Y0046596D02*
X0051200Y0046596D01*
X0051200Y0044997D02*
X0216850Y0044997D01*
X0216850Y0046596D02*
X0198581Y0046596D01*
X0198911Y0046703D02*
X0199683Y0047096D01*
X0200383Y0047605D01*
X0200995Y0048217D01*
X0201504Y0048917D01*
X0201897Y0049689D01*
X0202165Y0050512D01*
X0202300Y0051367D01*
X0202300Y0051600D01*
X0197000Y0051600D01*
X0197000Y0046300D01*
X0197233Y0046300D01*
X0198088Y0046435D01*
X0198911Y0046703D01*
X0197000Y0046596D02*
X0196600Y0046596D01*
X0195019Y0046596D02*
X0163581Y0046596D01*
X0163911Y0046703D02*
X0164683Y0047096D01*
X0165383Y0047605D01*
X0165995Y0048217D01*
X0166504Y0048917D01*
X0166897Y0049689D01*
X0167165Y0050512D01*
X0167300Y0051367D01*
X0167300Y0051600D01*
X0162000Y0051600D01*
X0162000Y0046300D01*
X0162233Y0046300D01*
X0163088Y0046435D01*
X0163911Y0046703D01*
X0162000Y0046596D02*
X0161600Y0046596D01*
X0161600Y0048194D02*
X0162000Y0048194D01*
X0162000Y0049793D02*
X0161600Y0049793D01*
X0161600Y0051391D02*
X0162000Y0051391D01*
X0162000Y0052000D02*
X0167300Y0052000D01*
X0167300Y0052233D01*
X0167165Y0053088D01*
X0166897Y0053911D01*
X0166504Y0054683D01*
X0165995Y0055383D01*
X0165383Y0055995D01*
X0164683Y0056504D01*
X0163911Y0056897D01*
X0163088Y0057165D01*
X0162233Y0057300D01*
X0162000Y0057300D01*
X0162000Y0052000D01*
X0162000Y0052990D02*
X0161600Y0052990D01*
X0161600Y0054588D02*
X0162000Y0054588D01*
X0162000Y0056187D02*
X0161600Y0056187D01*
X0158480Y0056187D02*
X0154537Y0056187D01*
X0156165Y0054588D02*
X0157048Y0054588D01*
X0158899Y0060982D02*
X0172800Y0060982D01*
X0172800Y0060143D02*
X0175143Y0057800D01*
X0178457Y0057800D01*
X0180800Y0060143D01*
X0180800Y0063457D01*
X0178457Y0065800D01*
X0175143Y0065800D01*
X0172800Y0063457D01*
X0172800Y0060143D01*
X0173560Y0059384D02*
X0138882Y0059384D01*
X0136800Y0061800D02*
X0126800Y0051800D01*
X0131147Y0048194D02*
X0138193Y0048194D01*
X0137111Y0049793D02*
X0132898Y0049793D01*
X0133400Y0051391D02*
X0136700Y0051391D01*
X0136773Y0052990D02*
X0133237Y0052990D01*
X0132699Y0054588D02*
X0137435Y0054588D01*
X0139063Y0056187D02*
X0134298Y0056187D01*
X0135896Y0057785D02*
X0179674Y0057785D01*
X0180040Y0059384D02*
X0181272Y0059384D01*
X0180800Y0060982D02*
X0182871Y0060982D01*
X0184469Y0062581D02*
X0180800Y0062581D01*
X0180078Y0064179D02*
X0184600Y0064179D01*
X0184600Y0065778D02*
X0178479Y0065778D01*
X0175121Y0065778D02*
X0162096Y0065778D01*
X0163162Y0067376D02*
X0184600Y0067376D01*
X0184600Y0068975D02*
X0164227Y0068975D01*
X0165293Y0070573D02*
X0184600Y0070573D01*
X0184600Y0072172D02*
X0166359Y0072172D01*
X0167424Y0073770D02*
X0184600Y0073770D01*
X0184600Y0075369D02*
X0168490Y0075369D01*
X0169556Y0076967D02*
X0184600Y0076967D01*
X0184600Y0078566D02*
X0170621Y0078566D01*
X0171687Y0080164D02*
X0184600Y0080164D01*
X0184600Y0081763D02*
X0172753Y0081763D01*
X0173818Y0083361D02*
X0184600Y0083361D01*
X0184600Y0084960D02*
X0174884Y0084960D01*
X0175950Y0086558D02*
X0184600Y0086558D01*
X0185046Y0088157D02*
X0178814Y0088157D01*
X0180412Y0089755D02*
X0186644Y0089755D01*
X0188243Y0091354D02*
X0180800Y0091354D01*
X0180800Y0092952D02*
X0189841Y0092952D01*
X0191800Y0091800D02*
X0211800Y0091800D01*
X0208231Y0088157D02*
X0191268Y0088157D01*
X0189670Y0086558D02*
X0209961Y0086558D01*
X0207747Y0084960D02*
X0189000Y0084960D01*
X0189000Y0083361D02*
X0206927Y0083361D01*
X0206700Y0081763D02*
X0189000Y0081763D01*
X0189000Y0080164D02*
X0206957Y0080164D01*
X0207822Y0078566D02*
X0189000Y0078566D01*
X0189000Y0076967D02*
X0209905Y0076967D01*
X0207594Y0075369D02*
X0189000Y0075369D01*
X0189000Y0073770D02*
X0206657Y0073770D01*
X0206300Y0072172D02*
X0189000Y0072172D01*
X0189000Y0070573D02*
X0206426Y0070573D01*
X0207067Y0068975D02*
X0189000Y0068975D01*
X0189000Y0067376D02*
X0208532Y0067376D01*
X0208565Y0065778D02*
X0189000Y0065778D01*
X0189000Y0064179D02*
X0207265Y0064179D01*
X0206700Y0062581D02*
X0189000Y0062581D01*
X0189000Y0060982D02*
X0206700Y0060982D01*
X0207281Y0059384D02*
X0187495Y0059384D01*
X0185896Y0057785D02*
X0208602Y0057785D01*
X0209063Y0056187D02*
X0200120Y0056187D01*
X0200383Y0055995D02*
X0199683Y0056504D01*
X0198911Y0056897D01*
X0198088Y0057165D01*
X0197233Y0057300D01*
X0197000Y0057300D01*
X0197000Y0052000D01*
X0202300Y0052000D01*
X0202300Y0052233D01*
X0202165Y0053088D01*
X0201897Y0053911D01*
X0201504Y0054683D01*
X0200995Y0055383D01*
X0200383Y0055995D01*
X0201552Y0054588D02*
X0207435Y0054588D01*
X0206773Y0052990D02*
X0202180Y0052990D01*
X0202300Y0051391D02*
X0206700Y0051391D01*
X0207111Y0049793D02*
X0201931Y0049793D01*
X0200972Y0048194D02*
X0208193Y0048194D01*
X0215407Y0048194D02*
X0216850Y0048194D01*
X0216850Y0049793D02*
X0216489Y0049793D01*
X0197000Y0049793D02*
X0196600Y0049793D01*
X0196600Y0051391D02*
X0197000Y0051391D01*
X0197000Y0052990D02*
X0196600Y0052990D01*
X0196600Y0054588D02*
X0197000Y0054588D01*
X0197000Y0056187D02*
X0196600Y0056187D01*
X0193480Y0056187D02*
X0189537Y0056187D01*
X0191165Y0054588D02*
X0192048Y0054588D01*
X0191669Y0049793D02*
X0191489Y0049793D01*
X0190407Y0048194D02*
X0192628Y0048194D01*
X0196600Y0048194D02*
X0197000Y0048194D01*
X0183193Y0048194D02*
X0180407Y0048194D01*
X0181489Y0049793D02*
X0182111Y0049793D01*
X0176800Y0051800D02*
X0186800Y0061800D01*
X0186800Y0086800D01*
X0191800Y0091800D01*
X0180800Y0100945D02*
X0202800Y0100945D01*
X0202800Y0100143D02*
X0205143Y0097800D01*
X0208457Y0097800D01*
X0210800Y0100143D01*
X0210800Y0103457D01*
X0208457Y0105800D01*
X0205143Y0105800D01*
X0202800Y0103457D01*
X0202800Y0100143D01*
X0203597Y0099346D02*
X0180003Y0099346D01*
X0179000Y0097748D02*
X0216850Y0097748D01*
X0216850Y0099346D02*
X0210003Y0099346D01*
X0210800Y0100945D02*
X0216850Y0100945D01*
X0216850Y0102543D02*
X0210800Y0102543D01*
X0210115Y0104142D02*
X0216850Y0104142D01*
X0216850Y0105740D02*
X0208516Y0105740D01*
X0208917Y0107096D02*
X0209689Y0106703D01*
X0210512Y0106435D01*
X0211367Y0106300D01*
X0211600Y0106300D01*
X0211600Y0111600D01*
X0206300Y0111600D01*
X0206300Y0111367D01*
X0206435Y0110512D01*
X0206703Y0109689D01*
X0207096Y0108917D01*
X0207605Y0108217D01*
X0208217Y0107605D01*
X0208917Y0107096D01*
X0208583Y0107339D02*
X0179000Y0107339D01*
X0179000Y0108937D02*
X0207086Y0108937D01*
X0206432Y0110536D02*
X0179000Y0110536D01*
X0179000Y0112134D02*
X0206300Y0112134D01*
X0206645Y0113733D02*
X0192708Y0113733D01*
X0190892Y0113733D02*
X0177978Y0113733D01*
X0176380Y0115332D02*
X0188965Y0115332D01*
X0188619Y0116930D02*
X0174781Y0116930D01*
X0173183Y0118529D02*
X0189073Y0118529D01*
X0191800Y0116800D02*
X0201800Y0121800D01*
X0211800Y0121800D01*
X0207859Y0118529D02*
X0200176Y0118529D01*
X0196979Y0116930D02*
X0209790Y0116930D01*
X0207567Y0115332D02*
X0194635Y0115332D01*
X0191800Y0121800D02*
X0211800Y0131800D01*
X0207404Y0134514D02*
X0203561Y0134514D01*
X0204781Y0132915D02*
X0206742Y0132915D01*
X0205914Y0131317D02*
X0204981Y0131317D01*
X0201800Y0131800D02*
X0171800Y0126800D01*
X0121800Y0126800D01*
X0116800Y0131800D01*
X0116800Y0181800D01*
X0096800Y0181800D01*
X0093081Y0185666D02*
X0030146Y0185666D01*
X0032460Y0196856D02*
X0023600Y0196856D01*
X0023600Y0198454D02*
X0030862Y0198454D01*
X0030197Y0200053D02*
X0023600Y0200053D01*
X0023600Y0201651D02*
X0029790Y0201651D01*
X0029790Y0203250D02*
X0023600Y0203250D01*
X0023600Y0204848D02*
X0030214Y0204848D01*
X0030903Y0206447D02*
X0023600Y0206447D01*
X0023600Y0208045D02*
X0032501Y0208045D01*
X0036800Y0216800D02*
X0046800Y0201800D01*
X0045321Y0200053D02*
X0043403Y0200053D01*
X0043810Y0201651D02*
X0044255Y0201651D01*
X0042738Y0198454D02*
X0047035Y0198454D01*
X0048633Y0196856D02*
X0041140Y0196856D01*
X0060854Y0222432D02*
X0127800Y0222432D01*
X0128373Y0224030D02*
X0060795Y0224030D01*
X0059970Y0225629D02*
X0129972Y0225629D01*
X0133628Y0225629D02*
X0187800Y0225629D01*
X0187800Y0225143D02*
X0190143Y0222800D01*
X0193457Y0222800D01*
X0195800Y0225143D01*
X0195800Y0228457D01*
X0193457Y0230800D01*
X0190143Y0230800D01*
X0187800Y0228457D01*
X0187800Y0225143D01*
X0188913Y0224030D02*
X0135227Y0224030D01*
X0135800Y0222432D02*
X0207800Y0222432D01*
X0207800Y0223457D02*
X0207800Y0220143D01*
X0210143Y0217800D01*
X0213457Y0217800D01*
X0215800Y0220143D01*
X0215800Y0223457D01*
X0213457Y0225800D01*
X0210143Y0225800D01*
X0207800Y0223457D01*
X0208373Y0224030D02*
X0204687Y0224030D01*
X0205800Y0225143D02*
X0203457Y0222800D01*
X0200143Y0222800D01*
X0197800Y0225143D01*
X0197800Y0228457D01*
X0200143Y0230800D01*
X0203457Y0230800D01*
X0205800Y0228457D01*
X0205800Y0225143D01*
X0205800Y0225629D02*
X0209972Y0225629D01*
X0213628Y0225629D02*
X0216850Y0225629D01*
X0216850Y0227227D02*
X0205800Y0227227D01*
X0205431Y0228826D02*
X0216850Y0228826D01*
X0216850Y0230424D02*
X0203832Y0230424D01*
X0199767Y0230424D02*
X0193832Y0230424D01*
X0195431Y0228826D02*
X0198169Y0228826D01*
X0197800Y0227227D02*
X0195800Y0227227D01*
X0195800Y0225629D02*
X0197800Y0225629D01*
X0198913Y0224030D02*
X0194687Y0224030D01*
X0187800Y0227227D02*
X0099087Y0227227D01*
X0101038Y0228826D02*
X0149117Y0228826D01*
X0149534Y0228409D02*
X0151004Y0227800D01*
X0152596Y0227800D01*
X0154066Y0228409D01*
X0155191Y0229534D01*
X0155800Y0231004D01*
X0155800Y0232596D01*
X0155191Y0234066D01*
X0154066Y0235191D01*
X0152596Y0235800D01*
X0151004Y0235800D01*
X0149534Y0235191D01*
X0148409Y0234066D01*
X0147800Y0232596D01*
X0147800Y0231004D01*
X0148409Y0229534D01*
X0149534Y0228409D01*
X0148040Y0230424D02*
X0101750Y0230424D01*
X0101900Y0232023D02*
X0147800Y0232023D01*
X0148225Y0233621D02*
X0101566Y0233621D01*
X0100593Y0235220D02*
X0149604Y0235220D01*
X0153996Y0235220D02*
X0216850Y0235220D01*
X0216850Y0236818D02*
X0098011Y0236818D01*
X0091850Y0230424D02*
X0091750Y0230424D01*
X0091038Y0228826D02*
X0092562Y0228826D01*
X0094512Y0227227D02*
X0089087Y0227227D01*
X0105179Y0209644D02*
X0127734Y0209644D01*
X0129332Y0208045D02*
X0106200Y0208045D01*
X0100519Y0185666D02*
X0123081Y0185666D01*
X0123404Y0185800D02*
X0121934Y0185191D01*
X0120809Y0184066D01*
X0120200Y0182596D01*
X0120200Y0181004D01*
X0120809Y0179534D01*
X0121934Y0178409D01*
X0123404Y0177800D01*
X0130196Y0177800D01*
X0131666Y0178409D01*
X0132791Y0179534D01*
X0133400Y0181004D01*
X0133400Y0182596D01*
X0132791Y0184066D01*
X0131666Y0185191D01*
X0130196Y0185800D01*
X0123404Y0185800D01*
X0120811Y0184068D02*
X0102789Y0184068D01*
X0102529Y0179272D02*
X0114600Y0179272D01*
X0119000Y0179272D02*
X0121071Y0179272D01*
X0120255Y0180870D02*
X0119000Y0180870D01*
X0119000Y0182469D02*
X0120200Y0182469D01*
X0119000Y0177673D02*
X0139600Y0177673D01*
X0139600Y0176075D02*
X0130482Y0176075D01*
X0130430Y0176092D02*
X0129746Y0176200D01*
X0126800Y0176200D01*
X0126800Y0171800D01*
X0126800Y0171800D01*
X0133800Y0171800D01*
X0133800Y0172146D01*
X0133692Y0172830D01*
X0133478Y0173489D01*
X0133163Y0174106D01*
X0132756Y0174666D01*
X0132266Y0175156D01*
X0131706Y0175563D01*
X0131089Y0175878D01*
X0130430Y0176092D01*
X0132894Y0174476D02*
X0139600Y0174476D01*
X0139600Y0172878D02*
X0133676Y0172878D01*
X0133800Y0171800D02*
X0126800Y0171800D01*
X0126800Y0171800D01*
X0126800Y0167400D01*
X0129746Y0167400D01*
X0130430Y0167508D01*
X0131089Y0167722D01*
X0131706Y0168037D01*
X0132266Y0168444D01*
X0132756Y0168934D01*
X0133163Y0169494D01*
X0133478Y0170111D01*
X0133692Y0170770D01*
X0133800Y0171454D01*
X0133800Y0171800D01*
X0133772Y0171279D02*
X0139600Y0171279D01*
X0139600Y0169681D02*
X0133258Y0169681D01*
X0131769Y0168082D02*
X0139600Y0168082D01*
X0139600Y0166484D02*
X0119000Y0166484D01*
X0119000Y0168082D02*
X0121831Y0168082D01*
X0121894Y0168037D02*
X0122511Y0167722D01*
X0123170Y0167508D01*
X0123854Y0167400D01*
X0126800Y0167400D01*
X0126800Y0171800D01*
X0126800Y0171800D01*
X0126800Y0171800D01*
X0119800Y0171800D01*
X0119800Y0172146D01*
X0119908Y0172830D01*
X0120122Y0173489D01*
X0120437Y0174106D01*
X0120844Y0174666D01*
X0121334Y0175156D01*
X0121894Y0175563D01*
X0122511Y0175878D01*
X0123170Y0176092D01*
X0123854Y0176200D01*
X0126800Y0176200D01*
X0126800Y0171800D01*
X0119800Y0171800D01*
X0119800Y0171454D01*
X0119908Y0170770D01*
X0120122Y0170111D01*
X0120437Y0169494D01*
X0120844Y0168934D01*
X0121334Y0168444D01*
X0121894Y0168037D01*
X0120341Y0169681D02*
X0119000Y0169681D01*
X0119000Y0171279D02*
X0119828Y0171279D01*
X0119924Y0172878D02*
X0119000Y0172878D01*
X0119000Y0174476D02*
X0120706Y0174476D01*
X0119000Y0176075D02*
X0123118Y0176075D01*
X0126800Y0176075D02*
X0126800Y0176075D01*
X0126800Y0174476D02*
X0126800Y0174476D01*
X0126800Y0172878D02*
X0126800Y0172878D01*
X0126800Y0171279D02*
X0126800Y0171279D01*
X0126800Y0169681D02*
X0126800Y0169681D01*
X0126800Y0168082D02*
X0126800Y0168082D01*
X0130196Y0165800D02*
X0131666Y0165191D01*
X0132791Y0164066D01*
X0133400Y0162596D01*
X0133400Y0161004D01*
X0132791Y0159534D01*
X0131666Y0158409D01*
X0130196Y0157800D01*
X0123404Y0157800D01*
X0121934Y0158409D01*
X0120809Y0159534D01*
X0120200Y0161004D01*
X0120200Y0162596D01*
X0120809Y0164066D01*
X0121934Y0165191D01*
X0123404Y0165800D01*
X0130196Y0165800D01*
X0131971Y0164885D02*
X0140603Y0164885D01*
X0141800Y0166800D02*
X0141800Y0181800D01*
X0141800Y0206800D01*
X0136800Y0216800D01*
X0131800Y0221800D01*
X0135878Y0220833D02*
X0207800Y0220833D01*
X0208708Y0219235D02*
X0180022Y0219235D01*
X0180800Y0218457D02*
X0178457Y0220800D01*
X0175143Y0220800D01*
X0172800Y0218457D01*
X0172800Y0215143D01*
X0175143Y0212800D01*
X0178457Y0212800D01*
X0180800Y0215143D01*
X0180800Y0218457D01*
X0180800Y0217636D02*
X0216850Y0217636D01*
X0216850Y0216038D02*
X0180800Y0216038D01*
X0180096Y0214439D02*
X0216850Y0214439D01*
X0216850Y0212841D02*
X0178498Y0212841D01*
X0178623Y0211200D02*
X0176800Y0211200D01*
X0176800Y0206800D01*
X0176800Y0206800D01*
X0181200Y0206800D01*
X0181200Y0208623D01*
X0178623Y0211200D01*
X0176800Y0211200D02*
X0176800Y0206800D01*
X0176800Y0206800D01*
X0176800Y0206800D01*
X0172400Y0206800D01*
X0172400Y0208623D01*
X0174977Y0211200D01*
X0176800Y0211200D01*
X0176800Y0209644D02*
X0176800Y0209644D01*
X0176800Y0208045D02*
X0176800Y0208045D01*
X0176800Y0206800D02*
X0172400Y0206800D01*
X0172400Y0204977D01*
X0174977Y0202400D01*
X0176800Y0202400D01*
X0178623Y0202400D01*
X0181200Y0204977D01*
X0181200Y0206800D01*
X0176800Y0206800D01*
X0176800Y0202400D01*
X0176800Y0206800D01*
X0176800Y0206800D01*
X0176800Y0206447D02*
X0176800Y0206447D01*
X0176800Y0204848D02*
X0176800Y0204848D01*
X0176800Y0203250D02*
X0176800Y0203250D01*
X0179472Y0203250D02*
X0216850Y0203250D01*
X0216850Y0204848D02*
X0181071Y0204848D01*
X0181200Y0206447D02*
X0216850Y0206447D01*
X0216850Y0208045D02*
X0181200Y0208045D01*
X0180179Y0209644D02*
X0216850Y0209644D01*
X0216850Y0211242D02*
X0156200Y0211242D01*
X0156200Y0211800D02*
X0156200Y0209977D01*
X0153623Y0207400D01*
X0151800Y0207400D01*
X0151800Y0211800D01*
X0151800Y0211800D01*
X0151800Y0216200D01*
X0153623Y0216200D01*
X0156200Y0213623D01*
X0156200Y0211800D01*
X0151800Y0211800D01*
X0151800Y0211800D01*
X0151800Y0211800D01*
X0147400Y0211800D01*
X0147400Y0213623D01*
X0149977Y0216200D01*
X0151800Y0216200D01*
X0151800Y0211800D01*
X0156200Y0211800D01*
X0156200Y0212841D02*
X0175102Y0212841D01*
X0173504Y0214439D02*
X0155383Y0214439D01*
X0153785Y0216038D02*
X0172800Y0216038D01*
X0172800Y0217636D02*
X0139000Y0217636D01*
X0139641Y0216038D02*
X0149815Y0216038D01*
X0151800Y0216038D02*
X0151800Y0216038D01*
X0151800Y0214439D02*
X0151800Y0214439D01*
X0151800Y0212841D02*
X0151800Y0212841D01*
X0151800Y0211800D02*
X0147400Y0211800D01*
X0147400Y0209977D01*
X0149977Y0207400D01*
X0151800Y0207400D01*
X0151800Y0211800D01*
X0151800Y0211800D01*
X0151800Y0211242D02*
X0151800Y0211242D01*
X0151800Y0209644D02*
X0151800Y0209644D01*
X0151800Y0208045D02*
X0151800Y0208045D01*
X0154268Y0208045D02*
X0172400Y0208045D01*
X0172400Y0206447D02*
X0144001Y0206447D01*
X0144000Y0204848D02*
X0172529Y0204848D01*
X0174128Y0203250D02*
X0144000Y0203250D01*
X0144000Y0201651D02*
X0216850Y0201651D01*
X0216850Y0200053D02*
X0144000Y0200053D01*
X0144000Y0198454D02*
X0189042Y0198454D01*
X0189103Y0198602D02*
X0188619Y0197433D01*
X0188619Y0196167D01*
X0189103Y0194998D01*
X0189600Y0194501D01*
X0189600Y0139099D01*
X0189103Y0138602D01*
X0188619Y0137433D01*
X0188619Y0136167D01*
X0189103Y0134998D01*
X0189998Y0134103D01*
X0191167Y0133619D01*
X0192433Y0133619D01*
X0193602Y0134103D01*
X0194497Y0134998D01*
X0194981Y0136167D01*
X0194981Y0137433D01*
X0194497Y0138602D01*
X0194000Y0139099D01*
X0194000Y0194501D01*
X0194497Y0194998D01*
X0194981Y0196167D01*
X0194981Y0197433D01*
X0194497Y0198602D01*
X0193602Y0199497D01*
X0192433Y0199981D01*
X0191167Y0199981D01*
X0189998Y0199497D01*
X0189103Y0198602D01*
X0188619Y0196856D02*
X0144000Y0196856D01*
X0144000Y0195257D02*
X0188996Y0195257D01*
X0189600Y0193659D02*
X0144000Y0193659D01*
X0144000Y0192060D02*
X0189600Y0192060D01*
X0189600Y0190462D02*
X0144000Y0190462D01*
X0144000Y0188863D02*
X0189600Y0188863D01*
X0189600Y0187265D02*
X0144000Y0187265D01*
X0144000Y0185666D02*
X0149443Y0185666D01*
X0149977Y0186200D02*
X0147400Y0183623D01*
X0147400Y0181800D01*
X0151800Y0181800D01*
X0156200Y0181800D01*
X0156200Y0183623D01*
X0153623Y0186200D01*
X0151800Y0186200D01*
X0151800Y0181800D01*
X0151800Y0181800D01*
X0151800Y0181800D01*
X0156200Y0181800D01*
X0156200Y0179977D01*
X0153623Y0177400D01*
X0151800Y0177400D01*
X0151800Y0181800D01*
X0151800Y0181800D01*
X0151800Y0181800D01*
X0151800Y0186200D01*
X0149977Y0186200D01*
X0151800Y0185666D02*
X0151800Y0185666D01*
X0151800Y0184068D02*
X0151800Y0184068D01*
X0151800Y0182469D02*
X0151800Y0182469D01*
X0151800Y0181800D02*
X0147400Y0181800D01*
X0147400Y0179977D01*
X0149977Y0177400D01*
X0151800Y0177400D01*
X0151800Y0181800D01*
X0151800Y0180870D02*
X0151800Y0180870D01*
X0151800Y0179272D02*
X0151800Y0179272D01*
X0151800Y0177673D02*
X0151800Y0177673D01*
X0153896Y0177673D02*
X0189600Y0177673D01*
X0189600Y0176075D02*
X0144000Y0176075D01*
X0144000Y0177673D02*
X0149704Y0177673D01*
X0148105Y0179272D02*
X0144929Y0179272D01*
X0145800Y0180870D02*
X0147400Y0180870D01*
X0147400Y0182469D02*
X0145800Y0182469D01*
X0145189Y0184068D02*
X0147845Y0184068D01*
X0154156Y0185666D02*
X0189600Y0185666D01*
X0189600Y0184068D02*
X0155755Y0184068D01*
X0156200Y0182469D02*
X0189600Y0182469D01*
X0189600Y0180870D02*
X0156200Y0180870D01*
X0155495Y0179272D02*
X0189600Y0179272D01*
X0189600Y0174476D02*
X0144000Y0174476D01*
X0144000Y0172878D02*
X0189600Y0172878D01*
X0189600Y0171279D02*
X0144000Y0171279D01*
X0144000Y0169681D02*
X0189600Y0169681D01*
X0189600Y0168082D02*
X0148629Y0168082D01*
X0149000Y0166484D02*
X0189600Y0166484D01*
X0189600Y0164885D02*
X0149000Y0164885D01*
X0149000Y0163287D02*
X0189600Y0163287D01*
X0189600Y0161688D02*
X0149000Y0161688D01*
X0149000Y0160090D02*
X0189600Y0160090D01*
X0189600Y0158491D02*
X0149000Y0158491D01*
X0149000Y0156893D02*
X0189600Y0156893D01*
X0189600Y0155294D02*
X0149000Y0155294D01*
X0149000Y0153696D02*
X0189600Y0153696D01*
X0189600Y0152097D02*
X0149000Y0152097D01*
X0149000Y0150499D02*
X0189600Y0150499D01*
X0189600Y0148900D02*
X0149000Y0148900D01*
X0149000Y0147302D02*
X0189600Y0147302D01*
X0189600Y0145703D02*
X0149000Y0145703D01*
X0149000Y0144105D02*
X0189600Y0144105D01*
X0189600Y0142506D02*
X0149000Y0142506D01*
X0149000Y0140908D02*
X0189600Y0140908D01*
X0189600Y0139309D02*
X0149000Y0139309D01*
X0149000Y0137711D02*
X0188734Y0137711D01*
X0188642Y0136112D02*
X0149000Y0136112D01*
X0149000Y0134514D02*
X0189588Y0134514D01*
X0191800Y0136800D02*
X0191800Y0196800D01*
X0194604Y0195257D02*
X0209035Y0195257D01*
X0209977Y0196200D02*
X0207400Y0193623D01*
X0207400Y0191800D01*
X0211800Y0191800D01*
X0211800Y0191800D01*
X0211800Y0196200D01*
X0213623Y0196200D01*
X0216200Y0193623D01*
X0216200Y0191800D01*
X0211800Y0191800D01*
X0211800Y0191800D01*
X0211800Y0191800D01*
X0211800Y0196200D01*
X0209977Y0196200D01*
X0211800Y0195257D02*
X0211800Y0195257D01*
X0211800Y0193659D02*
X0211800Y0193659D01*
X0211800Y0192060D02*
X0211800Y0192060D01*
X0211800Y0191800D02*
X0207400Y0191800D01*
X0207400Y0189977D01*
X0209977Y0187400D01*
X0211800Y0187400D01*
X0213623Y0187400D01*
X0216200Y0189977D01*
X0216200Y0191800D01*
X0211800Y0191800D01*
X0211800Y0187400D01*
X0211800Y0191800D01*
X0211800Y0191800D01*
X0211800Y0190462D02*
X0211800Y0190462D01*
X0211800Y0188863D02*
X0211800Y0188863D01*
X0208514Y0188863D02*
X0194000Y0188863D01*
X0194000Y0187265D02*
X0216850Y0187265D01*
X0216850Y0188863D02*
X0215086Y0188863D01*
X0216200Y0190462D02*
X0216850Y0190462D01*
X0216850Y0192060D02*
X0216200Y0192060D01*
X0216164Y0193659D02*
X0216850Y0193659D01*
X0216850Y0195257D02*
X0214565Y0195257D01*
X0216850Y0196856D02*
X0194981Y0196856D01*
X0194558Y0198454D02*
X0216850Y0198454D01*
X0207436Y0193659D02*
X0194000Y0193659D01*
X0194000Y0192060D02*
X0207400Y0192060D01*
X0207400Y0190462D02*
X0194000Y0190462D01*
X0194000Y0185666D02*
X0208454Y0185666D01*
X0207219Y0184068D02*
X0194000Y0184068D01*
X0194000Y0182469D02*
X0206700Y0182469D01*
X0206700Y0180870D02*
X0194000Y0180870D01*
X0194000Y0179272D02*
X0207327Y0179272D01*
X0208714Y0177673D02*
X0194000Y0177673D01*
X0194000Y0176075D02*
X0208862Y0176075D01*
X0207388Y0174476D02*
X0194000Y0174476D01*
X0194000Y0172878D02*
X0206726Y0172878D01*
X0206700Y0171279D02*
X0194000Y0171279D01*
X0194000Y0169681D02*
X0207158Y0169681D01*
X0208305Y0168082D02*
X0194000Y0168082D01*
X0194000Y0166484D02*
X0209781Y0166484D01*
X0207673Y0164885D02*
X0194000Y0164885D01*
X0194000Y0163287D02*
X0206896Y0163287D01*
X0206700Y0161688D02*
X0194000Y0161688D01*
X0194000Y0160090D02*
X0206988Y0160090D01*
X0207896Y0158491D02*
X0194000Y0158491D01*
X0194000Y0156893D02*
X0210320Y0156893D01*
X0208082Y0155294D02*
X0194000Y0155294D01*
X0194000Y0153696D02*
X0207065Y0153696D01*
X0206700Y0152097D02*
X0194000Y0152097D01*
X0194000Y0150499D02*
X0206819Y0150499D01*
X0207487Y0148900D02*
X0194000Y0148900D01*
X0194000Y0147302D02*
X0209333Y0147302D01*
X0208491Y0145703D02*
X0194000Y0145703D01*
X0194000Y0144105D02*
X0207234Y0144105D01*
X0206700Y0142506D02*
X0194000Y0142506D01*
X0194000Y0140908D02*
X0206700Y0140908D01*
X0207312Y0139309D02*
X0194000Y0139309D01*
X0194866Y0137711D02*
X0208677Y0137711D01*
X0208900Y0136112D02*
X0194958Y0136112D01*
X0194012Y0134514D02*
X0200039Y0134514D01*
X0195109Y0132915D02*
X0149781Y0132915D01*
X0149981Y0131317D02*
X0185518Y0131317D01*
X0183509Y0126521D02*
X0196323Y0126521D01*
X0199520Y0128120D02*
X0193100Y0128120D01*
X0193126Y0124923D02*
X0177574Y0124923D01*
X0176026Y0124923D02*
X0174421Y0124923D01*
X0173988Y0123324D02*
X0168387Y0123324D01*
X0166800Y0121800D02*
X0176800Y0111800D01*
X0176800Y0101800D01*
X0176800Y0091800D01*
X0156800Y0061800D01*
X0131800Y0066800D01*
X0116800Y0066800D01*
X0111800Y0061800D01*
X0096800Y0061800D01*
X0093350Y0065778D02*
X0084736Y0065778D01*
X0084736Y0067158D02*
X0084736Y0063513D01*
X0083447Y0062224D01*
X0080336Y0065335D01*
X0080336Y0065335D01*
X0083447Y0062224D01*
X0082158Y0060936D01*
X0078513Y0060936D01*
X0077224Y0062224D01*
X0080335Y0065335D01*
X0080335Y0065335D01*
X0077224Y0062224D01*
X0075936Y0063513D01*
X0075936Y0067158D01*
X0077224Y0068447D01*
X0080335Y0065336D01*
X0080335Y0065336D01*
X0077224Y0068447D01*
X0078377Y0069600D01*
X0072466Y0069600D01*
X0059981Y0061277D01*
X0059981Y0061167D01*
X0059497Y0059998D01*
X0058602Y0059103D01*
X0057433Y0058619D01*
X0056167Y0058619D01*
X0054998Y0059103D01*
X0054103Y0059998D01*
X0053619Y0061167D01*
X0053619Y0062433D01*
X0054103Y0063602D01*
X0054998Y0064497D01*
X0056167Y0064981D01*
X0057433Y0064981D01*
X0057539Y0064937D01*
X0070398Y0073510D01*
X0070889Y0074000D01*
X0071134Y0074000D01*
X0071338Y0074136D01*
X0072018Y0074000D01*
X0090782Y0074000D01*
X0090809Y0074066D01*
X0091934Y0075191D01*
X0093404Y0075800D01*
X0100196Y0075800D01*
X0101666Y0075191D01*
X0102791Y0074066D01*
X0103400Y0072596D01*
X0103400Y0071004D01*
X0102791Y0069534D01*
X0101666Y0068409D01*
X0100196Y0067800D01*
X0093404Y0067800D01*
X0091934Y0068409D01*
X0090809Y0069534D01*
X0090782Y0069600D01*
X0082294Y0069600D01*
X0083447Y0068447D01*
X0080336Y0065336D01*
X0080336Y0065336D01*
X0083447Y0068447D01*
X0084736Y0067158D01*
X0084517Y0067376D02*
X0114265Y0067376D01*
X0112666Y0065778D02*
X0100250Y0065778D01*
X0102678Y0064179D02*
X0111068Y0064179D01*
X0114093Y0060982D02*
X0120209Y0060982D01*
X0120200Y0062581D02*
X0115692Y0062581D01*
X0117290Y0064179D02*
X0120922Y0064179D01*
X0120960Y0059384D02*
X0102640Y0059384D01*
X0102269Y0054588D02*
X0121331Y0054588D01*
X0120363Y0052990D02*
X0103237Y0052990D01*
X0103400Y0051391D02*
X0120200Y0051391D01*
X0120702Y0049793D02*
X0102898Y0049793D01*
X0101147Y0048194D02*
X0122453Y0048194D01*
X0128075Y0056187D02*
X0076843Y0056187D01*
X0077264Y0056608D02*
X0077264Y0059921D01*
X0074921Y0062264D01*
X0071608Y0062264D01*
X0069264Y0059921D01*
X0069264Y0056608D01*
X0071608Y0054264D01*
X0074921Y0054264D01*
X0077264Y0056608D01*
X0077264Y0057785D02*
X0129674Y0057785D01*
X0132737Y0068975D02*
X0149869Y0068975D01*
X0148043Y0070573D02*
X0133221Y0070573D01*
X0133400Y0072172D02*
X0146102Y0072172D01*
X0144161Y0073770D02*
X0132913Y0073770D01*
X0131237Y0075369D02*
X0142220Y0075369D01*
X0140279Y0076967D02*
X0059000Y0076967D01*
X0059000Y0078566D02*
X0091777Y0078566D01*
X0091934Y0078409D02*
X0093404Y0077800D01*
X0100196Y0077800D01*
X0101666Y0078409D01*
X0102791Y0079534D01*
X0103400Y0081004D01*
X0103400Y0082596D01*
X0102791Y0084066D01*
X0101666Y0085191D01*
X0100196Y0085800D01*
X0093404Y0085800D01*
X0091934Y0085191D01*
X0090809Y0084066D01*
X0090200Y0082596D01*
X0090200Y0081004D01*
X0090809Y0079534D01*
X0091934Y0078409D01*
X0090548Y0080164D02*
X0059000Y0080164D01*
X0059000Y0081763D02*
X0090200Y0081763D01*
X0090517Y0083361D02*
X0059000Y0083361D01*
X0059000Y0084960D02*
X0091703Y0084960D01*
X0092543Y0088157D02*
X0080369Y0088157D01*
X0081473Y0089755D02*
X0090717Y0089755D01*
X0090200Y0091354D02*
X0081900Y0091354D01*
X0081843Y0092952D02*
X0090348Y0092952D01*
X0091294Y0094551D02*
X0081181Y0094551D01*
X0081723Y0099346D02*
X0090997Y0099346D01*
X0090225Y0100945D02*
X0082233Y0100945D01*
X0082251Y0102543D02*
X0090200Y0102543D01*
X0090885Y0104142D02*
X0081780Y0104142D01*
X0080638Y0105740D02*
X0093261Y0105740D01*
X0091815Y0118529D02*
X0059000Y0118529D01*
X0059000Y0120127D02*
X0090563Y0120127D01*
X0090200Y0121726D02*
X0059000Y0121726D01*
X0059000Y0123324D02*
X0090502Y0123324D01*
X0100967Y0128120D02*
X0104600Y0128120D01*
X0104600Y0129718D02*
X0102867Y0129718D01*
X0103400Y0131317D02*
X0104172Y0131317D01*
X0106800Y0131800D02*
X0096800Y0141800D01*
X0103338Y0147302D02*
X0059000Y0147302D01*
X0102852Y0169681D02*
X0114600Y0169681D01*
X0114600Y0171279D02*
X0103400Y0171279D01*
X0103283Y0172878D02*
X0114600Y0172878D01*
X0114600Y0174476D02*
X0102380Y0174476D01*
X0119000Y0164885D02*
X0121629Y0164885D01*
X0120486Y0163287D02*
X0119000Y0163287D01*
X0119000Y0161688D02*
X0120200Y0161688D01*
X0120579Y0160090D02*
X0119000Y0160090D01*
X0119000Y0158491D02*
X0121852Y0158491D01*
X0123404Y0155800D02*
X0121934Y0155191D01*
X0120809Y0154066D01*
X0120200Y0152596D01*
X0120200Y0151004D01*
X0120809Y0149534D01*
X0121934Y0148409D01*
X0123404Y0147800D01*
X0130196Y0147800D01*
X0131666Y0148409D01*
X0132791Y0149534D01*
X0133400Y0151004D01*
X0133400Y0152596D01*
X0132791Y0154066D01*
X0131666Y0155191D01*
X0130196Y0155800D01*
X0123404Y0155800D01*
X0122184Y0155294D02*
X0119000Y0155294D01*
X0119000Y0153696D02*
X0120656Y0153696D01*
X0120200Y0152097D02*
X0119000Y0152097D01*
X0119000Y0150499D02*
X0120409Y0150499D01*
X0121443Y0148900D02*
X0119000Y0148900D01*
X0119000Y0147302D02*
X0144600Y0147302D01*
X0144600Y0148900D02*
X0132157Y0148900D01*
X0133191Y0150499D02*
X0144600Y0150499D01*
X0144600Y0152097D02*
X0133400Y0152097D01*
X0132944Y0153696D02*
X0144600Y0153696D01*
X0144600Y0155294D02*
X0131416Y0155294D01*
X0131748Y0158491D02*
X0144600Y0158491D01*
X0144600Y0156893D02*
X0119000Y0156893D01*
X0114600Y0148900D02*
X0112811Y0148900D01*
X0114009Y0147302D02*
X0114600Y0147302D01*
X0114600Y0145703D02*
X0114000Y0145703D01*
X0114000Y0144105D02*
X0114600Y0144105D01*
X0114600Y0142506D02*
X0114000Y0142506D01*
X0114000Y0140908D02*
X0114600Y0140908D01*
X0114600Y0139309D02*
X0114000Y0139309D01*
X0114000Y0137711D02*
X0114600Y0137711D01*
X0114600Y0136112D02*
X0114000Y0136112D01*
X0114000Y0134514D02*
X0114600Y0134514D01*
X0114600Y0132915D02*
X0114000Y0132915D01*
X0114000Y0131317D02*
X0114600Y0131317D01*
X0114000Y0129718D02*
X0115771Y0129718D01*
X0117369Y0128120D02*
X0114000Y0128120D01*
X0114000Y0126521D02*
X0118968Y0126521D01*
X0120566Y0124923D02*
X0114000Y0124923D01*
X0114000Y0123324D02*
X0120502Y0123324D01*
X0120200Y0121726D02*
X0114000Y0121726D01*
X0114000Y0120127D02*
X0120563Y0120127D01*
X0121815Y0118529D02*
X0114000Y0118529D01*
X0114000Y0116930D02*
X0168559Y0116930D01*
X0168623Y0116200D02*
X0166800Y0116200D01*
X0166800Y0111800D01*
X0171200Y0111800D01*
X0171200Y0113623D01*
X0168623Y0116200D01*
X0169491Y0115332D02*
X0170157Y0115332D01*
X0171090Y0113733D02*
X0171756Y0113733D01*
X0171200Y0112134D02*
X0173354Y0112134D01*
X0174600Y0110536D02*
X0171200Y0110536D01*
X0171200Y0109977D02*
X0171200Y0111800D01*
X0166800Y0111800D01*
X0166800Y0111800D01*
X0166800Y0111800D01*
X0166800Y0107400D01*
X0168623Y0107400D01*
X0171200Y0109977D01*
X0170160Y0108937D02*
X0174600Y0108937D01*
X0174600Y0107339D02*
X0114000Y0107339D01*
X0109000Y0094551D02*
X0120760Y0094551D01*
X0119948Y0092952D02*
X0109000Y0092952D01*
X0110357Y0091354D02*
X0119816Y0091354D01*
X0120304Y0089755D02*
X0111956Y0089755D01*
X0111800Y0086800D02*
X0106800Y0091800D01*
X0106800Y0131800D01*
X0119000Y0132915D02*
X0120332Y0132915D01*
X0121257Y0134514D02*
X0119000Y0134514D01*
X0119000Y0136112D02*
X0144600Y0136112D01*
X0144600Y0134514D02*
X0132343Y0134514D01*
X0133268Y0132915D02*
X0143819Y0132915D01*
X0143619Y0131317D02*
X0133400Y0131317D01*
X0132867Y0129718D02*
X0144383Y0129718D01*
X0146800Y0131800D02*
X0146800Y0166800D01*
X0141800Y0166800D01*
X0144600Y0163287D02*
X0133114Y0163287D01*
X0133400Y0161688D02*
X0144600Y0161688D01*
X0144600Y0160090D02*
X0133021Y0160090D01*
X0130196Y0145800D02*
X0123404Y0145800D01*
X0121934Y0145191D01*
X0120809Y0144066D01*
X0120200Y0142596D01*
X0120200Y0141004D01*
X0120809Y0139534D01*
X0121934Y0138409D01*
X0123404Y0137800D01*
X0130196Y0137800D01*
X0131666Y0138409D01*
X0132791Y0139534D01*
X0133400Y0141004D01*
X0133400Y0142596D01*
X0132791Y0144066D01*
X0131666Y0145191D01*
X0130196Y0145800D01*
X0130429Y0145703D02*
X0144600Y0145703D01*
X0144600Y0144105D02*
X0132752Y0144105D01*
X0133400Y0142506D02*
X0144600Y0142506D01*
X0144600Y0140908D02*
X0133360Y0140908D01*
X0132566Y0139309D02*
X0144600Y0139309D01*
X0144600Y0137711D02*
X0119000Y0137711D01*
X0119000Y0139309D02*
X0121034Y0139309D01*
X0120240Y0140908D02*
X0119000Y0140908D01*
X0119000Y0142506D02*
X0120200Y0142506D01*
X0120848Y0144105D02*
X0119000Y0144105D01*
X0119000Y0145703D02*
X0123171Y0145703D01*
X0133098Y0123324D02*
X0143988Y0123324D01*
X0143619Y0121726D02*
X0133400Y0121726D01*
X0133037Y0120127D02*
X0144050Y0120127D01*
X0146800Y0121800D02*
X0166800Y0121800D01*
X0169986Y0121726D02*
X0173619Y0121726D01*
X0174050Y0120127D02*
X0171584Y0120127D01*
X0166960Y0118529D02*
X0131785Y0118529D01*
X0131327Y0115332D02*
X0144873Y0115332D01*
X0144534Y0115191D02*
X0143409Y0114066D01*
X0142800Y0112596D01*
X0142800Y0111004D01*
X0143409Y0109534D01*
X0144534Y0108409D01*
X0146004Y0107800D01*
X0147596Y0107800D01*
X0149066Y0108409D01*
X0150191Y0109534D01*
X0150800Y0111004D01*
X0150800Y0112596D01*
X0150191Y0114066D01*
X0149066Y0115191D01*
X0147596Y0115800D01*
X0146004Y0115800D01*
X0144534Y0115191D01*
X0143271Y0113733D02*
X0132929Y0113733D01*
X0133400Y0112134D02*
X0142800Y0112134D01*
X0142994Y0110536D02*
X0133206Y0110536D01*
X0132194Y0108937D02*
X0144006Y0108937D01*
X0149594Y0108937D02*
X0163440Y0108937D01*
X0162400Y0109977D02*
X0162400Y0111800D01*
X0166800Y0111800D01*
X0166800Y0111800D01*
X0166800Y0111800D01*
X0166800Y0116200D01*
X0164977Y0116200D01*
X0162400Y0113623D01*
X0162400Y0111800D01*
X0166800Y0111800D01*
X0166800Y0107400D01*
X0164977Y0107400D01*
X0162400Y0109977D01*
X0162400Y0110536D02*
X0150606Y0110536D01*
X0150800Y0112134D02*
X0162400Y0112134D01*
X0162510Y0113733D02*
X0150329Y0113733D01*
X0148727Y0115332D02*
X0164109Y0115332D01*
X0166800Y0115332D02*
X0166800Y0115332D01*
X0166800Y0113733D02*
X0166800Y0113733D01*
X0166800Y0112134D02*
X0166800Y0112134D01*
X0166800Y0110536D02*
X0166800Y0110536D01*
X0166800Y0108937D02*
X0166800Y0108937D01*
X0173485Y0104142D02*
X0132715Y0104142D01*
X0133400Y0102543D02*
X0172800Y0102543D01*
X0172800Y0100945D02*
X0133375Y0100945D01*
X0132603Y0099346D02*
X0173597Y0099346D01*
X0174600Y0097748D02*
X0139137Y0097748D01*
X0141135Y0096149D02*
X0174600Y0096149D01*
X0173894Y0094551D02*
X0143133Y0094551D01*
X0145131Y0092952D02*
X0172800Y0092952D01*
X0172800Y0091354D02*
X0147129Y0091354D01*
X0149128Y0089755D02*
X0172793Y0089755D01*
X0171727Y0088157D02*
X0151126Y0088157D01*
X0153124Y0086558D02*
X0170661Y0086558D01*
X0169596Y0084960D02*
X0155122Y0084960D01*
X0157120Y0083361D02*
X0168530Y0083361D01*
X0167464Y0081763D02*
X0159118Y0081763D01*
X0161116Y0080164D02*
X0166399Y0080164D01*
X0165333Y0078566D02*
X0164512Y0078566D01*
X0158069Y0076967D02*
X0147200Y0076967D01*
X0145259Y0078566D02*
X0156071Y0078566D01*
X0154073Y0080164D02*
X0143318Y0080164D01*
X0141377Y0081763D02*
X0152075Y0081763D01*
X0150077Y0083361D02*
X0139436Y0083361D01*
X0137495Y0084960D02*
X0148079Y0084960D01*
X0146080Y0086558D02*
X0135554Y0086558D01*
X0133613Y0088157D02*
X0144082Y0088157D01*
X0142084Y0089755D02*
X0133296Y0089755D01*
X0133784Y0091354D02*
X0140086Y0091354D01*
X0138088Y0092952D02*
X0133652Y0092952D01*
X0132840Y0094551D02*
X0136090Y0094551D01*
X0131800Y0086800D02*
X0111800Y0086800D01*
X0110529Y0084960D02*
X0101897Y0084960D01*
X0103083Y0083361D02*
X0120517Y0083361D01*
X0120200Y0081763D02*
X0103400Y0081763D01*
X0103052Y0080164D02*
X0120548Y0080164D01*
X0121777Y0078566D02*
X0101823Y0078566D01*
X0101237Y0075369D02*
X0122363Y0075369D01*
X0120687Y0073770D02*
X0102913Y0073770D01*
X0103400Y0072172D02*
X0120200Y0072172D01*
X0120379Y0070573D02*
X0103221Y0070573D01*
X0102232Y0068975D02*
X0115863Y0068975D01*
X0131823Y0078566D02*
X0138338Y0078566D01*
X0136397Y0080164D02*
X0133052Y0080164D01*
X0133400Y0081763D02*
X0134456Y0081763D01*
X0131800Y0086800D02*
X0153050Y0069300D01*
X0159964Y0062581D02*
X0172800Y0062581D01*
X0173522Y0064179D02*
X0161030Y0064179D01*
X0165120Y0056187D02*
X0174063Y0056187D01*
X0172435Y0054588D02*
X0166552Y0054588D01*
X0167180Y0052990D02*
X0171773Y0052990D01*
X0171700Y0051391D02*
X0167300Y0051391D01*
X0166931Y0049793D02*
X0172111Y0049793D01*
X0173193Y0048194D02*
X0165972Y0048194D01*
X0179706Y0094551D02*
X0207419Y0094551D01*
X0208973Y0096149D02*
X0179000Y0096149D01*
X0180800Y0102543D02*
X0202800Y0102543D01*
X0203485Y0104142D02*
X0180115Y0104142D01*
X0179000Y0105740D02*
X0205084Y0105740D01*
X0211600Y0107339D02*
X0212000Y0107339D01*
X0212000Y0108937D02*
X0211600Y0108937D01*
X0211600Y0110536D02*
X0212000Y0110536D01*
X0215017Y0107339D02*
X0216850Y0107339D01*
X0216850Y0108937D02*
X0216514Y0108937D01*
X0216850Y0096149D02*
X0214627Y0096149D01*
X0216181Y0094551D02*
X0216850Y0094551D01*
X0216843Y0092952D02*
X0216850Y0092952D01*
X0191800Y0121800D02*
X0176800Y0121800D01*
X0175927Y0129718D02*
X0173068Y0129718D01*
X0170532Y0129718D02*
X0149217Y0129718D01*
X0130339Y0105740D02*
X0174600Y0105740D01*
X0138671Y0179272D02*
X0132529Y0179272D01*
X0133345Y0180870D02*
X0137800Y0180870D01*
X0137800Y0182469D02*
X0133400Y0182469D01*
X0132789Y0184068D02*
X0138411Y0184068D01*
X0139600Y0185666D02*
X0130519Y0185666D01*
X0143666Y0208045D02*
X0149332Y0208045D01*
X0147734Y0209644D02*
X0142838Y0209644D01*
X0142039Y0211242D02*
X0147400Y0211242D01*
X0147400Y0212841D02*
X0141239Y0212841D01*
X0140440Y0214439D02*
X0148217Y0214439D01*
X0155866Y0209644D02*
X0173421Y0209644D01*
X0173578Y0219235D02*
X0137477Y0219235D01*
X0134451Y0216038D02*
X0133785Y0216038D01*
X0135383Y0214439D02*
X0135521Y0214439D01*
X0136200Y0212841D02*
X0136320Y0212841D01*
X0136200Y0211242D02*
X0137119Y0211242D01*
X0137918Y0209644D02*
X0135866Y0209644D01*
X0129815Y0216038D02*
X0128300Y0216038D01*
X0128217Y0214439D02*
X0127596Y0214439D01*
X0154483Y0228826D02*
X0188169Y0228826D01*
X0189767Y0230424D02*
X0155560Y0230424D01*
X0155800Y0232023D02*
X0216850Y0232023D01*
X0216850Y0233621D02*
X0155375Y0233621D01*
X0215227Y0224030D02*
X0216850Y0224030D01*
X0216850Y0222432D02*
X0215800Y0222432D01*
X0215800Y0220833D02*
X0216850Y0220833D01*
X0216850Y0219235D02*
X0214892Y0219235D01*
X0215146Y0185666D02*
X0216850Y0185666D01*
X0216850Y0184068D02*
X0216381Y0184068D01*
X0096800Y0071800D02*
X0071800Y0071800D01*
X0056800Y0061800D01*
X0054680Y0064179D02*
X0049993Y0064179D01*
X0050525Y0062581D02*
X0053680Y0062581D01*
X0053696Y0060982D02*
X0051058Y0060982D01*
X0051591Y0059384D02*
X0054718Y0059384D01*
X0052124Y0057785D02*
X0069264Y0057785D01*
X0069264Y0059384D02*
X0058882Y0059384D01*
X0059904Y0060982D02*
X0070325Y0060982D01*
X0066733Y0065778D02*
X0075936Y0065778D01*
X0075936Y0064179D02*
X0064335Y0064179D01*
X0061937Y0062581D02*
X0076868Y0062581D01*
X0077581Y0062581D02*
X0077581Y0062581D01*
X0078466Y0060982D02*
X0076204Y0060982D01*
X0077264Y0059384D02*
X0090960Y0059384D01*
X0090209Y0060982D02*
X0082205Y0060982D01*
X0083090Y0062581D02*
X0083090Y0062581D01*
X0083803Y0062581D02*
X0090200Y0062581D01*
X0090922Y0064179D02*
X0084736Y0064179D01*
X0081492Y0064179D02*
X0081492Y0064179D01*
X0080778Y0065778D02*
X0080778Y0065778D01*
X0079893Y0065778D02*
X0079893Y0065778D01*
X0079179Y0064179D02*
X0079179Y0064179D01*
X0078295Y0067376D02*
X0078295Y0067376D01*
X0077752Y0068975D02*
X0071528Y0068975D01*
X0069130Y0067376D02*
X0076154Y0067376D01*
X0082376Y0067376D02*
X0082376Y0067376D01*
X0082919Y0068975D02*
X0091368Y0068975D01*
X0092363Y0075369D02*
X0058480Y0075369D01*
X0056881Y0073770D02*
X0070659Y0073770D01*
X0068391Y0072172D02*
X0055283Y0072172D01*
X0053684Y0070573D02*
X0065994Y0070573D01*
X0063596Y0068975D02*
X0052086Y0068975D01*
X0050487Y0067376D02*
X0061198Y0067376D01*
X0058800Y0065778D02*
X0049460Y0065778D01*
X0049060Y0072172D02*
X0023600Y0072172D01*
X0023600Y0073770D02*
X0024173Y0073770D01*
X0039093Y0080164D02*
X0044507Y0080164D01*
X0042909Y0078566D02*
X0040691Y0078566D01*
X0040800Y0076967D02*
X0042800Y0076967D01*
X0042800Y0075369D02*
X0040800Y0075369D01*
X0049427Y0073770D02*
X0050659Y0073770D01*
X0050800Y0075369D02*
X0052257Y0075369D01*
X0050800Y0076967D02*
X0053856Y0076967D01*
X0054600Y0078566D02*
X0050691Y0078566D01*
X0049093Y0080164D02*
X0054600Y0080164D01*
X0052657Y0056187D02*
X0069685Y0056187D01*
X0071284Y0054588D02*
X0053190Y0054588D01*
X0075245Y0054588D02*
X0091331Y0054588D01*
X0032427Y0225629D02*
X0023600Y0225629D01*
X0023600Y0227227D02*
X0030845Y0227227D01*
X0030183Y0228826D02*
X0023600Y0228826D01*
X0023600Y0230424D02*
X0029790Y0230424D01*
X0029790Y0232023D02*
X0023600Y0232023D01*
X0023600Y0233621D02*
X0030228Y0233621D01*
X0030936Y0235220D02*
X0023600Y0235220D01*
X0023600Y0236818D02*
X0032534Y0236818D01*
D19*
X0036800Y0216800D03*
X0056800Y0181800D03*
X0116800Y0191800D03*
X0146800Y0131800D03*
X0146800Y0121800D03*
X0171800Y0126800D03*
X0176800Y0121800D03*
X0191800Y0116800D03*
X0201800Y0131800D03*
X0191800Y0136800D03*
X0161800Y0076800D03*
X0153050Y0069300D03*
X0136800Y0061800D03*
X0056800Y0061800D03*
X0191800Y0196800D03*
M02*
