%
M48
M72
T01C0.02362
T02C0.03150
T03C0.03200
T04C0.04000
T05C0.07480
%
T01
X56800Y61800
X136800Y61800
X153050Y69300
X161800Y76800
X191800Y116800
X201800Y131800
X191800Y136800
X176800Y121800
X171800Y126800
X146800Y121800
X146800Y131800
X116800Y191800
X56800Y181800
X36800Y216800
X191800Y196800
T02
X52154Y219950
X56879Y223099
X56879Y216800
X52154Y213650
X56879Y210501
T03
X96800Y181800
X96800Y171800
X96800Y161800
X96800Y151800
X96800Y141800
X96800Y131800
X96800Y121800
X96800Y111800
X96800Y101800
X96800Y91800
X96800Y81800
X96800Y71800
X96800Y61800
X96800Y51800
X80336Y65336
X73264Y58264
X46800Y46800
X46800Y76800
X36800Y76800
X26800Y76800
X126800Y71800
X126800Y81800
X126800Y91800
X126800Y101800
X126800Y111800
X126800Y121800
X126800Y131800
X126800Y141800
X126800Y151800
X126800Y161800
X126800Y171800
X126800Y181800
X141800Y181800
X151800Y181800
X176800Y206800
X176800Y216800
X191800Y226800
X201800Y226800
X211800Y221800
X211800Y191800
X151800Y211800
X151800Y231800
X131800Y221800
X124300Y216800
X131800Y211800
X101800Y206800
X101800Y216800
X146800Y111800
X166800Y111800
X176800Y101800
X176800Y91800
X176800Y61800
X206800Y101800
X126800Y61800
X126800Y51800
T04
X76800Y91800
X76800Y101800
X76800Y111800
X26800Y111800
X26800Y121800
X26800Y131800
X26800Y141800
X26800Y151800
X26800Y161800
X26800Y171800
X26800Y181800
X76800Y231800
X86800Y231800
X96800Y231800
X211800Y181800
X211800Y171800
X211800Y161800
X211800Y151800
X211800Y141800
X211800Y131800
X211800Y121800
X211800Y111800
X211800Y91800
X211800Y81800
X211800Y71800
X211800Y61800
X211800Y51800
X196800Y51800
X186800Y51800
X176800Y51800
X161800Y51800
X151800Y51800
X141800Y51800
T05
X36800Y202430
X36800Y231170
M30
