G75*
%MOIN*%
%OFA0B0*%
%FSLAX25Y25*%
%IPPOS*%
%LPD*%
%AMOC8*
5,1,8,0,0,1.08239X$1,22.5*
%
%ADD10C,0.00000*%
%ADD11C,0.01040*%
%ADD12OC8,0.05200*%
%ADD13C,0.05200*%
%ADD14C,0.05200*%
%ADD15C,0.05150*%
%ADD16C,0.11220*%
%ADD17C,0.07400*%
%ADD18C,0.01600*%
%ADD19C,0.03562*%
D10*
X0021800Y0041800D02*
X0021800Y0238650D01*
X0218650Y0238650D01*
X0218650Y0041800D01*
X0021800Y0041800D01*
D11*
X0074823Y0058605D02*
X0075343Y0059125D01*
X0075343Y0057403D01*
X0074125Y0056185D01*
X0072403Y0056185D01*
X0071185Y0057403D01*
X0071185Y0059125D01*
X0072403Y0060343D01*
X0074125Y0060343D01*
X0075343Y0059125D01*
X0074563Y0058802D01*
X0074563Y0057726D01*
X0073802Y0056965D01*
X0072726Y0056965D01*
X0071965Y0057726D01*
X0071965Y0058802D01*
X0072726Y0059563D01*
X0073802Y0059563D01*
X0074563Y0058802D01*
X0073783Y0058479D01*
X0073783Y0058049D01*
X0073479Y0057745D01*
X0073049Y0057745D01*
X0072745Y0058049D01*
X0072745Y0058479D01*
X0073049Y0058783D01*
X0073479Y0058783D01*
X0073783Y0058479D01*
X0081895Y0065677D02*
X0082415Y0066197D01*
X0082415Y0064475D01*
X0081197Y0063257D01*
X0079475Y0063257D01*
X0078257Y0064475D01*
X0078257Y0066197D01*
X0079475Y0067415D01*
X0081197Y0067415D01*
X0082415Y0066197D01*
X0081635Y0065874D01*
X0081635Y0064798D01*
X0080874Y0064037D01*
X0079798Y0064037D01*
X0079037Y0064798D01*
X0079037Y0065874D01*
X0079798Y0066635D01*
X0080874Y0066635D01*
X0081635Y0065874D01*
X0080855Y0065551D01*
X0080855Y0065121D01*
X0080551Y0064817D01*
X0080121Y0064817D01*
X0079817Y0065121D01*
X0079817Y0065551D01*
X0080121Y0065855D01*
X0080551Y0065855D01*
X0080855Y0065551D01*
D12*
X0046800Y0076800D03*
X0036800Y0076800D03*
X0026800Y0076800D03*
X0046800Y0046800D03*
X0166800Y0111800D03*
X0176800Y0101800D03*
X0176800Y0091800D03*
X0176800Y0061800D03*
X0206800Y0101800D03*
X0151800Y0181800D03*
X0141800Y0181800D03*
X0131800Y0211800D03*
X0124300Y0216800D03*
X0131800Y0221800D03*
X0151800Y0211800D03*
X0176800Y0206800D03*
X0176800Y0216800D03*
X0191800Y0226800D03*
X0201800Y0226800D03*
X0211800Y0221800D03*
X0211800Y0191800D03*
X0101800Y0206800D03*
X0101800Y0216800D03*
D13*
X0151800Y0231800D03*
X0146800Y0111800D03*
D14*
X0129400Y0111800D02*
X0124200Y0111800D01*
X0124200Y0101800D02*
X0129400Y0101800D01*
X0129400Y0091800D02*
X0124200Y0091800D01*
X0124200Y0081800D02*
X0129400Y0081800D01*
X0129400Y0071800D02*
X0124200Y0071800D01*
X0124200Y0061800D02*
X0129400Y0061800D01*
X0129400Y0051800D02*
X0124200Y0051800D01*
X0099400Y0051800D02*
X0094200Y0051800D01*
X0094200Y0061800D02*
X0099400Y0061800D01*
X0099400Y0071800D02*
X0094200Y0071800D01*
X0094200Y0081800D02*
X0099400Y0081800D01*
X0099400Y0091800D02*
X0094200Y0091800D01*
X0094200Y0101800D02*
X0099400Y0101800D01*
X0099400Y0111800D02*
X0094200Y0111800D01*
X0094200Y0121800D02*
X0099400Y0121800D01*
X0099400Y0131800D02*
X0094200Y0131800D01*
X0094200Y0141800D02*
X0099400Y0141800D01*
X0099400Y0151800D02*
X0094200Y0151800D01*
X0094200Y0161800D02*
X0099400Y0161800D01*
X0099400Y0171800D02*
X0094200Y0171800D01*
X0094200Y0181800D02*
X0099400Y0181800D01*
X0124200Y0181800D02*
X0129400Y0181800D01*
X0129400Y0171800D02*
X0124200Y0171800D01*
X0124200Y0161800D02*
X0129400Y0161800D01*
X0129400Y0151800D02*
X0124200Y0151800D01*
X0124200Y0141800D02*
X0129400Y0141800D01*
X0129400Y0131800D02*
X0124200Y0131800D01*
X0124200Y0121800D02*
X0129400Y0121800D01*
D15*
X0056879Y0210501D03*
X0052154Y0213650D03*
X0056879Y0216800D03*
X0052154Y0219950D03*
X0056879Y0223099D03*
D16*
X0036800Y0231170D03*
X0036800Y0202430D03*
D17*
X0026800Y0181800D03*
X0026800Y0171800D03*
X0026800Y0161800D03*
X0026800Y0151800D03*
X0026800Y0141800D03*
X0026800Y0131800D03*
X0026800Y0121800D03*
X0026800Y0111800D03*
X0076800Y0111800D03*
X0076800Y0101800D03*
X0076800Y0091800D03*
X0141800Y0051800D03*
X0151800Y0051800D03*
X0161800Y0051800D03*
X0176800Y0051800D03*
X0186800Y0051800D03*
X0196800Y0051800D03*
X0211800Y0051800D03*
X0211800Y0061800D03*
X0211800Y0071800D03*
X0211800Y0081800D03*
X0211800Y0091800D03*
X0211800Y0111800D03*
X0211800Y0121800D03*
X0211800Y0131800D03*
X0211800Y0141800D03*
X0211800Y0151800D03*
X0211800Y0161800D03*
X0211800Y0171800D03*
X0211800Y0181800D03*
X0096800Y0231800D03*
X0086800Y0231800D03*
X0076800Y0231800D03*
D18*
X0086800Y0231800D02*
X0086800Y0226800D01*
X0081800Y0221800D01*
X0056879Y0223099D01*
X0052154Y0219950D02*
X0036800Y0216800D01*
X0052154Y0213650D02*
X0046800Y0201800D01*
X0046800Y0186800D01*
X0056800Y0181800D01*
X0071800Y0176800D02*
X0076800Y0171800D01*
X0096800Y0171800D01*
X0096800Y0161800D02*
X0081800Y0161800D01*
X0071800Y0166800D01*
X0026800Y0171800D01*
X0026800Y0181800D02*
X0071800Y0176800D01*
X0076800Y0176800D02*
X0106800Y0176800D01*
X0111800Y0171800D01*
X0111800Y0121800D01*
X0121800Y0111800D01*
X0126800Y0111800D01*
X0126800Y0101800D02*
X0146800Y0111800D01*
X0151800Y0106800D02*
X0151800Y0131800D01*
X0191800Y0151800D01*
X0211800Y0151800D01*
X0211800Y0141800D02*
X0191800Y0141800D01*
X0156800Y0126800D01*
X0156800Y0101800D01*
X0151800Y0096800D01*
X0151800Y0091800D01*
X0126800Y0071800D01*
X0126800Y0081800D02*
X0141800Y0091800D01*
X0141800Y0101800D01*
X0151800Y0106800D01*
X0161800Y0116800D02*
X0166800Y0121800D01*
X0176800Y0121800D01*
X0181800Y0116800D02*
X0191800Y0116800D01*
X0191800Y0136800D01*
X0201800Y0131800D02*
X0206800Y0101800D01*
X0211800Y0091800D01*
X0211800Y0081800D02*
X0196800Y0081800D01*
X0186800Y0091800D01*
X0176800Y0091800D01*
X0166800Y0091800D02*
X0166800Y0101800D01*
X0181800Y0116800D01*
X0161800Y0116800D02*
X0161800Y0091800D01*
X0126800Y0061800D01*
X0136800Y0061800D02*
X0166800Y0091800D01*
X0161800Y0076800D02*
X0196800Y0076800D01*
X0211800Y0061800D01*
X0211800Y0051800D02*
X0196800Y0066800D01*
X0153050Y0069300D01*
X0151800Y0061800D02*
X0176800Y0061800D01*
X0151800Y0061800D02*
X0141800Y0056800D01*
X0141800Y0051800D01*
X0136800Y0056800D01*
X0116800Y0056800D01*
X0111800Y0081800D01*
X0096800Y0081800D01*
X0071800Y0081800D01*
X0066800Y0086800D01*
X0066800Y0116800D01*
X0046800Y0136800D01*
X0026800Y0141800D01*
X0026800Y0131800D02*
X0041800Y0126800D01*
X0061800Y0106800D01*
X0061800Y0081800D01*
X0071800Y0071800D01*
X0096800Y0071800D01*
X0096800Y0061800D02*
X0073264Y0058264D01*
X0051800Y0081800D01*
X0051800Y0101800D01*
X0036800Y0116800D01*
X0026800Y0121800D01*
X0026800Y0151800D02*
X0051800Y0146800D01*
X0081800Y0121800D01*
X0096800Y0121800D01*
X0096800Y0131800D02*
X0081800Y0131800D01*
X0051800Y0156800D01*
X0026800Y0161800D01*
X0076800Y0176800D02*
X0066800Y0196800D01*
X0066800Y0211800D01*
X0061800Y0216800D01*
X0056879Y0216800D01*
X0096800Y0231800D02*
X0101800Y0216800D01*
X0124300Y0216800D01*
X0126800Y0206800D01*
X0136800Y0196800D01*
X0191800Y0196800D01*
X0191800Y0181800D02*
X0161800Y0161800D01*
X0126800Y0161800D01*
X0126800Y0151800D02*
X0161800Y0151800D01*
X0191800Y0171800D01*
X0211800Y0171800D01*
X0211800Y0181800D02*
X0191800Y0181800D01*
X0191800Y0161800D02*
X0161800Y0141800D01*
X0126800Y0141800D01*
X0126800Y0131800D02*
X0146800Y0131800D01*
X0146800Y0121800D01*
X0126800Y0121800D02*
X0116800Y0131800D01*
X0116800Y0191800D01*
X0126800Y0181800D02*
X0141800Y0181800D01*
X0176800Y0216800D02*
X0181800Y0226800D01*
X0191800Y0226800D01*
X0201800Y0226800D02*
X0206800Y0226800D01*
X0211800Y0221800D01*
X0176800Y0216800D02*
X0166800Y0231800D01*
X0151800Y0231800D01*
X0131800Y0231800D01*
X0131800Y0221800D01*
X0191800Y0161800D02*
X0211800Y0161800D01*
X0096800Y0101800D02*
X0086800Y0101800D01*
X0081800Y0111800D01*
X0076800Y0111800D01*
X0076800Y0091800D02*
X0096800Y0091800D01*
X0056800Y0061800D02*
X0026800Y0061800D01*
X0026800Y0076800D01*
X0036800Y0076800D02*
X0046800Y0076800D01*
D19*
X0056800Y0061800D03*
X0136800Y0061800D03*
X0153050Y0069300D03*
X0161800Y0076800D03*
X0191800Y0116800D03*
X0201800Y0131800D03*
X0191800Y0136800D03*
X0176800Y0121800D03*
X0171800Y0126800D03*
X0146800Y0121800D03*
X0146800Y0131800D03*
X0116800Y0191800D03*
X0056800Y0181800D03*
X0036800Y0216800D03*
X0191800Y0196800D03*
M02*
