G75*
%MOIN*%
%OFA0B0*%
%FSLAX25Y25*%
%IPPOS*%
%LPD*%
%AMOC8*
5,1,8,0,0,1.08239X$1,22.5*
%
%ADD10C,0.00000*%
%ADD11C,0.00600*%
%ADD12C,0.01000*%
%ADD13C,0.00500*%
%ADD14R,0.10000X0.02000*%
%ADD15R,0.02000X0.10000*%
%ADD16C,0.00400*%
%ADD17C,0.00800*%
%ADD18R,0.02000X0.01500*%
%ADD19R,0.01500X0.02000*%
D10*
X0021800Y0041800D02*
X0021800Y0238650D01*
X0218650Y0238650D01*
X0218650Y0041800D01*
X0021800Y0041800D01*
D11*
X0042800Y0052800D02*
X0042800Y0054300D01*
X0043300Y0054800D01*
X0043300Y0068800D01*
X0042800Y0069300D01*
X0042800Y0070800D01*
X0042802Y0070860D01*
X0042807Y0070921D01*
X0042816Y0070980D01*
X0042829Y0071039D01*
X0042845Y0071098D01*
X0042865Y0071155D01*
X0042888Y0071210D01*
X0042915Y0071265D01*
X0042944Y0071317D01*
X0042977Y0071368D01*
X0043013Y0071417D01*
X0043051Y0071463D01*
X0043093Y0071507D01*
X0043137Y0071549D01*
X0043183Y0071587D01*
X0043232Y0071623D01*
X0043283Y0071656D01*
X0043335Y0071685D01*
X0043390Y0071712D01*
X0043445Y0071735D01*
X0043502Y0071755D01*
X0043561Y0071771D01*
X0043620Y0071784D01*
X0043679Y0071793D01*
X0043740Y0071798D01*
X0043800Y0071800D01*
X0049800Y0071800D01*
X0049860Y0071798D01*
X0049921Y0071793D01*
X0049980Y0071784D01*
X0050039Y0071771D01*
X0050098Y0071755D01*
X0050155Y0071735D01*
X0050210Y0071712D01*
X0050265Y0071685D01*
X0050317Y0071656D01*
X0050368Y0071623D01*
X0050417Y0071587D01*
X0050463Y0071549D01*
X0050507Y0071507D01*
X0050549Y0071463D01*
X0050587Y0071417D01*
X0050623Y0071368D01*
X0050656Y0071317D01*
X0050685Y0071265D01*
X0050712Y0071210D01*
X0050735Y0071155D01*
X0050755Y0071098D01*
X0050771Y0071039D01*
X0050784Y0070980D01*
X0050793Y0070921D01*
X0050798Y0070860D01*
X0050800Y0070800D01*
X0050800Y0069300D01*
X0050300Y0068800D01*
X0050300Y0054800D01*
X0050800Y0054300D01*
X0050800Y0052800D01*
X0050798Y0052740D01*
X0050793Y0052679D01*
X0050784Y0052620D01*
X0050771Y0052561D01*
X0050755Y0052502D01*
X0050735Y0052445D01*
X0050712Y0052390D01*
X0050685Y0052335D01*
X0050656Y0052283D01*
X0050623Y0052232D01*
X0050587Y0052183D01*
X0050549Y0052137D01*
X0050507Y0052093D01*
X0050463Y0052051D01*
X0050417Y0052013D01*
X0050368Y0051977D01*
X0050317Y0051944D01*
X0050265Y0051915D01*
X0050210Y0051888D01*
X0050155Y0051865D01*
X0050098Y0051845D01*
X0050039Y0051829D01*
X0049980Y0051816D01*
X0049921Y0051807D01*
X0049860Y0051802D01*
X0049800Y0051800D01*
X0043800Y0051800D01*
X0043740Y0051802D01*
X0043679Y0051807D01*
X0043620Y0051816D01*
X0043561Y0051829D01*
X0043502Y0051845D01*
X0043445Y0051865D01*
X0043390Y0051888D01*
X0043335Y0051915D01*
X0043283Y0051944D01*
X0043232Y0051977D01*
X0043183Y0052013D01*
X0043137Y0052051D01*
X0043093Y0052093D01*
X0043051Y0052137D01*
X0043013Y0052183D01*
X0042977Y0052232D01*
X0042944Y0052283D01*
X0042915Y0052335D01*
X0042888Y0052390D01*
X0042865Y0052445D01*
X0042845Y0052502D01*
X0042829Y0052561D01*
X0042816Y0052620D01*
X0042807Y0052679D01*
X0042802Y0052740D01*
X0042800Y0052800D01*
X0067254Y0057911D02*
X0072911Y0052254D01*
X0072955Y0052212D01*
X0073001Y0052174D01*
X0073050Y0052138D01*
X0073101Y0052105D01*
X0073153Y0052076D01*
X0073208Y0052049D01*
X0073263Y0052026D01*
X0073320Y0052006D01*
X0073379Y0051990D01*
X0073438Y0051977D01*
X0073497Y0051968D01*
X0073558Y0051963D01*
X0073618Y0051961D01*
X0073678Y0051963D01*
X0073739Y0051968D01*
X0073798Y0051977D01*
X0073857Y0051990D01*
X0073916Y0052006D01*
X0073973Y0052026D01*
X0074028Y0052049D01*
X0074083Y0052076D01*
X0074135Y0052105D01*
X0074186Y0052138D01*
X0074235Y0052174D01*
X0074281Y0052212D01*
X0074325Y0052254D01*
X0086346Y0064275D01*
X0086388Y0064319D01*
X0086426Y0064365D01*
X0086462Y0064414D01*
X0086495Y0064465D01*
X0086524Y0064517D01*
X0086551Y0064572D01*
X0086574Y0064627D01*
X0086594Y0064684D01*
X0086610Y0064743D01*
X0086623Y0064802D01*
X0086632Y0064861D01*
X0086637Y0064922D01*
X0086639Y0064982D01*
X0086637Y0065042D01*
X0086632Y0065103D01*
X0086623Y0065162D01*
X0086610Y0065221D01*
X0086594Y0065280D01*
X0086574Y0065337D01*
X0086551Y0065392D01*
X0086524Y0065447D01*
X0086495Y0065499D01*
X0086462Y0065550D01*
X0086426Y0065599D01*
X0086388Y0065645D01*
X0086346Y0065689D01*
X0080689Y0071346D01*
X0080645Y0071388D01*
X0080599Y0071426D01*
X0080550Y0071462D01*
X0080499Y0071495D01*
X0080447Y0071524D01*
X0080392Y0071551D01*
X0080337Y0071574D01*
X0080280Y0071594D01*
X0080221Y0071610D01*
X0080162Y0071623D01*
X0080103Y0071632D01*
X0080042Y0071637D01*
X0079982Y0071639D01*
X0079922Y0071637D01*
X0079861Y0071632D01*
X0079802Y0071623D01*
X0079743Y0071610D01*
X0079684Y0071594D01*
X0079627Y0071574D01*
X0079572Y0071551D01*
X0079517Y0071524D01*
X0079465Y0071495D01*
X0079414Y0071462D01*
X0079365Y0071426D01*
X0079319Y0071388D01*
X0079275Y0071346D01*
X0067254Y0059325D01*
X0067212Y0059281D01*
X0067174Y0059235D01*
X0067138Y0059186D01*
X0067105Y0059135D01*
X0067076Y0059083D01*
X0067049Y0059028D01*
X0067026Y0058973D01*
X0067006Y0058916D01*
X0066990Y0058857D01*
X0066977Y0058798D01*
X0066968Y0058739D01*
X0066963Y0058678D01*
X0066961Y0058618D01*
X0066963Y0058558D01*
X0066968Y0058497D01*
X0066977Y0058438D01*
X0066990Y0058379D01*
X0067006Y0058320D01*
X0067026Y0058263D01*
X0067049Y0058208D01*
X0067076Y0058153D01*
X0067105Y0058101D01*
X0067138Y0058050D01*
X0067174Y0058001D01*
X0067212Y0057955D01*
X0067254Y0057911D01*
X0075739Y0060739D02*
X0076093Y0061093D01*
X0077507Y0062507D02*
X0077861Y0062861D01*
X0100300Y0046800D02*
X0123300Y0046800D01*
X0123300Y0186800D01*
X0115800Y0186800D01*
X0115798Y0186674D01*
X0115792Y0186549D01*
X0115782Y0186424D01*
X0115768Y0186299D01*
X0115751Y0186174D01*
X0115729Y0186050D01*
X0115704Y0185927D01*
X0115674Y0185805D01*
X0115641Y0185684D01*
X0115604Y0185564D01*
X0115564Y0185445D01*
X0115519Y0185328D01*
X0115471Y0185211D01*
X0115419Y0185097D01*
X0115364Y0184984D01*
X0115305Y0184873D01*
X0115243Y0184764D01*
X0115177Y0184657D01*
X0115108Y0184552D01*
X0115036Y0184449D01*
X0114961Y0184348D01*
X0114882Y0184250D01*
X0114800Y0184155D01*
X0114716Y0184062D01*
X0114628Y0183972D01*
X0114538Y0183884D01*
X0114445Y0183800D01*
X0114350Y0183718D01*
X0114252Y0183639D01*
X0114151Y0183564D01*
X0114048Y0183492D01*
X0113943Y0183423D01*
X0113836Y0183357D01*
X0113727Y0183295D01*
X0113616Y0183236D01*
X0113503Y0183181D01*
X0113389Y0183129D01*
X0113272Y0183081D01*
X0113155Y0183036D01*
X0113036Y0182996D01*
X0112916Y0182959D01*
X0112795Y0182926D01*
X0112673Y0182896D01*
X0112550Y0182871D01*
X0112426Y0182849D01*
X0112301Y0182832D01*
X0112176Y0182818D01*
X0112051Y0182808D01*
X0111926Y0182802D01*
X0111800Y0182800D01*
X0111674Y0182802D01*
X0111549Y0182808D01*
X0111424Y0182818D01*
X0111299Y0182832D01*
X0111174Y0182849D01*
X0111050Y0182871D01*
X0110927Y0182896D01*
X0110805Y0182926D01*
X0110684Y0182959D01*
X0110564Y0182996D01*
X0110445Y0183036D01*
X0110328Y0183081D01*
X0110211Y0183129D01*
X0110097Y0183181D01*
X0109984Y0183236D01*
X0109873Y0183295D01*
X0109764Y0183357D01*
X0109657Y0183423D01*
X0109552Y0183492D01*
X0109449Y0183564D01*
X0109348Y0183639D01*
X0109250Y0183718D01*
X0109155Y0183800D01*
X0109062Y0183884D01*
X0108972Y0183972D01*
X0108884Y0184062D01*
X0108800Y0184155D01*
X0108718Y0184250D01*
X0108639Y0184348D01*
X0108564Y0184449D01*
X0108492Y0184552D01*
X0108423Y0184657D01*
X0108357Y0184764D01*
X0108295Y0184873D01*
X0108236Y0184984D01*
X0108181Y0185097D01*
X0108129Y0185211D01*
X0108081Y0185328D01*
X0108036Y0185445D01*
X0107996Y0185564D01*
X0107959Y0185684D01*
X0107926Y0185805D01*
X0107896Y0185927D01*
X0107871Y0186050D01*
X0107849Y0186174D01*
X0107832Y0186299D01*
X0107818Y0186424D01*
X0107808Y0186549D01*
X0107802Y0186674D01*
X0107800Y0186800D01*
X0100300Y0186800D01*
X0100300Y0046800D01*
X0145300Y0102300D02*
X0142300Y0105300D01*
X0142300Y0118300D01*
X0145300Y0121300D01*
X0169800Y0121300D01*
X0169876Y0121298D01*
X0169952Y0121292D01*
X0170027Y0121283D01*
X0170102Y0121269D01*
X0170176Y0121252D01*
X0170249Y0121231D01*
X0170321Y0121207D01*
X0170392Y0121178D01*
X0170461Y0121147D01*
X0170528Y0121112D01*
X0170593Y0121073D01*
X0170657Y0121031D01*
X0170718Y0120986D01*
X0170777Y0120938D01*
X0170833Y0120887D01*
X0170887Y0120833D01*
X0170938Y0120777D01*
X0170986Y0120718D01*
X0171031Y0120657D01*
X0171073Y0120593D01*
X0171112Y0120528D01*
X0171147Y0120461D01*
X0171178Y0120392D01*
X0171207Y0120321D01*
X0171231Y0120249D01*
X0171252Y0120176D01*
X0171269Y0120102D01*
X0171283Y0120027D01*
X0171292Y0119952D01*
X0171298Y0119876D01*
X0171300Y0119800D01*
X0171300Y0103800D01*
X0171298Y0103724D01*
X0171292Y0103648D01*
X0171283Y0103573D01*
X0171269Y0103498D01*
X0171252Y0103424D01*
X0171231Y0103351D01*
X0171207Y0103279D01*
X0171178Y0103208D01*
X0171147Y0103139D01*
X0171112Y0103072D01*
X0171073Y0103007D01*
X0171031Y0102943D01*
X0170986Y0102882D01*
X0170938Y0102823D01*
X0170887Y0102767D01*
X0170833Y0102713D01*
X0170777Y0102662D01*
X0170718Y0102614D01*
X0170657Y0102569D01*
X0170593Y0102527D01*
X0170528Y0102488D01*
X0170461Y0102453D01*
X0170392Y0102422D01*
X0170321Y0102393D01*
X0170249Y0102369D01*
X0170176Y0102348D01*
X0170102Y0102331D01*
X0170027Y0102317D01*
X0169952Y0102308D01*
X0169876Y0102302D01*
X0169800Y0102300D01*
X0145300Y0102300D01*
X0154300Y0107000D02*
X0154300Y0111800D01*
X0154300Y0116600D01*
X0156300Y0116600D01*
X0156300Y0107000D01*
X0154300Y0107000D01*
X0154300Y0111800D02*
X0150800Y0111800D01*
X0149800Y0115900D02*
X0149800Y0118400D01*
X0151100Y0117200D02*
X0148500Y0117200D01*
X0159300Y0111800D02*
X0162800Y0111800D01*
X0181800Y0104800D02*
X0181800Y0098800D01*
X0181802Y0098740D01*
X0181807Y0098679D01*
X0181816Y0098620D01*
X0181829Y0098561D01*
X0181845Y0098502D01*
X0181865Y0098445D01*
X0181888Y0098390D01*
X0181915Y0098335D01*
X0181944Y0098283D01*
X0181977Y0098232D01*
X0182013Y0098183D01*
X0182051Y0098137D01*
X0182093Y0098093D01*
X0182137Y0098051D01*
X0182183Y0098013D01*
X0182232Y0097977D01*
X0182283Y0097944D01*
X0182335Y0097915D01*
X0182390Y0097888D01*
X0182445Y0097865D01*
X0182502Y0097845D01*
X0182561Y0097829D01*
X0182620Y0097816D01*
X0182679Y0097807D01*
X0182740Y0097802D01*
X0182800Y0097800D01*
X0184300Y0097800D01*
X0184800Y0098300D01*
X0198800Y0098300D01*
X0199300Y0097800D01*
X0200800Y0097800D01*
X0200860Y0097802D01*
X0200921Y0097807D01*
X0200980Y0097816D01*
X0201039Y0097829D01*
X0201098Y0097845D01*
X0201155Y0097865D01*
X0201210Y0097888D01*
X0201265Y0097915D01*
X0201317Y0097944D01*
X0201368Y0097977D01*
X0201417Y0098013D01*
X0201463Y0098051D01*
X0201507Y0098093D01*
X0201549Y0098137D01*
X0201587Y0098183D01*
X0201623Y0098232D01*
X0201656Y0098283D01*
X0201685Y0098335D01*
X0201712Y0098390D01*
X0201735Y0098445D01*
X0201755Y0098502D01*
X0201771Y0098561D01*
X0201784Y0098620D01*
X0201793Y0098679D01*
X0201798Y0098740D01*
X0201800Y0098800D01*
X0201800Y0104800D01*
X0201798Y0104860D01*
X0201793Y0104921D01*
X0201784Y0104980D01*
X0201771Y0105039D01*
X0201755Y0105098D01*
X0201735Y0105155D01*
X0201712Y0105210D01*
X0201685Y0105265D01*
X0201656Y0105317D01*
X0201623Y0105368D01*
X0201587Y0105417D01*
X0201549Y0105463D01*
X0201507Y0105507D01*
X0201463Y0105549D01*
X0201417Y0105587D01*
X0201368Y0105623D01*
X0201317Y0105656D01*
X0201265Y0105685D01*
X0201210Y0105712D01*
X0201155Y0105735D01*
X0201098Y0105755D01*
X0201039Y0105771D01*
X0200980Y0105784D01*
X0200921Y0105793D01*
X0200860Y0105798D01*
X0200800Y0105800D01*
X0199300Y0105800D01*
X0198800Y0105300D01*
X0184800Y0105300D01*
X0184300Y0105800D01*
X0182800Y0105800D01*
X0182740Y0105798D01*
X0182679Y0105793D01*
X0182620Y0105784D01*
X0182561Y0105771D01*
X0182502Y0105755D01*
X0182445Y0105735D01*
X0182390Y0105712D01*
X0182335Y0105685D01*
X0182283Y0105656D01*
X0182232Y0105623D01*
X0182183Y0105587D01*
X0182137Y0105549D01*
X0182093Y0105507D01*
X0182051Y0105463D01*
X0182013Y0105417D01*
X0181977Y0105368D01*
X0181944Y0105317D01*
X0181915Y0105265D01*
X0181888Y0105210D01*
X0181865Y0105155D01*
X0181845Y0105098D01*
X0181829Y0105039D01*
X0181816Y0104980D01*
X0181807Y0104921D01*
X0181802Y0104860D01*
X0181800Y0104800D01*
X0179800Y0086800D02*
X0173800Y0086800D01*
X0173740Y0086798D01*
X0173679Y0086793D01*
X0173620Y0086784D01*
X0173561Y0086771D01*
X0173502Y0086755D01*
X0173445Y0086735D01*
X0173390Y0086712D01*
X0173335Y0086685D01*
X0173283Y0086656D01*
X0173232Y0086623D01*
X0173183Y0086587D01*
X0173137Y0086549D01*
X0173093Y0086507D01*
X0173051Y0086463D01*
X0173013Y0086417D01*
X0172977Y0086368D01*
X0172944Y0086317D01*
X0172915Y0086265D01*
X0172888Y0086210D01*
X0172865Y0086155D01*
X0172845Y0086098D01*
X0172829Y0086039D01*
X0172816Y0085980D01*
X0172807Y0085921D01*
X0172802Y0085860D01*
X0172800Y0085800D01*
X0172800Y0084300D01*
X0173300Y0083800D01*
X0173300Y0069800D01*
X0172800Y0069300D01*
X0172800Y0067800D01*
X0172802Y0067740D01*
X0172807Y0067679D01*
X0172816Y0067620D01*
X0172829Y0067561D01*
X0172845Y0067502D01*
X0172865Y0067445D01*
X0172888Y0067390D01*
X0172915Y0067335D01*
X0172944Y0067283D01*
X0172977Y0067232D01*
X0173013Y0067183D01*
X0173051Y0067137D01*
X0173093Y0067093D01*
X0173137Y0067051D01*
X0173183Y0067013D01*
X0173232Y0066977D01*
X0173283Y0066944D01*
X0173335Y0066915D01*
X0173390Y0066888D01*
X0173445Y0066865D01*
X0173502Y0066845D01*
X0173561Y0066829D01*
X0173620Y0066816D01*
X0173679Y0066807D01*
X0173740Y0066802D01*
X0173800Y0066800D01*
X0179800Y0066800D01*
X0179860Y0066802D01*
X0179921Y0066807D01*
X0179980Y0066816D01*
X0180039Y0066829D01*
X0180098Y0066845D01*
X0180155Y0066865D01*
X0180210Y0066888D01*
X0180265Y0066915D01*
X0180317Y0066944D01*
X0180368Y0066977D01*
X0180417Y0067013D01*
X0180463Y0067051D01*
X0180507Y0067093D01*
X0180549Y0067137D01*
X0180587Y0067183D01*
X0180623Y0067232D01*
X0180656Y0067283D01*
X0180685Y0067335D01*
X0180712Y0067390D01*
X0180735Y0067445D01*
X0180755Y0067502D01*
X0180771Y0067561D01*
X0180784Y0067620D01*
X0180793Y0067679D01*
X0180798Y0067740D01*
X0180800Y0067800D01*
X0180800Y0069300D01*
X0180300Y0069800D01*
X0180300Y0083800D01*
X0180800Y0084300D01*
X0180800Y0085800D01*
X0180798Y0085860D01*
X0180793Y0085921D01*
X0180784Y0085980D01*
X0180771Y0086039D01*
X0180755Y0086098D01*
X0180735Y0086155D01*
X0180712Y0086210D01*
X0180685Y0086265D01*
X0180656Y0086317D01*
X0180623Y0086368D01*
X0180587Y0086417D01*
X0180549Y0086463D01*
X0180507Y0086507D01*
X0180463Y0086549D01*
X0180417Y0086587D01*
X0180368Y0086623D01*
X0180317Y0086656D01*
X0180265Y0086685D01*
X0180210Y0086712D01*
X0180155Y0086735D01*
X0180098Y0086755D01*
X0180039Y0086771D01*
X0179980Y0086784D01*
X0179921Y0086793D01*
X0179860Y0086798D01*
X0179800Y0086800D01*
X0155300Y0176800D02*
X0138300Y0176800D01*
X0138240Y0176802D01*
X0138179Y0176807D01*
X0138120Y0176816D01*
X0138061Y0176829D01*
X0138002Y0176845D01*
X0137945Y0176865D01*
X0137890Y0176888D01*
X0137835Y0176915D01*
X0137783Y0176944D01*
X0137732Y0176977D01*
X0137683Y0177013D01*
X0137637Y0177051D01*
X0137593Y0177093D01*
X0137551Y0177137D01*
X0137513Y0177183D01*
X0137477Y0177232D01*
X0137444Y0177283D01*
X0137415Y0177335D01*
X0137388Y0177390D01*
X0137365Y0177445D01*
X0137345Y0177502D01*
X0137329Y0177561D01*
X0137316Y0177620D01*
X0137307Y0177679D01*
X0137302Y0177740D01*
X0137300Y0177800D01*
X0137300Y0185800D01*
X0137302Y0185860D01*
X0137307Y0185921D01*
X0137316Y0185980D01*
X0137329Y0186039D01*
X0137345Y0186098D01*
X0137365Y0186155D01*
X0137388Y0186210D01*
X0137415Y0186265D01*
X0137444Y0186317D01*
X0137477Y0186368D01*
X0137513Y0186417D01*
X0137551Y0186463D01*
X0137593Y0186507D01*
X0137637Y0186549D01*
X0137683Y0186587D01*
X0137732Y0186623D01*
X0137783Y0186656D01*
X0137835Y0186685D01*
X0137890Y0186712D01*
X0137945Y0186735D01*
X0138002Y0186755D01*
X0138061Y0186771D01*
X0138120Y0186784D01*
X0138179Y0186793D01*
X0138240Y0186798D01*
X0138300Y0186800D01*
X0155300Y0186800D01*
X0155360Y0186798D01*
X0155421Y0186793D01*
X0155480Y0186784D01*
X0155539Y0186771D01*
X0155598Y0186755D01*
X0155655Y0186735D01*
X0155710Y0186712D01*
X0155765Y0186685D01*
X0155817Y0186656D01*
X0155868Y0186623D01*
X0155917Y0186587D01*
X0155963Y0186549D01*
X0156007Y0186507D01*
X0156049Y0186463D01*
X0156087Y0186417D01*
X0156123Y0186368D01*
X0156156Y0186317D01*
X0156185Y0186265D01*
X0156212Y0186210D01*
X0156235Y0186155D01*
X0156255Y0186098D01*
X0156271Y0186039D01*
X0156284Y0185980D01*
X0156293Y0185921D01*
X0156298Y0185860D01*
X0156300Y0185800D01*
X0156300Y0177800D01*
X0156298Y0177740D01*
X0156293Y0177679D01*
X0156284Y0177620D01*
X0156271Y0177561D01*
X0156255Y0177502D01*
X0156235Y0177445D01*
X0156212Y0177390D01*
X0156185Y0177335D01*
X0156156Y0177283D01*
X0156123Y0177232D01*
X0156087Y0177183D01*
X0156049Y0177137D01*
X0156007Y0177093D01*
X0155963Y0177051D01*
X0155917Y0177013D01*
X0155868Y0176977D01*
X0155817Y0176944D01*
X0155765Y0176915D01*
X0155710Y0176888D01*
X0155655Y0176865D01*
X0155598Y0176845D01*
X0155539Y0176829D01*
X0155480Y0176816D01*
X0155421Y0176807D01*
X0155360Y0176802D01*
X0155300Y0176800D01*
X0148300Y0181800D02*
X0147800Y0181800D01*
X0145800Y0181800D02*
X0145300Y0181800D01*
X0143800Y0207300D02*
X0159800Y0207300D01*
X0159876Y0207302D01*
X0159952Y0207308D01*
X0160027Y0207317D01*
X0160102Y0207331D01*
X0160176Y0207348D01*
X0160249Y0207369D01*
X0160321Y0207393D01*
X0160392Y0207422D01*
X0160461Y0207453D01*
X0160528Y0207488D01*
X0160593Y0207527D01*
X0160657Y0207569D01*
X0160718Y0207614D01*
X0160777Y0207662D01*
X0160833Y0207713D01*
X0160887Y0207767D01*
X0160938Y0207823D01*
X0160986Y0207882D01*
X0161031Y0207943D01*
X0161073Y0208007D01*
X0161112Y0208072D01*
X0161147Y0208139D01*
X0161178Y0208208D01*
X0161207Y0208279D01*
X0161231Y0208351D01*
X0161252Y0208424D01*
X0161269Y0208498D01*
X0161283Y0208573D01*
X0161292Y0208648D01*
X0161298Y0208724D01*
X0161300Y0208800D01*
X0161300Y0233300D01*
X0158300Y0236300D01*
X0145300Y0236300D01*
X0142300Y0233300D01*
X0142300Y0208800D01*
X0142302Y0208724D01*
X0142308Y0208648D01*
X0142317Y0208573D01*
X0142331Y0208498D01*
X0142348Y0208424D01*
X0142369Y0208351D01*
X0142393Y0208279D01*
X0142422Y0208208D01*
X0142453Y0208139D01*
X0142488Y0208072D01*
X0142527Y0208007D01*
X0142569Y0207943D01*
X0142614Y0207882D01*
X0142662Y0207823D01*
X0142713Y0207767D01*
X0142767Y0207713D01*
X0142823Y0207662D01*
X0142882Y0207614D01*
X0142943Y0207569D01*
X0143007Y0207527D01*
X0143072Y0207488D01*
X0143139Y0207453D01*
X0143208Y0207422D01*
X0143279Y0207393D01*
X0143351Y0207369D01*
X0143424Y0207348D01*
X0143498Y0207331D01*
X0143573Y0207317D01*
X0143648Y0207308D01*
X0143724Y0207302D01*
X0143800Y0207300D01*
X0151800Y0215800D02*
X0151800Y0219300D01*
X0151800Y0224300D02*
X0156600Y0224300D01*
X0156600Y0222300D01*
X0147000Y0222300D01*
X0147000Y0224300D01*
X0151800Y0224300D01*
X0151800Y0227800D01*
X0155900Y0228800D02*
X0158400Y0228800D01*
X0157200Y0227500D02*
X0157200Y0230100D01*
X0171800Y0220300D02*
X0171800Y0203300D01*
X0171802Y0203240D01*
X0171807Y0203179D01*
X0171816Y0203120D01*
X0171829Y0203061D01*
X0171845Y0203002D01*
X0171865Y0202945D01*
X0171888Y0202890D01*
X0171915Y0202835D01*
X0171944Y0202783D01*
X0171977Y0202732D01*
X0172013Y0202683D01*
X0172051Y0202637D01*
X0172093Y0202593D01*
X0172137Y0202551D01*
X0172183Y0202513D01*
X0172232Y0202477D01*
X0172283Y0202444D01*
X0172335Y0202415D01*
X0172390Y0202388D01*
X0172445Y0202365D01*
X0172502Y0202345D01*
X0172561Y0202329D01*
X0172620Y0202316D01*
X0172679Y0202307D01*
X0172740Y0202302D01*
X0172800Y0202300D01*
X0180800Y0202300D01*
X0180860Y0202302D01*
X0180921Y0202307D01*
X0180980Y0202316D01*
X0181039Y0202329D01*
X0181098Y0202345D01*
X0181155Y0202365D01*
X0181210Y0202388D01*
X0181265Y0202415D01*
X0181317Y0202444D01*
X0181368Y0202477D01*
X0181417Y0202513D01*
X0181463Y0202551D01*
X0181507Y0202593D01*
X0181549Y0202637D01*
X0181587Y0202683D01*
X0181623Y0202732D01*
X0181656Y0202783D01*
X0181685Y0202835D01*
X0181712Y0202890D01*
X0181735Y0202945D01*
X0181755Y0203002D01*
X0181771Y0203061D01*
X0181784Y0203120D01*
X0181793Y0203179D01*
X0181798Y0203240D01*
X0181800Y0203300D01*
X0181800Y0220300D01*
X0181798Y0220360D01*
X0181793Y0220421D01*
X0181784Y0220480D01*
X0181771Y0220539D01*
X0181755Y0220598D01*
X0181735Y0220655D01*
X0181712Y0220710D01*
X0181685Y0220765D01*
X0181656Y0220817D01*
X0181623Y0220868D01*
X0181587Y0220917D01*
X0181549Y0220963D01*
X0181507Y0221007D01*
X0181463Y0221049D01*
X0181417Y0221087D01*
X0181368Y0221123D01*
X0181317Y0221156D01*
X0181265Y0221185D01*
X0181210Y0221212D01*
X0181155Y0221235D01*
X0181098Y0221255D01*
X0181039Y0221271D01*
X0180980Y0221284D01*
X0180921Y0221293D01*
X0180860Y0221298D01*
X0180800Y0221300D01*
X0172800Y0221300D01*
X0172740Y0221298D01*
X0172679Y0221293D01*
X0172620Y0221284D01*
X0172561Y0221271D01*
X0172502Y0221255D01*
X0172445Y0221235D01*
X0172390Y0221212D01*
X0172335Y0221185D01*
X0172283Y0221156D01*
X0172232Y0221123D01*
X0172183Y0221087D01*
X0172137Y0221049D01*
X0172093Y0221007D01*
X0172051Y0220963D01*
X0172013Y0220917D01*
X0171977Y0220868D01*
X0171944Y0220817D01*
X0171915Y0220765D01*
X0171888Y0220710D01*
X0171865Y0220655D01*
X0171845Y0220598D01*
X0171829Y0220539D01*
X0171816Y0220480D01*
X0171807Y0220421D01*
X0171802Y0220360D01*
X0171800Y0220300D01*
X0176800Y0213300D02*
X0176800Y0212800D01*
X0176800Y0210800D02*
X0176800Y0210300D01*
X0196800Y0232800D02*
X0196954Y0232798D01*
X0197108Y0232792D01*
X0197262Y0232782D01*
X0197416Y0232768D01*
X0197569Y0232751D01*
X0197721Y0232729D01*
X0197873Y0232703D01*
X0198025Y0232674D01*
X0198175Y0232640D01*
X0198325Y0232603D01*
X0198473Y0232562D01*
X0198621Y0232517D01*
X0198767Y0232468D01*
X0198912Y0232416D01*
X0199055Y0232360D01*
X0199198Y0232300D01*
X0199338Y0232237D01*
X0199477Y0232170D01*
X0199614Y0232099D01*
X0199749Y0232025D01*
X0199882Y0231948D01*
X0200014Y0231867D01*
X0200143Y0231783D01*
X0200270Y0231695D01*
X0200394Y0231604D01*
X0200516Y0231511D01*
X0200636Y0231413D01*
X0200753Y0231313D01*
X0200868Y0231210D01*
X0200980Y0231104D01*
X0201089Y0230996D01*
X0201195Y0230884D01*
X0201299Y0230770D01*
X0201399Y0230653D01*
X0201497Y0230534D01*
X0201591Y0230412D01*
X0201682Y0230287D01*
X0196800Y0220800D02*
X0196648Y0220802D01*
X0196497Y0220808D01*
X0196346Y0220817D01*
X0196194Y0220831D01*
X0196044Y0220848D01*
X0195894Y0220869D01*
X0195744Y0220894D01*
X0195595Y0220922D01*
X0195447Y0220955D01*
X0195300Y0220991D01*
X0195153Y0221030D01*
X0195008Y0221074D01*
X0194864Y0221121D01*
X0194721Y0221172D01*
X0194580Y0221226D01*
X0194439Y0221284D01*
X0194301Y0221345D01*
X0194164Y0221410D01*
X0194028Y0221479D01*
X0193895Y0221550D01*
X0193763Y0221625D01*
X0193633Y0221704D01*
X0193506Y0221785D01*
X0193380Y0221870D01*
X0193256Y0221958D01*
X0193135Y0222049D01*
X0193016Y0222143D01*
X0192900Y0222241D01*
X0192786Y0222341D01*
X0192674Y0222443D01*
X0192566Y0222549D01*
X0192460Y0222657D01*
X0192356Y0222768D01*
X0192256Y0222882D01*
X0192158Y0222998D01*
X0192064Y0223117D01*
X0196800Y0220800D02*
X0196952Y0220802D01*
X0197103Y0220808D01*
X0197254Y0220817D01*
X0197406Y0220831D01*
X0197556Y0220848D01*
X0197706Y0220869D01*
X0197856Y0220894D01*
X0198005Y0220922D01*
X0198153Y0220955D01*
X0198300Y0220991D01*
X0198447Y0221030D01*
X0198592Y0221074D01*
X0198736Y0221121D01*
X0198879Y0221172D01*
X0199020Y0221226D01*
X0199161Y0221284D01*
X0199299Y0221345D01*
X0199436Y0221410D01*
X0199572Y0221479D01*
X0199705Y0221550D01*
X0199837Y0221625D01*
X0199967Y0221704D01*
X0200094Y0221785D01*
X0200220Y0221870D01*
X0200344Y0221958D01*
X0200465Y0222049D01*
X0200584Y0222143D01*
X0200700Y0222241D01*
X0200814Y0222341D01*
X0200926Y0222443D01*
X0201034Y0222549D01*
X0201140Y0222657D01*
X0201244Y0222768D01*
X0201344Y0222882D01*
X0201442Y0222998D01*
X0201536Y0223117D01*
X0196800Y0232800D02*
X0196650Y0232798D01*
X0196499Y0232792D01*
X0196349Y0232783D01*
X0196200Y0232770D01*
X0196050Y0232753D01*
X0195901Y0232732D01*
X0195753Y0232708D01*
X0195605Y0232680D01*
X0195458Y0232648D01*
X0195312Y0232613D01*
X0195167Y0232573D01*
X0195023Y0232531D01*
X0194880Y0232484D01*
X0194738Y0232434D01*
X0194597Y0232381D01*
X0194458Y0232324D01*
X0194320Y0232264D01*
X0194184Y0232200D01*
X0194050Y0232133D01*
X0193917Y0232062D01*
X0193786Y0231988D01*
X0193657Y0231911D01*
X0193530Y0231830D01*
X0193405Y0231747D01*
X0193282Y0231660D01*
X0193161Y0231571D01*
X0193043Y0231478D01*
X0192927Y0231382D01*
X0192813Y0231284D01*
X0192702Y0231183D01*
X0192593Y0231078D01*
X0192488Y0230972D01*
X0192384Y0230862D01*
X0192284Y0230750D01*
X0192186Y0230636D01*
X0192092Y0230519D01*
X0192000Y0230400D01*
X0207800Y0215800D02*
X0207800Y0214300D01*
X0208300Y0213800D01*
X0208300Y0199800D01*
X0207800Y0199300D01*
X0207800Y0197800D01*
X0207802Y0197740D01*
X0207807Y0197679D01*
X0207816Y0197620D01*
X0207829Y0197561D01*
X0207845Y0197502D01*
X0207865Y0197445D01*
X0207888Y0197390D01*
X0207915Y0197335D01*
X0207944Y0197283D01*
X0207977Y0197232D01*
X0208013Y0197183D01*
X0208051Y0197137D01*
X0208093Y0197093D01*
X0208137Y0197051D01*
X0208183Y0197013D01*
X0208232Y0196977D01*
X0208283Y0196944D01*
X0208335Y0196915D01*
X0208390Y0196888D01*
X0208445Y0196865D01*
X0208502Y0196845D01*
X0208561Y0196829D01*
X0208620Y0196816D01*
X0208679Y0196807D01*
X0208740Y0196802D01*
X0208800Y0196800D01*
X0214800Y0196800D01*
X0214860Y0196802D01*
X0214921Y0196807D01*
X0214980Y0196816D01*
X0215039Y0196829D01*
X0215098Y0196845D01*
X0215155Y0196865D01*
X0215210Y0196888D01*
X0215265Y0196915D01*
X0215317Y0196944D01*
X0215368Y0196977D01*
X0215417Y0197013D01*
X0215463Y0197051D01*
X0215507Y0197093D01*
X0215549Y0197137D01*
X0215587Y0197183D01*
X0215623Y0197232D01*
X0215656Y0197283D01*
X0215685Y0197335D01*
X0215712Y0197390D01*
X0215735Y0197445D01*
X0215755Y0197502D01*
X0215771Y0197561D01*
X0215784Y0197620D01*
X0215793Y0197679D01*
X0215798Y0197740D01*
X0215800Y0197800D01*
X0215800Y0199300D01*
X0215300Y0199800D01*
X0215300Y0213800D01*
X0215800Y0214300D01*
X0215800Y0215800D01*
X0215798Y0215860D01*
X0215793Y0215921D01*
X0215784Y0215980D01*
X0215771Y0216039D01*
X0215755Y0216098D01*
X0215735Y0216155D01*
X0215712Y0216210D01*
X0215685Y0216265D01*
X0215656Y0216317D01*
X0215623Y0216368D01*
X0215587Y0216417D01*
X0215549Y0216463D01*
X0215507Y0216507D01*
X0215463Y0216549D01*
X0215417Y0216587D01*
X0215368Y0216623D01*
X0215317Y0216656D01*
X0215265Y0216685D01*
X0215210Y0216712D01*
X0215155Y0216735D01*
X0215098Y0216755D01*
X0215039Y0216771D01*
X0214980Y0216784D01*
X0214921Y0216793D01*
X0214860Y0216798D01*
X0214800Y0216800D01*
X0208800Y0216800D01*
X0208740Y0216798D01*
X0208679Y0216793D01*
X0208620Y0216784D01*
X0208561Y0216771D01*
X0208502Y0216755D01*
X0208445Y0216735D01*
X0208390Y0216712D01*
X0208335Y0216685D01*
X0208283Y0216656D01*
X0208232Y0216623D01*
X0208183Y0216587D01*
X0208137Y0216549D01*
X0208093Y0216507D01*
X0208051Y0216463D01*
X0208013Y0216417D01*
X0207977Y0216368D01*
X0207944Y0216317D01*
X0207915Y0216265D01*
X0207888Y0216210D01*
X0207865Y0216155D01*
X0207845Y0216098D01*
X0207829Y0216039D01*
X0207816Y0215980D01*
X0207807Y0215921D01*
X0207802Y0215860D01*
X0207800Y0215800D01*
X0106800Y0220300D02*
X0106800Y0203300D01*
X0106798Y0203240D01*
X0106793Y0203179D01*
X0106784Y0203120D01*
X0106771Y0203061D01*
X0106755Y0203002D01*
X0106735Y0202945D01*
X0106712Y0202890D01*
X0106685Y0202835D01*
X0106656Y0202783D01*
X0106623Y0202732D01*
X0106587Y0202683D01*
X0106549Y0202637D01*
X0106507Y0202593D01*
X0106463Y0202551D01*
X0106417Y0202513D01*
X0106368Y0202477D01*
X0106317Y0202444D01*
X0106265Y0202415D01*
X0106210Y0202388D01*
X0106155Y0202365D01*
X0106098Y0202345D01*
X0106039Y0202329D01*
X0105980Y0202316D01*
X0105921Y0202307D01*
X0105860Y0202302D01*
X0105800Y0202300D01*
X0097800Y0202300D01*
X0097740Y0202302D01*
X0097679Y0202307D01*
X0097620Y0202316D01*
X0097561Y0202329D01*
X0097502Y0202345D01*
X0097445Y0202365D01*
X0097390Y0202388D01*
X0097335Y0202415D01*
X0097283Y0202444D01*
X0097232Y0202477D01*
X0097183Y0202513D01*
X0097137Y0202551D01*
X0097093Y0202593D01*
X0097051Y0202637D01*
X0097013Y0202683D01*
X0096977Y0202732D01*
X0096944Y0202783D01*
X0096915Y0202835D01*
X0096888Y0202890D01*
X0096865Y0202945D01*
X0096845Y0203002D01*
X0096829Y0203061D01*
X0096816Y0203120D01*
X0096807Y0203179D01*
X0096802Y0203240D01*
X0096800Y0203300D01*
X0096800Y0220300D01*
X0096802Y0220360D01*
X0096807Y0220421D01*
X0096816Y0220480D01*
X0096829Y0220539D01*
X0096845Y0220598D01*
X0096865Y0220655D01*
X0096888Y0220710D01*
X0096915Y0220765D01*
X0096944Y0220817D01*
X0096977Y0220868D01*
X0097013Y0220917D01*
X0097051Y0220963D01*
X0097093Y0221007D01*
X0097137Y0221049D01*
X0097183Y0221087D01*
X0097232Y0221123D01*
X0097283Y0221156D01*
X0097335Y0221185D01*
X0097390Y0221212D01*
X0097445Y0221235D01*
X0097502Y0221255D01*
X0097561Y0221271D01*
X0097620Y0221284D01*
X0097679Y0221293D01*
X0097740Y0221298D01*
X0097800Y0221300D01*
X0105800Y0221300D01*
X0105860Y0221298D01*
X0105921Y0221293D01*
X0105980Y0221284D01*
X0106039Y0221271D01*
X0106098Y0221255D01*
X0106155Y0221235D01*
X0106210Y0221212D01*
X0106265Y0221185D01*
X0106317Y0221156D01*
X0106368Y0221123D01*
X0106417Y0221087D01*
X0106463Y0221049D01*
X0106507Y0221007D01*
X0106549Y0220963D01*
X0106587Y0220917D01*
X0106623Y0220868D01*
X0106656Y0220817D01*
X0106685Y0220765D01*
X0106712Y0220710D01*
X0106735Y0220655D01*
X0106755Y0220598D01*
X0106771Y0220539D01*
X0106784Y0220480D01*
X0106793Y0220421D01*
X0106798Y0220360D01*
X0106800Y0220300D01*
X0101800Y0213300D02*
X0101800Y0212800D01*
X0101800Y0210800D02*
X0101800Y0210300D01*
X0031800Y0070800D02*
X0031648Y0070802D01*
X0031497Y0070808D01*
X0031346Y0070817D01*
X0031194Y0070831D01*
X0031044Y0070848D01*
X0030894Y0070869D01*
X0030744Y0070894D01*
X0030595Y0070922D01*
X0030447Y0070955D01*
X0030300Y0070991D01*
X0030153Y0071030D01*
X0030008Y0071074D01*
X0029864Y0071121D01*
X0029721Y0071172D01*
X0029580Y0071226D01*
X0029439Y0071284D01*
X0029301Y0071345D01*
X0029164Y0071410D01*
X0029028Y0071479D01*
X0028895Y0071550D01*
X0028763Y0071625D01*
X0028633Y0071704D01*
X0028506Y0071785D01*
X0028380Y0071870D01*
X0028256Y0071958D01*
X0028135Y0072049D01*
X0028016Y0072143D01*
X0027900Y0072241D01*
X0027786Y0072341D01*
X0027674Y0072443D01*
X0027566Y0072549D01*
X0027460Y0072657D01*
X0027356Y0072768D01*
X0027256Y0072882D01*
X0027158Y0072998D01*
X0027064Y0073117D01*
X0031800Y0082800D02*
X0031954Y0082798D01*
X0032108Y0082792D01*
X0032262Y0082782D01*
X0032416Y0082768D01*
X0032569Y0082751D01*
X0032721Y0082729D01*
X0032873Y0082703D01*
X0033025Y0082674D01*
X0033175Y0082640D01*
X0033325Y0082603D01*
X0033473Y0082562D01*
X0033621Y0082517D01*
X0033767Y0082468D01*
X0033912Y0082416D01*
X0034055Y0082360D01*
X0034198Y0082300D01*
X0034338Y0082237D01*
X0034477Y0082170D01*
X0034614Y0082099D01*
X0034749Y0082025D01*
X0034882Y0081948D01*
X0035014Y0081867D01*
X0035143Y0081783D01*
X0035270Y0081695D01*
X0035394Y0081604D01*
X0035516Y0081511D01*
X0035636Y0081413D01*
X0035753Y0081313D01*
X0035868Y0081210D01*
X0035980Y0081104D01*
X0036089Y0080996D01*
X0036195Y0080884D01*
X0036299Y0080770D01*
X0036399Y0080653D01*
X0036497Y0080534D01*
X0036591Y0080412D01*
X0036682Y0080287D01*
X0031800Y0082800D02*
X0031650Y0082798D01*
X0031499Y0082792D01*
X0031349Y0082783D01*
X0031200Y0082770D01*
X0031050Y0082753D01*
X0030901Y0082732D01*
X0030753Y0082708D01*
X0030605Y0082680D01*
X0030458Y0082648D01*
X0030312Y0082613D01*
X0030167Y0082573D01*
X0030023Y0082531D01*
X0029880Y0082484D01*
X0029738Y0082434D01*
X0029597Y0082381D01*
X0029458Y0082324D01*
X0029320Y0082264D01*
X0029184Y0082200D01*
X0029050Y0082133D01*
X0028917Y0082062D01*
X0028786Y0081988D01*
X0028657Y0081911D01*
X0028530Y0081830D01*
X0028405Y0081747D01*
X0028282Y0081660D01*
X0028161Y0081571D01*
X0028043Y0081478D01*
X0027927Y0081382D01*
X0027813Y0081284D01*
X0027702Y0081183D01*
X0027593Y0081078D01*
X0027488Y0080972D01*
X0027384Y0080862D01*
X0027284Y0080750D01*
X0027186Y0080636D01*
X0027092Y0080519D01*
X0027000Y0080400D01*
X0031800Y0070800D02*
X0031952Y0070802D01*
X0032103Y0070808D01*
X0032254Y0070817D01*
X0032406Y0070831D01*
X0032556Y0070848D01*
X0032706Y0070869D01*
X0032856Y0070894D01*
X0033005Y0070922D01*
X0033153Y0070955D01*
X0033300Y0070991D01*
X0033447Y0071030D01*
X0033592Y0071074D01*
X0033736Y0071121D01*
X0033879Y0071172D01*
X0034020Y0071226D01*
X0034161Y0071284D01*
X0034299Y0071345D01*
X0034436Y0071410D01*
X0034572Y0071479D01*
X0034705Y0071550D01*
X0034837Y0071625D01*
X0034967Y0071704D01*
X0035094Y0071785D01*
X0035220Y0071870D01*
X0035344Y0071958D01*
X0035465Y0072049D01*
X0035584Y0072143D01*
X0035700Y0072241D01*
X0035814Y0072341D01*
X0035926Y0072443D01*
X0036034Y0072549D01*
X0036140Y0072657D01*
X0036244Y0072768D01*
X0036344Y0072882D01*
X0036442Y0072998D01*
X0036536Y0073117D01*
D12*
X0031800Y0084800D02*
X0031608Y0084798D01*
X0031416Y0084791D01*
X0031224Y0084779D01*
X0031032Y0084763D01*
X0030841Y0084742D01*
X0030651Y0084717D01*
X0030461Y0084687D01*
X0030272Y0084653D01*
X0030084Y0084614D01*
X0029897Y0084570D01*
X0029711Y0084522D01*
X0029526Y0084470D01*
X0029342Y0084413D01*
X0029160Y0084352D01*
X0028980Y0084286D01*
X0028801Y0084216D01*
X0028623Y0084142D01*
X0028448Y0084064D01*
X0028274Y0083981D01*
X0028103Y0083894D01*
X0027934Y0083804D01*
X0027767Y0083709D01*
X0027602Y0083610D01*
X0027439Y0083507D01*
X0027280Y0083400D01*
X0027122Y0083290D01*
X0026968Y0083176D01*
X0026816Y0083058D01*
X0026667Y0082936D01*
X0026521Y0082811D01*
X0026379Y0082683D01*
X0026239Y0082551D01*
X0026102Y0082416D01*
X0025969Y0082277D01*
X0025839Y0082136D01*
X0025713Y0081991D01*
X0025590Y0081843D01*
X0025471Y0081693D01*
X0025355Y0081539D01*
X0025243Y0081383D01*
X0025135Y0081224D01*
X0025030Y0081063D01*
X0024930Y0080899D01*
X0024834Y0080733D01*
X0024741Y0080565D01*
X0024854Y0072831D02*
X0024953Y0072662D01*
X0025057Y0072496D01*
X0025164Y0072332D01*
X0025275Y0072171D01*
X0025390Y0072013D01*
X0025509Y0071858D01*
X0025632Y0071705D01*
X0025758Y0071556D01*
X0025888Y0071410D01*
X0026022Y0071267D01*
X0026159Y0071127D01*
X0026299Y0070991D01*
X0026443Y0070858D01*
X0026590Y0070729D01*
X0026740Y0070603D01*
X0026893Y0070482D01*
X0027049Y0070363D01*
X0027208Y0070249D01*
X0027369Y0070139D01*
X0027534Y0070033D01*
X0027700Y0069930D01*
X0027870Y0069832D01*
X0028041Y0069738D01*
X0028215Y0069648D01*
X0028391Y0069563D01*
X0028569Y0069481D01*
X0028749Y0069405D01*
X0028931Y0069332D01*
X0029114Y0069264D01*
X0029299Y0069201D01*
X0029486Y0069142D01*
X0029674Y0069088D01*
X0029863Y0069038D01*
X0030053Y0068993D01*
X0030245Y0068953D01*
X0030437Y0068917D01*
X0030630Y0068886D01*
X0030824Y0068860D01*
X0031019Y0068838D01*
X0031214Y0068822D01*
X0031409Y0068810D01*
X0031605Y0068802D01*
X0031800Y0068800D01*
X0031993Y0068802D01*
X0032186Y0068809D01*
X0032378Y0068821D01*
X0032571Y0068837D01*
X0032763Y0068858D01*
X0032954Y0068884D01*
X0033144Y0068914D01*
X0033334Y0068949D01*
X0033523Y0068988D01*
X0033711Y0069032D01*
X0033898Y0069080D01*
X0034084Y0069133D01*
X0034268Y0069190D01*
X0034451Y0069252D01*
X0034632Y0069318D01*
X0034812Y0069389D01*
X0034990Y0069463D01*
X0035166Y0069542D01*
X0035340Y0069626D01*
X0035512Y0069713D01*
X0035682Y0069805D01*
X0035849Y0069901D01*
X0036015Y0070000D01*
X0036178Y0070104D01*
X0036338Y0070211D01*
X0036495Y0070323D01*
X0036650Y0070438D01*
X0036802Y0070557D01*
X0036951Y0070679D01*
X0037098Y0070805D01*
X0037241Y0070935D01*
X0037381Y0071068D01*
X0037517Y0071204D01*
X0037651Y0071344D01*
X0037780Y0071486D01*
X0037907Y0071632D01*
X0037946Y0081922D02*
X0037819Y0082070D01*
X0037689Y0082215D01*
X0037556Y0082356D01*
X0037419Y0082495D01*
X0037279Y0082630D01*
X0037135Y0082761D01*
X0036988Y0082889D01*
X0036839Y0083014D01*
X0036686Y0083135D01*
X0036531Y0083252D01*
X0036372Y0083365D01*
X0036211Y0083474D01*
X0036047Y0083579D01*
X0035881Y0083681D01*
X0035712Y0083778D01*
X0035542Y0083871D01*
X0035368Y0083960D01*
X0035193Y0084045D01*
X0035016Y0084125D01*
X0034837Y0084201D01*
X0034656Y0084273D01*
X0034473Y0084340D01*
X0034289Y0084403D01*
X0034103Y0084461D01*
X0033916Y0084515D01*
X0033728Y0084564D01*
X0033538Y0084609D01*
X0033348Y0084649D01*
X0033156Y0084684D01*
X0032964Y0084715D01*
X0032771Y0084741D01*
X0032577Y0084762D01*
X0032383Y0084779D01*
X0032189Y0084791D01*
X0031995Y0084798D01*
X0031800Y0084800D01*
X0073972Y0063214D02*
X0076093Y0061093D01*
X0078214Y0058972D01*
X0079628Y0060386D02*
X0077507Y0062507D01*
X0075386Y0064628D01*
X0145800Y0178800D02*
X0145800Y0181800D01*
X0145800Y0184800D01*
X0147800Y0184800D02*
X0147800Y0181800D01*
X0147800Y0178800D01*
X0173800Y0210800D02*
X0176800Y0210800D01*
X0179800Y0210800D01*
X0179800Y0212800D02*
X0176800Y0212800D01*
X0173800Y0212800D01*
X0189854Y0222831D02*
X0189953Y0222662D01*
X0190057Y0222496D01*
X0190164Y0222332D01*
X0190275Y0222171D01*
X0190390Y0222013D01*
X0190509Y0221858D01*
X0190632Y0221705D01*
X0190758Y0221556D01*
X0190888Y0221410D01*
X0191022Y0221267D01*
X0191159Y0221127D01*
X0191299Y0220991D01*
X0191443Y0220858D01*
X0191590Y0220729D01*
X0191740Y0220603D01*
X0191893Y0220482D01*
X0192049Y0220363D01*
X0192208Y0220249D01*
X0192369Y0220139D01*
X0192534Y0220033D01*
X0192700Y0219930D01*
X0192870Y0219832D01*
X0193041Y0219738D01*
X0193215Y0219648D01*
X0193391Y0219563D01*
X0193569Y0219481D01*
X0193749Y0219405D01*
X0193931Y0219332D01*
X0194114Y0219264D01*
X0194299Y0219201D01*
X0194486Y0219142D01*
X0194674Y0219088D01*
X0194863Y0219038D01*
X0195053Y0218993D01*
X0195245Y0218953D01*
X0195437Y0218917D01*
X0195630Y0218886D01*
X0195824Y0218860D01*
X0196019Y0218838D01*
X0196214Y0218822D01*
X0196409Y0218810D01*
X0196605Y0218802D01*
X0196800Y0218800D01*
X0189741Y0230565D02*
X0189834Y0230733D01*
X0189930Y0230899D01*
X0190030Y0231063D01*
X0190135Y0231224D01*
X0190243Y0231383D01*
X0190355Y0231539D01*
X0190471Y0231693D01*
X0190590Y0231843D01*
X0190713Y0231991D01*
X0190839Y0232136D01*
X0190969Y0232277D01*
X0191102Y0232416D01*
X0191239Y0232551D01*
X0191379Y0232683D01*
X0191521Y0232811D01*
X0191667Y0232936D01*
X0191816Y0233058D01*
X0191968Y0233176D01*
X0192122Y0233290D01*
X0192280Y0233400D01*
X0192439Y0233507D01*
X0192602Y0233610D01*
X0192767Y0233709D01*
X0192934Y0233804D01*
X0193103Y0233894D01*
X0193274Y0233981D01*
X0193448Y0234064D01*
X0193623Y0234142D01*
X0193801Y0234216D01*
X0193980Y0234286D01*
X0194160Y0234352D01*
X0194342Y0234413D01*
X0194526Y0234470D01*
X0194711Y0234522D01*
X0194897Y0234570D01*
X0195084Y0234614D01*
X0195272Y0234653D01*
X0195461Y0234687D01*
X0195651Y0234717D01*
X0195841Y0234742D01*
X0196032Y0234763D01*
X0196224Y0234779D01*
X0196416Y0234791D01*
X0196608Y0234798D01*
X0196800Y0234800D01*
X0202907Y0221632D02*
X0202780Y0221486D01*
X0202651Y0221344D01*
X0202517Y0221204D01*
X0202381Y0221068D01*
X0202241Y0220935D01*
X0202098Y0220805D01*
X0201951Y0220679D01*
X0201802Y0220557D01*
X0201650Y0220438D01*
X0201495Y0220323D01*
X0201338Y0220211D01*
X0201178Y0220104D01*
X0201015Y0220000D01*
X0200849Y0219901D01*
X0200682Y0219805D01*
X0200512Y0219713D01*
X0200340Y0219626D01*
X0200166Y0219542D01*
X0199990Y0219463D01*
X0199812Y0219389D01*
X0199632Y0219318D01*
X0199451Y0219252D01*
X0199268Y0219190D01*
X0199084Y0219133D01*
X0198898Y0219080D01*
X0198711Y0219032D01*
X0198523Y0218988D01*
X0198334Y0218949D01*
X0198144Y0218914D01*
X0197954Y0218884D01*
X0197763Y0218858D01*
X0197571Y0218837D01*
X0197378Y0218821D01*
X0197186Y0218809D01*
X0196993Y0218802D01*
X0196800Y0218800D01*
X0202946Y0231922D02*
X0202819Y0232070D01*
X0202689Y0232215D01*
X0202556Y0232356D01*
X0202419Y0232495D01*
X0202279Y0232630D01*
X0202135Y0232761D01*
X0201988Y0232889D01*
X0201839Y0233014D01*
X0201686Y0233135D01*
X0201531Y0233252D01*
X0201372Y0233365D01*
X0201211Y0233474D01*
X0201047Y0233579D01*
X0200881Y0233681D01*
X0200712Y0233778D01*
X0200542Y0233871D01*
X0200368Y0233960D01*
X0200193Y0234045D01*
X0200016Y0234125D01*
X0199837Y0234201D01*
X0199656Y0234273D01*
X0199473Y0234340D01*
X0199289Y0234403D01*
X0199103Y0234461D01*
X0198916Y0234515D01*
X0198728Y0234564D01*
X0198538Y0234609D01*
X0198348Y0234649D01*
X0198156Y0234684D01*
X0197964Y0234715D01*
X0197771Y0234741D01*
X0197577Y0234762D01*
X0197383Y0234779D01*
X0197189Y0234791D01*
X0196995Y0234798D01*
X0196800Y0234800D01*
X0104800Y0212800D02*
X0101800Y0212800D01*
X0098800Y0212800D01*
X0098800Y0210800D02*
X0101800Y0210800D01*
X0104800Y0210800D01*
D13*
X0108046Y0212593D02*
X0108797Y0211842D01*
X0111799Y0211842D01*
X0112550Y0212593D01*
X0112550Y0214094D01*
X0111799Y0214845D01*
X0112550Y0216446D02*
X0109547Y0219449D01*
X0108797Y0219449D01*
X0108046Y0218698D01*
X0108046Y0217197D01*
X0108797Y0216446D01*
X0108797Y0214845D02*
X0108046Y0214094D01*
X0108046Y0212593D01*
X0112550Y0216446D02*
X0112550Y0219449D01*
X0100749Y0219850D02*
X0097746Y0219850D01*
X0099247Y0219850D02*
X0099247Y0224354D01*
X0097746Y0222853D01*
X0096145Y0224354D02*
X0096145Y0219850D01*
X0094643Y0221351D01*
X0093142Y0219850D01*
X0093142Y0224354D01*
X0091541Y0223603D02*
X0090790Y0224354D01*
X0089289Y0224354D01*
X0088538Y0223603D01*
X0088538Y0222853D01*
X0089289Y0222102D01*
X0090790Y0222102D01*
X0091541Y0221351D01*
X0091541Y0220601D01*
X0090790Y0219850D01*
X0089289Y0219850D01*
X0088538Y0220601D01*
X0091046Y0219449D02*
X0091046Y0216446D01*
X0095550Y0216446D01*
X0095550Y0214845D02*
X0092547Y0214845D01*
X0093298Y0216446D02*
X0093298Y0217947D01*
X0095550Y0214845D02*
X0095550Y0212593D01*
X0094799Y0211842D01*
X0092547Y0211842D01*
X0091046Y0208739D02*
X0095550Y0208739D01*
X0095550Y0207238D02*
X0095550Y0210241D01*
X0092547Y0207238D02*
X0091046Y0208739D01*
X0094799Y0205687D02*
X0095550Y0205687D01*
X0095550Y0204936D01*
X0094799Y0204936D01*
X0094799Y0205687D01*
X0094799Y0203335D02*
X0091797Y0203335D01*
X0094799Y0200332D01*
X0095550Y0201083D01*
X0095550Y0202584D01*
X0094799Y0203335D01*
X0091797Y0203335D02*
X0091046Y0202584D01*
X0091046Y0201083D01*
X0091797Y0200332D01*
X0094799Y0200332D01*
X0100550Y0192554D02*
X0102051Y0192554D01*
X0101301Y0192554D02*
X0101301Y0188050D01*
X0102051Y0188050D02*
X0100550Y0188050D01*
X0103619Y0188801D02*
X0103619Y0191803D01*
X0104370Y0192554D01*
X0105871Y0192554D01*
X0106622Y0191803D01*
X0108223Y0191053D02*
X0109724Y0192554D01*
X0109724Y0188050D01*
X0108223Y0188050D02*
X0111226Y0188050D01*
X0106622Y0188801D02*
X0105871Y0188050D01*
X0104370Y0188050D01*
X0103619Y0188801D01*
X0132800Y0206348D02*
X0132800Y0207927D01*
X0138300Y0208554D02*
X0138300Y0225046D01*
X0136550Y0229550D02*
X0132046Y0229550D01*
X0133547Y0231051D01*
X0132046Y0232553D01*
X0136550Y0232553D01*
X0135799Y0234154D02*
X0136550Y0234905D01*
X0136550Y0236406D01*
X0135799Y0237156D01*
X0135049Y0238758D02*
X0135049Y0241010D01*
X0134298Y0241760D01*
X0132797Y0241760D01*
X0132046Y0241010D01*
X0132046Y0238758D01*
X0136550Y0238758D01*
X0132797Y0237156D02*
X0132046Y0236406D01*
X0132046Y0234905D01*
X0132797Y0234154D01*
X0135799Y0234154D01*
X0132800Y0227252D02*
X0132800Y0225673D01*
X0129050Y0229550D02*
X0129050Y0231051D01*
X0129050Y0230301D02*
X0124546Y0230301D01*
X0124546Y0231051D02*
X0124546Y0229550D01*
X0125297Y0232619D02*
X0128299Y0232619D01*
X0129050Y0233370D01*
X0129050Y0234871D01*
X0128299Y0235622D01*
X0129050Y0237223D02*
X0126047Y0240226D01*
X0125297Y0240226D01*
X0124546Y0239475D01*
X0124546Y0237974D01*
X0125297Y0237223D01*
X0125297Y0235622D02*
X0124546Y0234871D01*
X0124546Y0233370D01*
X0125297Y0232619D01*
X0129050Y0237223D02*
X0129050Y0240226D01*
X0133547Y0243362D02*
X0132046Y0244863D01*
X0136550Y0244863D01*
X0136550Y0243362D02*
X0136550Y0246364D01*
X0136550Y0247966D02*
X0135799Y0247966D01*
X0132797Y0250968D01*
X0132046Y0250968D01*
X0132046Y0247966D01*
X0132797Y0252570D02*
X0132046Y0253320D01*
X0132046Y0254822D01*
X0132797Y0255572D01*
X0135799Y0252570D01*
X0136550Y0253320D01*
X0136550Y0254822D01*
X0135799Y0255572D01*
X0132797Y0255572D01*
X0132797Y0257174D02*
X0132046Y0257924D01*
X0132046Y0259425D01*
X0132797Y0260176D01*
X0133547Y0260176D01*
X0136550Y0257174D01*
X0136550Y0260176D01*
X0135799Y0252570D02*
X0132797Y0252570D01*
X0163046Y0231949D02*
X0163797Y0230447D01*
X0165298Y0228946D01*
X0165298Y0231198D01*
X0166049Y0231949D01*
X0166799Y0231949D01*
X0167550Y0231198D01*
X0167550Y0229697D01*
X0166799Y0228946D01*
X0165298Y0228946D01*
X0163797Y0227345D02*
X0163046Y0226594D01*
X0163046Y0225093D01*
X0163797Y0224342D01*
X0166799Y0224342D01*
X0167550Y0225093D01*
X0167550Y0226594D01*
X0166799Y0227345D01*
X0166046Y0219449D02*
X0166046Y0216446D01*
X0170550Y0216446D01*
X0170550Y0214845D02*
X0167547Y0214845D01*
X0168298Y0216446D02*
X0168298Y0217947D01*
X0170550Y0214845D02*
X0170550Y0212593D01*
X0169799Y0211842D01*
X0167547Y0211842D01*
X0166046Y0208739D02*
X0170550Y0208739D01*
X0170550Y0207238D02*
X0170550Y0210241D01*
X0167547Y0207238D02*
X0166046Y0208739D01*
X0169799Y0205687D02*
X0170550Y0205687D01*
X0170550Y0204936D01*
X0169799Y0204936D01*
X0169799Y0205687D01*
X0169799Y0203335D02*
X0166797Y0203335D01*
X0169799Y0200332D01*
X0170550Y0201083D01*
X0170550Y0202584D01*
X0169799Y0203335D01*
X0166797Y0203335D02*
X0166046Y0202584D01*
X0166046Y0201083D01*
X0166797Y0200332D01*
X0169799Y0200332D01*
X0183046Y0212593D02*
X0183046Y0214094D01*
X0183797Y0214845D01*
X0183046Y0216446D02*
X0185298Y0216446D01*
X0184547Y0217947D01*
X0184547Y0218698D01*
X0185298Y0219449D01*
X0186799Y0219449D01*
X0187550Y0218698D01*
X0187550Y0217197D01*
X0186799Y0216446D01*
X0186799Y0214845D02*
X0187550Y0214094D01*
X0187550Y0212593D01*
X0186799Y0211842D01*
X0183797Y0211842D01*
X0183046Y0212593D01*
X0183046Y0216446D02*
X0183046Y0219449D01*
X0204550Y0220550D02*
X0204550Y0223553D01*
X0206051Y0223553D02*
X0204550Y0222051D01*
X0206051Y0223553D02*
X0206802Y0223553D01*
X0208387Y0222802D02*
X0208387Y0221301D01*
X0209137Y0220550D01*
X0210639Y0220550D01*
X0211389Y0222051D02*
X0208387Y0222051D01*
X0208387Y0222802D02*
X0209137Y0223553D01*
X0210639Y0223553D01*
X0211389Y0222802D01*
X0211389Y0222051D01*
X0212991Y0221301D02*
X0212991Y0222802D01*
X0213741Y0223553D01*
X0215993Y0223553D01*
X0215993Y0225054D02*
X0215993Y0220550D01*
X0213741Y0220550D01*
X0212991Y0221301D01*
X0213758Y0228550D02*
X0216010Y0228550D01*
X0216760Y0229301D01*
X0216760Y0232303D01*
X0216010Y0233054D01*
X0213758Y0233054D01*
X0213758Y0228550D01*
X0212156Y0228550D02*
X0209154Y0228550D01*
X0209154Y0233054D01*
X0212156Y0233054D01*
X0210655Y0230802D02*
X0209154Y0230802D01*
X0207553Y0228550D02*
X0204550Y0228550D01*
X0204550Y0233054D01*
X0218362Y0231553D02*
X0219863Y0233054D01*
X0219863Y0228550D01*
X0218362Y0228550D02*
X0221364Y0228550D01*
X0150050Y0200946D02*
X0145546Y0200946D01*
X0145546Y0203949D01*
X0147798Y0202447D02*
X0147798Y0200946D01*
X0147047Y0199345D02*
X0150050Y0199345D01*
X0150050Y0197093D01*
X0149299Y0196342D01*
X0147047Y0196342D01*
X0146297Y0194741D02*
X0145546Y0193990D01*
X0145546Y0192489D01*
X0146297Y0191738D01*
X0149299Y0191738D01*
X0146297Y0194741D01*
X0149299Y0194741D01*
X0150050Y0193990D01*
X0150050Y0192489D01*
X0149299Y0191738D01*
X0150050Y0190137D02*
X0150050Y0187134D01*
X0150050Y0188636D02*
X0145546Y0188636D01*
X0147047Y0187134D01*
X0145656Y0188801D02*
X0144906Y0188050D01*
X0143405Y0188050D01*
X0142654Y0188801D01*
X0141053Y0188801D02*
X0140302Y0188050D01*
X0138801Y0188050D01*
X0138050Y0188801D01*
X0138050Y0191803D01*
X0138801Y0192554D01*
X0140302Y0192554D01*
X0141053Y0191803D01*
X0142654Y0191803D02*
X0143405Y0192554D01*
X0144906Y0192554D01*
X0145656Y0191803D01*
X0145656Y0191053D01*
X0144906Y0190302D01*
X0145656Y0189551D01*
X0145656Y0188801D01*
X0144906Y0190302D02*
X0144155Y0190302D01*
X0132800Y0215673D02*
X0132800Y0217927D01*
X0138300Y0208554D02*
X0138101Y0208401D01*
X0137899Y0208253D01*
X0137694Y0208110D01*
X0137485Y0207972D01*
X0137273Y0207839D01*
X0137058Y0207711D01*
X0136840Y0207589D01*
X0136619Y0207471D01*
X0136395Y0207359D01*
X0136169Y0207252D01*
X0135940Y0207151D01*
X0135709Y0207055D01*
X0135475Y0206964D01*
X0135240Y0206879D01*
X0135002Y0206800D01*
X0134763Y0206727D01*
X0134522Y0206659D01*
X0134280Y0206597D01*
X0134036Y0206541D01*
X0133790Y0206490D01*
X0133544Y0206446D01*
X0133297Y0206407D01*
X0133049Y0206375D01*
X0132800Y0206348D01*
X0121767Y0219896D02*
X0121845Y0220138D01*
X0121929Y0220378D01*
X0122018Y0220616D01*
X0122114Y0220852D01*
X0122215Y0221086D01*
X0122321Y0221317D01*
X0122434Y0221545D01*
X0122551Y0221771D01*
X0122674Y0221994D01*
X0122803Y0222213D01*
X0122937Y0222430D01*
X0123076Y0222643D01*
X0123220Y0222853D01*
X0123369Y0223059D01*
X0123523Y0223261D01*
X0123682Y0223460D01*
X0123846Y0223655D01*
X0124015Y0223846D01*
X0124188Y0224032D01*
X0124365Y0224215D01*
X0124547Y0224393D01*
X0124733Y0224566D01*
X0124924Y0224735D01*
X0125118Y0224899D01*
X0125316Y0225059D01*
X0125518Y0225214D01*
X0125724Y0225363D01*
X0125933Y0225508D01*
X0126146Y0225648D01*
X0126362Y0225782D01*
X0126582Y0225911D01*
X0126804Y0226035D01*
X0127029Y0226154D01*
X0127257Y0226266D01*
X0127488Y0226374D01*
X0127721Y0226475D01*
X0127957Y0226571D01*
X0128195Y0226662D01*
X0128435Y0226746D01*
X0128677Y0226825D01*
X0128921Y0226898D01*
X0129167Y0226964D01*
X0129414Y0227025D01*
X0129662Y0227080D01*
X0129912Y0227129D01*
X0130163Y0227172D01*
X0130415Y0227208D01*
X0130667Y0227239D01*
X0130921Y0227263D01*
X0131174Y0227281D01*
X0131429Y0227293D01*
X0131683Y0227299D01*
X0131938Y0227299D01*
X0132192Y0227293D01*
X0132446Y0227280D01*
X0132700Y0227261D01*
X0132953Y0227236D01*
X0133206Y0227205D01*
X0133458Y0227168D01*
X0133708Y0227125D01*
X0133958Y0227076D01*
X0134207Y0227021D01*
X0134454Y0226959D01*
X0134699Y0226892D01*
X0134943Y0226819D01*
X0135185Y0226740D01*
X0135424Y0226655D01*
X0135662Y0226564D01*
X0135898Y0226467D01*
X0136131Y0226365D01*
X0136361Y0226257D01*
X0136589Y0226144D01*
X0136814Y0226025D01*
X0137036Y0225901D01*
X0137255Y0225772D01*
X0137471Y0225637D01*
X0137684Y0225497D01*
X0137893Y0225351D01*
X0138098Y0225201D01*
X0138300Y0225046D01*
X0132800Y0206348D02*
X0132545Y0206326D01*
X0132289Y0206311D01*
X0132033Y0206303D01*
X0131776Y0206300D01*
X0131520Y0206304D01*
X0131264Y0206314D01*
X0131008Y0206330D01*
X0130753Y0206352D01*
X0130498Y0206381D01*
X0130244Y0206416D01*
X0129991Y0206457D01*
X0129739Y0206504D01*
X0129489Y0206558D01*
X0129240Y0206617D01*
X0128992Y0206683D01*
X0128746Y0206754D01*
X0128501Y0206832D01*
X0128259Y0206915D01*
X0128019Y0207004D01*
X0127781Y0207100D01*
X0127545Y0207201D01*
X0127312Y0207307D01*
X0127082Y0207420D01*
X0126854Y0207538D01*
X0126630Y0207661D01*
X0126408Y0207790D01*
X0126190Y0207924D01*
X0125975Y0208064D01*
X0125764Y0208209D01*
X0125556Y0208359D01*
X0125352Y0208513D01*
X0125151Y0208673D01*
X0124955Y0208838D01*
X0124763Y0209007D01*
X0124574Y0209182D01*
X0124391Y0209360D01*
X0124211Y0209543D01*
X0124036Y0209731D01*
X0123866Y0209922D01*
X0123701Y0210118D01*
X0123540Y0210318D01*
X0123384Y0210521D01*
X0123234Y0210728D01*
X0123088Y0210939D01*
X0122947Y0211154D01*
X0122812Y0211371D01*
X0122682Y0211592D01*
X0122558Y0211816D01*
X0122439Y0212043D01*
X0122326Y0212273D01*
X0122218Y0212506D01*
X0122116Y0212741D01*
X0122020Y0212979D01*
X0121930Y0213218D01*
X0121845Y0213460D01*
X0121767Y0213704D01*
X0113299Y0148948D02*
X0114050Y0148198D01*
X0114050Y0145946D01*
X0109546Y0145946D01*
X0109546Y0148198D01*
X0110297Y0148948D01*
X0111047Y0148948D01*
X0111798Y0148198D01*
X0111798Y0145946D01*
X0111047Y0144345D02*
X0111798Y0143594D01*
X0111798Y0142093D01*
X0111047Y0141342D01*
X0110297Y0141342D01*
X0109546Y0142093D01*
X0109546Y0143594D01*
X0110297Y0144345D01*
X0111047Y0144345D01*
X0111798Y0143594D02*
X0112549Y0144345D01*
X0113299Y0144345D01*
X0114050Y0143594D01*
X0114050Y0142093D01*
X0113299Y0141342D01*
X0112549Y0141342D01*
X0111798Y0142093D01*
X0111047Y0139741D02*
X0110297Y0139741D01*
X0109546Y0138990D01*
X0109546Y0137489D01*
X0110297Y0136738D01*
X0111047Y0139741D02*
X0114050Y0136738D01*
X0114050Y0139741D01*
X0114050Y0135137D02*
X0114050Y0132134D01*
X0114050Y0133635D02*
X0109546Y0133635D01*
X0111047Y0132134D01*
X0109546Y0130533D02*
X0109546Y0127530D01*
X0114050Y0127530D01*
X0113299Y0125929D02*
X0110297Y0125929D01*
X0113299Y0122926D01*
X0114050Y0123677D01*
X0114050Y0125178D01*
X0113299Y0125929D01*
X0111798Y0127530D02*
X0111798Y0129032D01*
X0110297Y0125929D02*
X0109546Y0125178D01*
X0109546Y0123677D01*
X0110297Y0122926D01*
X0113299Y0122926D01*
X0113299Y0121325D02*
X0111798Y0121325D01*
X0111047Y0120574D01*
X0111047Y0119824D01*
X0111798Y0118322D01*
X0109546Y0118322D01*
X0109546Y0121325D01*
X0110297Y0116721D02*
X0109546Y0115970D01*
X0109546Y0114469D01*
X0110297Y0113718D01*
X0109546Y0112117D02*
X0114050Y0109115D01*
X0114050Y0107513D02*
X0109546Y0107513D01*
X0111047Y0106012D01*
X0109546Y0104511D01*
X0114050Y0104511D01*
X0114050Y0102909D02*
X0114050Y0099907D01*
X0111047Y0102909D01*
X0110297Y0102909D01*
X0109546Y0102159D01*
X0109546Y0100657D01*
X0110297Y0099907D01*
X0110297Y0098305D02*
X0111047Y0098305D01*
X0111798Y0097555D01*
X0112549Y0098305D01*
X0113299Y0098305D01*
X0114050Y0097555D01*
X0114050Y0096053D01*
X0113299Y0095303D01*
X0113299Y0093701D02*
X0114050Y0092951D01*
X0114050Y0091449D01*
X0113299Y0090699D01*
X0110297Y0090699D01*
X0109546Y0091449D01*
X0109546Y0092951D01*
X0110297Y0093701D01*
X0110297Y0095303D02*
X0109546Y0096053D01*
X0109546Y0097555D01*
X0110297Y0098305D01*
X0111798Y0097555D02*
X0111798Y0096804D01*
X0109546Y0089131D02*
X0109546Y0087630D01*
X0109546Y0088380D02*
X0114050Y0088380D01*
X0114050Y0087630D02*
X0114050Y0089131D01*
X0111798Y0086028D02*
X0112549Y0085278D01*
X0112549Y0083026D01*
X0114050Y0083026D02*
X0109546Y0083026D01*
X0109546Y0085278D01*
X0110297Y0086028D01*
X0111798Y0086028D01*
X0109546Y0109115D02*
X0114050Y0112117D01*
X0114050Y0113718D02*
X0111047Y0116721D01*
X0110297Y0116721D01*
X0113299Y0118322D02*
X0114050Y0119073D01*
X0114050Y0120574D01*
X0113299Y0121325D01*
X0114050Y0116721D02*
X0114050Y0113718D01*
X0088750Y0114247D02*
X0084246Y0114247D01*
X0085747Y0112746D01*
X0084997Y0111145D02*
X0086498Y0109643D01*
X0088750Y0109643D01*
X0086498Y0109643D02*
X0084997Y0108142D01*
X0084246Y0108142D01*
X0084246Y0111145D02*
X0084997Y0111145D01*
X0088750Y0112746D02*
X0088750Y0115749D01*
X0111798Y0148198D02*
X0112549Y0148948D01*
X0113299Y0148948D01*
X0145550Y0126803D02*
X0145550Y0123801D01*
X0146301Y0123050D01*
X0147802Y0123050D01*
X0148553Y0123801D01*
X0150154Y0123801D02*
X0150154Y0123050D01*
X0150154Y0123801D02*
X0153156Y0126803D01*
X0153156Y0127554D01*
X0150154Y0127554D01*
X0148553Y0126803D02*
X0147802Y0127554D01*
X0146301Y0127554D01*
X0145550Y0126803D01*
X0173550Y0108553D02*
X0175051Y0110054D01*
X0175051Y0105550D01*
X0173550Y0105550D02*
X0176553Y0105550D01*
X0178154Y0106301D02*
X0181156Y0109303D01*
X0181156Y0106301D01*
X0180406Y0105550D01*
X0178905Y0105550D01*
X0178154Y0106301D01*
X0178154Y0109303D01*
X0178905Y0110054D01*
X0180406Y0110054D01*
X0181156Y0109303D01*
X0182758Y0108553D02*
X0182758Y0106301D01*
X0183508Y0105550D01*
X0185760Y0105550D01*
X0185760Y0108553D01*
X0187362Y0107802D02*
X0188863Y0107802D01*
X0187362Y0105550D02*
X0187362Y0110054D01*
X0190364Y0110054D01*
X0199846Y0109753D02*
X0199846Y0108251D01*
X0199846Y0109002D02*
X0203599Y0109002D01*
X0204350Y0108251D01*
X0204350Y0107501D01*
X0203599Y0106750D01*
X0203599Y0111354D02*
X0204350Y0112105D01*
X0204350Y0113606D01*
X0203599Y0114356D01*
X0202849Y0114356D01*
X0202098Y0113606D01*
X0202098Y0112855D01*
X0202098Y0113606D02*
X0201347Y0114356D01*
X0200597Y0114356D01*
X0199846Y0113606D01*
X0199846Y0112105D01*
X0200597Y0111354D01*
X0219246Y0094998D02*
X0219246Y0093497D01*
X0219997Y0092746D01*
X0219246Y0091145D02*
X0219246Y0089643D01*
X0219246Y0090394D02*
X0222999Y0090394D01*
X0223750Y0089643D01*
X0223750Y0088893D01*
X0222999Y0088142D01*
X0223750Y0092746D02*
X0220747Y0095749D01*
X0219997Y0095749D01*
X0219246Y0094998D01*
X0223750Y0095749D02*
X0223750Y0092746D01*
X0183960Y0059250D02*
X0180958Y0059250D01*
X0182459Y0059250D02*
X0182459Y0063754D01*
X0180958Y0062253D01*
X0179356Y0062253D02*
X0178606Y0061502D01*
X0176354Y0061502D01*
X0174753Y0061502D02*
X0174002Y0060751D01*
X0171750Y0060751D01*
X0171750Y0059250D02*
X0171750Y0063754D01*
X0174002Y0063754D01*
X0174753Y0063003D01*
X0174753Y0061502D01*
X0176354Y0059250D02*
X0176354Y0063754D01*
X0178606Y0063754D01*
X0179356Y0063003D01*
X0179356Y0062253D01*
X0178606Y0061502D02*
X0179356Y0060751D01*
X0179356Y0060001D01*
X0178606Y0059250D01*
X0176354Y0059250D01*
X0148960Y0059250D02*
X0145958Y0059250D01*
X0148960Y0062253D01*
X0148960Y0063003D01*
X0148210Y0063754D01*
X0146708Y0063754D01*
X0145958Y0063003D01*
X0144356Y0063003D02*
X0144356Y0062253D01*
X0143606Y0061502D01*
X0141354Y0061502D01*
X0139753Y0061502D02*
X0139002Y0060751D01*
X0136750Y0060751D01*
X0136750Y0059250D02*
X0136750Y0063754D01*
X0139002Y0063754D01*
X0139753Y0063003D01*
X0139753Y0061502D01*
X0141354Y0059250D02*
X0141354Y0063754D01*
X0143606Y0063754D01*
X0144356Y0063003D01*
X0143606Y0061502D02*
X0144356Y0060751D01*
X0144356Y0060001D01*
X0143606Y0059250D01*
X0141354Y0059250D01*
X0089608Y0059406D02*
X0086424Y0062590D01*
X0088547Y0064713D01*
X0089078Y0062059D02*
X0088016Y0060998D01*
X0086353Y0060396D02*
X0088476Y0058273D01*
X0086884Y0056681D01*
X0085822Y0056681D01*
X0084230Y0058273D01*
X0080974Y0057141D02*
X0084159Y0053956D01*
X0083097Y0052895D02*
X0085221Y0055018D01*
X0080974Y0055018D02*
X0080974Y0057141D01*
X0081470Y0052328D02*
X0082000Y0051798D01*
X0081470Y0051267D01*
X0080939Y0051798D01*
X0081470Y0052328D01*
X0079807Y0050665D02*
X0079807Y0049604D01*
X0078745Y0048542D01*
X0077683Y0048542D01*
X0077683Y0052788D01*
X0079807Y0050665D01*
X0077683Y0048542D02*
X0075560Y0050665D01*
X0075560Y0051727D01*
X0076622Y0052788D01*
X0077683Y0052788D01*
X0067786Y0061625D02*
X0067786Y0062686D01*
X0067786Y0061625D02*
X0066724Y0060563D01*
X0065663Y0060563D01*
X0063539Y0062686D01*
X0063539Y0063748D01*
X0064601Y0064809D01*
X0065663Y0064809D01*
X0067326Y0065411D02*
X0067326Y0067534D01*
X0070510Y0064349D01*
X0069449Y0063288D02*
X0071572Y0065411D01*
X0060201Y0070550D02*
X0060201Y0072802D01*
X0059450Y0073553D01*
X0057198Y0073553D01*
X0057198Y0070550D01*
X0055597Y0072051D02*
X0052594Y0072051D01*
X0052594Y0071301D02*
X0052594Y0072802D01*
X0053345Y0073553D01*
X0054846Y0073553D01*
X0055597Y0072802D01*
X0055597Y0072051D01*
X0054846Y0070550D02*
X0053345Y0070550D01*
X0052594Y0071301D01*
X0050993Y0072051D02*
X0047991Y0072051D01*
X0047991Y0071301D02*
X0047991Y0072802D01*
X0048741Y0073553D01*
X0050242Y0073553D01*
X0050993Y0072802D01*
X0050993Y0072051D01*
X0050242Y0070550D02*
X0048741Y0070550D01*
X0047991Y0071301D01*
X0046406Y0073553D02*
X0045655Y0073553D01*
X0044154Y0072051D01*
X0044154Y0070550D02*
X0044154Y0073553D01*
X0042553Y0073553D02*
X0042553Y0069799D01*
X0041802Y0069049D01*
X0041051Y0069049D01*
X0040301Y0070550D02*
X0042553Y0070550D01*
X0040301Y0070550D02*
X0039550Y0071301D01*
X0039550Y0072802D01*
X0040301Y0073553D01*
X0042553Y0073553D01*
X0042553Y0078550D02*
X0039550Y0078550D01*
X0039550Y0083054D01*
X0044154Y0083054D02*
X0044154Y0078550D01*
X0047156Y0078550D01*
X0048758Y0078550D02*
X0051010Y0078550D01*
X0051760Y0079301D01*
X0051760Y0082303D01*
X0051010Y0083054D01*
X0048758Y0083054D01*
X0048758Y0078550D01*
X0053362Y0078550D02*
X0056364Y0081553D01*
X0056364Y0082303D01*
X0055614Y0083054D01*
X0054112Y0083054D01*
X0053362Y0082303D01*
X0053362Y0078550D02*
X0056364Y0078550D01*
X0047156Y0083054D02*
X0044154Y0083054D01*
X0044154Y0080802D02*
X0045655Y0080802D01*
X0019350Y0107501D02*
X0019350Y0108251D01*
X0018599Y0109002D01*
X0014846Y0109002D01*
X0014846Y0108251D02*
X0014846Y0109753D01*
X0017098Y0111354D02*
X0017098Y0114356D01*
X0019350Y0113606D02*
X0014846Y0113606D01*
X0017098Y0111354D01*
X0019350Y0107501D02*
X0018599Y0106750D01*
D14*
X0151800Y0219800D03*
D15*
X0158800Y0111800D03*
D16*
X0187627Y0102335D02*
X0188794Y0103503D01*
X0188794Y0100000D01*
X0187627Y0100000D02*
X0189962Y0100000D01*
X0191218Y0100584D02*
X0193553Y0102919D01*
X0193553Y0100584D01*
X0192969Y0100000D01*
X0191802Y0100000D01*
X0191218Y0100584D01*
X0191218Y0102919D01*
X0191802Y0103503D01*
X0192969Y0103503D01*
X0193553Y0102919D01*
X0194809Y0103503D02*
X0194809Y0100000D01*
X0194809Y0101168D02*
X0197144Y0103503D01*
X0195393Y0101751D02*
X0197144Y0100000D01*
X0196569Y0096503D02*
X0194818Y0096503D01*
X0194818Y0093000D01*
X0194818Y0094168D02*
X0196569Y0094168D01*
X0197153Y0094751D01*
X0197153Y0095919D01*
X0196569Y0096503D01*
X0195986Y0094168D02*
X0197153Y0093000D01*
X0198409Y0094751D02*
X0200744Y0094751D01*
X0200160Y0093000D02*
X0200160Y0096503D01*
X0198409Y0094751D01*
X0178500Y0080117D02*
X0176749Y0078366D01*
X0177332Y0077782D02*
X0174997Y0080117D01*
X0174997Y0077782D02*
X0178500Y0077782D01*
X0177916Y0076526D02*
X0175581Y0076526D01*
X0177916Y0074191D01*
X0178500Y0074775D01*
X0178500Y0075943D01*
X0177916Y0076526D01*
X0177916Y0074191D02*
X0175581Y0074191D01*
X0174997Y0074775D01*
X0174997Y0075943D01*
X0175581Y0076526D01*
X0178500Y0072935D02*
X0178500Y0070600D01*
X0178500Y0071768D02*
X0174997Y0071768D01*
X0176165Y0070600D01*
X0171500Y0071175D02*
X0170916Y0070591D01*
X0171500Y0071175D02*
X0171500Y0072343D01*
X0170916Y0072926D01*
X0170332Y0072926D01*
X0169749Y0072343D01*
X0169749Y0071759D01*
X0169749Y0072343D02*
X0169165Y0072926D01*
X0168581Y0072926D01*
X0167997Y0072343D01*
X0167997Y0071175D01*
X0168581Y0070591D01*
X0168581Y0069335D02*
X0169749Y0069335D01*
X0170332Y0068751D01*
X0170332Y0067000D01*
X0170332Y0068168D02*
X0171500Y0069335D01*
X0171500Y0067000D02*
X0167997Y0067000D01*
X0167997Y0068751D01*
X0168581Y0069335D01*
X0172000Y0044104D02*
X0174302Y0044104D01*
X0175069Y0043337D01*
X0175069Y0041802D01*
X0174302Y0041035D01*
X0172000Y0041035D01*
X0173535Y0041035D02*
X0175069Y0039500D01*
X0176604Y0039500D02*
X0179673Y0039500D01*
X0181208Y0040267D02*
X0181975Y0039500D01*
X0183510Y0039500D01*
X0184277Y0040267D01*
X0184277Y0041035D01*
X0183510Y0041802D01*
X0181975Y0041802D01*
X0181208Y0042569D01*
X0181208Y0043337D01*
X0181975Y0044104D01*
X0183510Y0044104D01*
X0184277Y0043337D01*
X0185812Y0044104D02*
X0185812Y0039500D01*
X0188881Y0039500D01*
X0187346Y0041802D02*
X0185812Y0041802D01*
X0185812Y0044104D02*
X0188881Y0044104D01*
X0190416Y0044104D02*
X0193485Y0044104D01*
X0191950Y0044104D02*
X0191950Y0039500D01*
X0179673Y0044104D02*
X0176604Y0044104D01*
X0176604Y0039500D01*
X0176604Y0041802D02*
X0178139Y0041802D01*
X0172000Y0039500D02*
X0172000Y0044104D01*
X0153881Y0043337D02*
X0153881Y0041802D01*
X0153114Y0041035D01*
X0150812Y0041035D01*
X0152346Y0041035D02*
X0153881Y0039500D01*
X0150812Y0039500D02*
X0150812Y0044104D01*
X0153114Y0044104D01*
X0153881Y0043337D01*
X0149277Y0044104D02*
X0146208Y0044104D01*
X0146208Y0039500D01*
X0149277Y0039500D01*
X0147742Y0041802D02*
X0146208Y0041802D01*
X0144673Y0041035D02*
X0144673Y0040267D01*
X0143906Y0039500D01*
X0142371Y0039500D01*
X0141604Y0040267D01*
X0140069Y0040267D02*
X0139302Y0039500D01*
X0137767Y0039500D01*
X0137000Y0040267D01*
X0137000Y0044104D01*
X0140069Y0044104D02*
X0140069Y0040267D01*
X0141604Y0042569D02*
X0142371Y0041802D01*
X0143906Y0041802D01*
X0144673Y0041035D01*
X0144673Y0043337D02*
X0143906Y0044104D01*
X0142371Y0044104D01*
X0141604Y0043337D01*
X0141604Y0042569D01*
X0069100Y0099352D02*
X0068333Y0098584D01*
X0067565Y0098584D01*
X0066798Y0099352D01*
X0066798Y0100886D01*
X0067565Y0101654D01*
X0068333Y0101654D01*
X0069100Y0100886D01*
X0069100Y0099352D01*
X0066798Y0099352D02*
X0066031Y0098584D01*
X0065263Y0098584D01*
X0064496Y0099352D01*
X0064496Y0100886D01*
X0065263Y0101654D01*
X0066031Y0101654D01*
X0066798Y0100886D01*
X0064496Y0103188D02*
X0066031Y0104723D01*
X0064496Y0106257D01*
X0069100Y0106257D01*
X0069100Y0107792D02*
X0064496Y0107792D01*
X0066798Y0107792D02*
X0066798Y0110861D01*
X0066031Y0112396D02*
X0066031Y0115465D01*
X0069100Y0112396D01*
X0069100Y0115465D01*
X0069100Y0110861D02*
X0064496Y0110861D01*
X0064496Y0103188D02*
X0069100Y0103188D01*
X0047916Y0065117D02*
X0045581Y0065117D01*
X0047916Y0062782D01*
X0048500Y0063366D01*
X0048500Y0064534D01*
X0047916Y0065117D01*
X0047916Y0062782D02*
X0045581Y0062782D01*
X0044997Y0063366D01*
X0044997Y0064534D01*
X0045581Y0065117D01*
X0045581Y0061526D02*
X0046165Y0061526D01*
X0046749Y0060943D01*
X0047332Y0061526D01*
X0047916Y0061526D01*
X0048500Y0060943D01*
X0048500Y0059775D01*
X0047916Y0059191D01*
X0047916Y0057935D02*
X0048500Y0057351D01*
X0048500Y0056184D01*
X0047916Y0055600D01*
X0046749Y0056768D02*
X0046749Y0057351D01*
X0047332Y0057935D01*
X0047916Y0057935D01*
X0046749Y0057351D02*
X0046165Y0057935D01*
X0045581Y0057935D01*
X0044997Y0057351D01*
X0044997Y0056184D01*
X0045581Y0055600D01*
X0045581Y0059191D02*
X0044997Y0059775D01*
X0044997Y0060943D01*
X0045581Y0061526D01*
X0046749Y0060943D02*
X0046749Y0060359D01*
X0041500Y0057926D02*
X0041500Y0055591D01*
X0039165Y0057926D01*
X0038581Y0057926D01*
X0037997Y0057343D01*
X0037997Y0056175D01*
X0038581Y0055591D01*
X0038581Y0054335D02*
X0039749Y0054335D01*
X0040332Y0053751D01*
X0040332Y0052000D01*
X0040332Y0053168D02*
X0041500Y0054335D01*
X0041500Y0052000D02*
X0037997Y0052000D01*
X0037997Y0053751D01*
X0038581Y0054335D01*
X0064376Y0222906D02*
X0065143Y0223673D01*
X0065143Y0224440D01*
X0064376Y0225207D01*
X0060539Y0225207D01*
X0060539Y0224440D02*
X0060539Y0225975D01*
X0062074Y0227509D02*
X0060539Y0229044D01*
X0065143Y0229044D01*
X0065143Y0227509D02*
X0065143Y0230579D01*
X0080515Y0240267D02*
X0081282Y0239500D01*
X0082817Y0239500D01*
X0083584Y0240267D01*
X0083584Y0241035D01*
X0082817Y0241802D01*
X0081282Y0241802D01*
X0080515Y0242569D01*
X0080515Y0243337D01*
X0081282Y0244104D01*
X0082817Y0244104D01*
X0083584Y0243337D01*
X0085119Y0244104D02*
X0085119Y0239500D01*
X0088188Y0239500D01*
X0089723Y0239500D02*
X0091257Y0239500D01*
X0090490Y0239500D02*
X0090490Y0244104D01*
X0089723Y0244104D02*
X0091257Y0244104D01*
X0092792Y0244104D02*
X0095094Y0244104D01*
X0095861Y0243337D01*
X0095861Y0240267D01*
X0095094Y0239500D01*
X0092792Y0239500D01*
X0092792Y0244104D01*
X0097396Y0244104D02*
X0097396Y0239500D01*
X0100465Y0239500D01*
X0098931Y0241802D02*
X0097396Y0241802D01*
X0097396Y0244104D02*
X0100465Y0244104D01*
X0202997Y0201759D02*
X0204165Y0200591D01*
X0203581Y0199335D02*
X0204749Y0199335D01*
X0205332Y0198751D01*
X0205332Y0197000D01*
X0205332Y0198168D02*
X0206500Y0199335D01*
X0206500Y0200591D02*
X0206500Y0202926D01*
X0206500Y0201759D02*
X0202997Y0201759D01*
X0203581Y0199335D02*
X0202997Y0198751D01*
X0202997Y0197000D01*
X0206500Y0197000D01*
X0210581Y0200600D02*
X0209997Y0201184D01*
X0209997Y0202351D01*
X0210581Y0202935D01*
X0211165Y0202935D01*
X0211749Y0202351D01*
X0212332Y0202935D01*
X0212916Y0202935D01*
X0213500Y0202351D01*
X0213500Y0201184D01*
X0212916Y0200600D01*
X0211749Y0201768D02*
X0211749Y0202351D01*
X0212916Y0204191D02*
X0213500Y0204775D01*
X0213500Y0205943D01*
X0212916Y0206526D01*
X0212332Y0206526D01*
X0211749Y0205943D01*
X0211749Y0205359D01*
X0211749Y0205943D02*
X0211165Y0206526D01*
X0210581Y0206526D01*
X0209997Y0205943D01*
X0209997Y0204775D01*
X0210581Y0204191D01*
X0210581Y0207782D02*
X0209997Y0208366D01*
X0209997Y0209534D01*
X0210581Y0210117D01*
X0212916Y0207782D01*
X0213500Y0208366D01*
X0213500Y0209534D01*
X0212916Y0210117D01*
X0210581Y0210117D01*
X0210581Y0207782D02*
X0212916Y0207782D01*
D17*
X0214300Y0186800D02*
X0209300Y0186800D01*
X0206800Y0184300D01*
X0206800Y0179300D01*
X0209300Y0176800D01*
X0206800Y0174300D01*
X0206800Y0169300D01*
X0209300Y0166800D01*
X0206800Y0164300D01*
X0206800Y0159300D01*
X0209300Y0156800D01*
X0206800Y0154300D01*
X0206800Y0149300D01*
X0209300Y0146800D01*
X0206800Y0144300D01*
X0206800Y0139300D01*
X0209300Y0136800D01*
X0206800Y0134300D01*
X0206800Y0129300D01*
X0209300Y0126800D01*
X0206800Y0124300D01*
X0206800Y0119300D01*
X0209300Y0116800D01*
X0206800Y0114300D01*
X0206800Y0109300D01*
X0209300Y0106800D01*
X0214300Y0106800D01*
X0216800Y0109300D01*
X0216800Y0114300D01*
X0214300Y0116800D01*
X0216800Y0119300D01*
X0216800Y0124300D01*
X0214300Y0126800D01*
X0216800Y0129300D01*
X0216800Y0134300D01*
X0214300Y0136800D01*
X0216800Y0139300D01*
X0216800Y0144300D01*
X0214300Y0146800D01*
X0216800Y0149300D01*
X0216800Y0154300D01*
X0214300Y0156800D01*
X0216800Y0159300D01*
X0216800Y0164300D01*
X0214300Y0166800D01*
X0216800Y0169300D01*
X0216800Y0174300D01*
X0214300Y0176800D01*
X0216800Y0179300D01*
X0216800Y0184300D01*
X0214300Y0186800D01*
X0214300Y0096800D02*
X0209300Y0096800D01*
X0206800Y0094300D01*
X0206800Y0089300D01*
X0209300Y0086800D01*
X0206800Y0084300D01*
X0206800Y0079300D01*
X0209300Y0076800D01*
X0206800Y0074300D01*
X0206800Y0069300D01*
X0209300Y0066800D01*
X0206800Y0064300D01*
X0206800Y0059300D01*
X0209300Y0056800D01*
X0206800Y0054300D01*
X0206800Y0049300D01*
X0209300Y0046800D01*
X0214300Y0046800D01*
X0216800Y0049300D01*
X0216800Y0054300D01*
X0214300Y0056800D01*
X0216800Y0059300D01*
X0216800Y0064300D01*
X0214300Y0066800D01*
X0216800Y0069300D01*
X0216800Y0074300D01*
X0214300Y0076800D01*
X0216800Y0079300D01*
X0216800Y0084300D01*
X0214300Y0086800D01*
X0216800Y0089300D01*
X0216800Y0094300D01*
X0214300Y0096800D01*
X0199300Y0056800D02*
X0194300Y0056800D01*
X0191800Y0054300D01*
X0189300Y0056800D01*
X0184300Y0056800D01*
X0181800Y0054300D01*
X0179300Y0056800D01*
X0174300Y0056800D01*
X0171800Y0054300D01*
X0171800Y0049300D01*
X0174300Y0046800D01*
X0179300Y0046800D01*
X0181800Y0049300D01*
X0184300Y0046800D01*
X0189300Y0046800D01*
X0191800Y0049300D01*
X0194300Y0046800D01*
X0199300Y0046800D01*
X0201800Y0049300D01*
X0201800Y0054300D01*
X0199300Y0056800D01*
X0166800Y0054300D02*
X0166800Y0049300D01*
X0164300Y0046800D01*
X0159300Y0046800D01*
X0156800Y0049300D01*
X0154300Y0046800D01*
X0149300Y0046800D01*
X0146800Y0049300D01*
X0144300Y0046800D01*
X0139300Y0046800D01*
X0136800Y0049300D01*
X0136800Y0054300D01*
X0139300Y0056800D01*
X0144300Y0056800D01*
X0146800Y0054300D01*
X0149300Y0056800D01*
X0154300Y0056800D01*
X0156800Y0054300D01*
X0159300Y0056800D01*
X0164300Y0056800D01*
X0166800Y0054300D01*
X0081800Y0089300D02*
X0079300Y0086800D01*
X0074300Y0086800D01*
X0071800Y0089300D01*
X0071800Y0094300D01*
X0074300Y0096800D01*
X0071800Y0099300D01*
X0071800Y0104300D01*
X0074300Y0106800D01*
X0071800Y0109300D01*
X0071800Y0114300D01*
X0074300Y0116800D01*
X0079300Y0116800D01*
X0081800Y0114300D01*
X0081800Y0109300D01*
X0079300Y0106800D01*
X0081800Y0104300D01*
X0081800Y0099300D01*
X0079300Y0096800D01*
X0081800Y0094300D01*
X0081800Y0089300D01*
X0031800Y0109300D02*
X0031800Y0114300D01*
X0029300Y0116800D01*
X0031800Y0119300D01*
X0031800Y0124300D01*
X0029300Y0126800D01*
X0031800Y0129300D01*
X0031800Y0134300D01*
X0029300Y0136800D01*
X0031800Y0139300D01*
X0031800Y0144300D01*
X0029300Y0146800D01*
X0031800Y0149300D01*
X0031800Y0154300D01*
X0029300Y0156800D01*
X0031800Y0159300D01*
X0031800Y0164300D01*
X0029300Y0166800D01*
X0031800Y0169300D01*
X0031800Y0174300D01*
X0029300Y0176800D01*
X0031800Y0179300D01*
X0031800Y0184300D01*
X0029300Y0186800D01*
X0024300Y0186800D01*
X0021800Y0184300D01*
X0021800Y0179300D01*
X0024300Y0176800D01*
X0021800Y0174300D01*
X0021800Y0169300D01*
X0024300Y0166800D01*
X0021800Y0164300D01*
X0021800Y0159300D01*
X0024300Y0156800D01*
X0021800Y0154300D01*
X0021800Y0149300D01*
X0024300Y0146800D01*
X0021800Y0144300D01*
X0021800Y0139300D01*
X0024300Y0136800D01*
X0021800Y0134300D01*
X0021800Y0129300D01*
X0024300Y0126800D01*
X0021800Y0124300D01*
X0021800Y0119300D01*
X0024300Y0116800D01*
X0021800Y0114300D01*
X0021800Y0109300D01*
X0024300Y0106800D01*
X0029300Y0106800D01*
X0031800Y0109300D01*
X0074300Y0226800D02*
X0071800Y0229300D01*
X0071800Y0234300D01*
X0074300Y0236800D01*
X0079300Y0236800D01*
X0081800Y0234300D01*
X0084300Y0236800D01*
X0089300Y0236800D01*
X0091800Y0234300D01*
X0094300Y0236800D01*
X0099300Y0236800D01*
X0101800Y0234300D01*
X0101800Y0229300D01*
X0099300Y0226800D01*
X0094300Y0226800D01*
X0091800Y0229300D01*
X0089300Y0226800D01*
X0084300Y0226800D01*
X0081800Y0229300D01*
X0079300Y0226800D01*
X0074300Y0226800D01*
D18*
X0176800Y0087550D03*
X0176800Y0066050D03*
X0211800Y0196050D03*
X0211800Y0217550D03*
X0046800Y0072550D03*
X0046800Y0051050D03*
D19*
X0181050Y0101800D03*
X0202550Y0101800D03*
M02*
